<svg width="170" height="238" viewBox="0 0 170 238" fill="none" xmlns="http://www.w3.org/2000/svg">
<path d="M56.5762 133.856V101.356C56.5762 101.356 55.0763 100.356 56.5762 98.3561C58.076 96.3561 95.5762 98.8561 95.5762 98.8561L99.0762 133.856C99.0762 133.856 156.076 146.356 160.576 149.856C165.076 153.356 169.076 237.856 169.076 237.856H163.076H0.576172C0.576172 237.856 2.07617 154.856 3.07617 149.856C4.07617 144.856 56.5762 133.856 56.5762 133.856Z" fill="black"/>
<path d="M30.2844 47.1083L40.0758 45.4764L33.5762 32.9763C31.0762 31.9763 26.4761 29.1764 28.0758 25.9762C29.6755 22.7761 45.4093 27.4762 46.5762 25.9762C48.7427 26.4762 36.1759 13.1762 44.5762 11.9762C55.0765 10.4763 48.0762 -1.02343 58.5762 2.97641C69.0762 6.97625 82.5762 8.97641 82.5762 2.97641C82.5762 -3.02359 100.931 3.47832 101.076 8.97641C101.576 27.9761 123.576 14.4764 117.576 29.9764C111.576 45.4764 123.576 29.9764 127.576 39.9764C131.576 49.9764 121.076 49.9764 132.076 53.4764C143.076 56.9764 133.076 66.4764 121.076 72.9764C109.076 79.4764 127.576 76.4764 123.576 86.4764C120.376 94.4764 105.743 86.3096 101.576 83.9763L97.0762 72.9764L77.0762 29.9764L48.5762 86.4764C44.2428 86.6431 29.9765 77.7764 33.5762 72.9764C37.1759 68.1764 24.076 68.4763 18.5762 70.4763L28.0758 63.4764C26.4091 60.6431 24.0758 53.9764 28.0758 49.9764C29.7035 48.3487 30.2825 47.4937 30.2844 47.1083L28.0758 47.4764C29.0642 46.9822 30.2872 46.5466 30.2844 47.1083Z" fill="#030303"/>
<ellipse cx="77.0762" cy="69.5801" rx="37.5" ry="42" fill="#030303"/>
<ellipse cx="77.5742" cy="81.5801" rx="30" ry="33" fill="#030303"/>
</svg>
