<svg width="480" height="703" viewBox="0 0 480 703" fill="none" xmlns="http://www.w3.org/2000/svg">
<path d="M140.121 110.019C219.855 55.2271 293.921 64.6318 293.921 64.6318C293.921 64.6318 425.529 77.3074 432.889 117.788L427.982 528.317H140.121V110.019Z" fill="#A9FAFF" fill-opacity="0.3"/>
<ellipse cx="288.551" cy="266.626" rx="146.793" ry="68.6941" fill="#663019"/>
<path d="M270.061 216.241C232.197 219.221 225.344 221.052 201.346 229.032C172.456 238.64 155.538 253.803 192.002 271.446C199.526 275.087 248.735 292.688 326.87 281.199C389.379 272.007 382.087 266.969 387.399 258.503C393.503 240.636 252.829 237.392 227.742 247.973C202.655 258.554 242.685 268.66 274.494 268.702C299.324 268.734 308.196 252.546 308.196 252.546M270.061 216.241C307.925 213.261 347.193 221.543 347.193 221.543M270.061 216.241L326.863 218.269L347.193 221.543M347.193 221.543C347.193 221.543 374.119 228.538 381.787 232.039C389.454 235.54 393.753 237.503 401.421 241.005C409.089 244.506 416.989 251.158 415.915 260.214C414.74 270.127 393.946 276.004 393.946 276.004" stroke="#83675D" stroke-width="12.2668"/>
<path d="M143.108 281.555L139.581 110.247M139.581 110.247C250.577 150.947 328.559 152.738 434.86 114.28M139.581 110.247C139.581 110.247 182.824 64.3975 292.012 65.8878C401.2 67.3782 434.86 114.28 434.86 114.28M434.86 114.28L426.866 294.492" stroke="#A7FAFF" stroke-width="4.08894"/>
<path d="M139.451 530.389C139.64 516.605 133.509 460.812 132.594 448.1L141.349 391.469L134.835 283.986C135.1 264.639 137.205 227.346 143.514 232.947C151.4 239.948 148.446 296.87 166.598 296.03C181.12 295.357 172.881 278.821 166.945 270.637C177.565 272.354 201.753 277.643 213.552 285.061C228.301 294.333 268.204 294.878 279.935 285.968C289.321 278.84 276.408 260.885 268.778 252.799C271.158 246.784 280.725 233.442 299.954 228.19C323.99 221.625 365.981 255.215 388.74 262.419C406.947 268.183 406.145 254.312 403.468 246.656L421.019 236.737L433.299 202.429C431.965 273.523 428.198 412.42 434.443 422.664C442.25 435.469 440.087 514.191 439.789 535.957C439.492 557.722 469.73 575.187 473.249 583.217C476.767 591.247 465.006 602.334 438.744 612.497C412.482 622.66 337.92 636.154 303.429 637.86C268.938 639.566 170.06 626.968 138.277 616.375C112.85 607.901 105.178 595.847 104.521 590.879C104.578 586.647 108.343 576.637 122.94 570.45C141.186 562.718 139.263 544.174 139.451 530.389Z" fill="white"/>
<path d="M429.44 567.266C428.573 567.806 427.767 568.202 427.022 568.455C426.278 568.709 425.681 568.885 425.231 568.985C424.79 569.049 424.569 569.081 424.569 569.081L424.171 568.877C424.026 568.547 423.813 568.108 423.532 567.561C423.273 567 422.997 566.435 422.702 565.866C422.416 565.262 422.156 564.747 421.921 564.322L423.608 563.046C424.318 564.138 425.081 564.806 425.895 565.051C426.709 565.296 427.594 565.122 428.547 564.528C429.176 564.136 429.615 563.682 429.865 563.165C430.101 562.627 430.091 562.152 429.835 561.74C429.646 561.437 429.38 561.226 429.036 561.109C428.714 560.979 428.227 560.921 427.575 560.937C426.93 560.917 426.046 560.971 424.923 561.099C423.244 561.302 421.903 561.25 420.899 560.942C419.882 560.613 419.09 559.993 418.523 559.083C417.902 558.086 417.644 557.043 417.748 555.955C417.853 554.867 418.286 553.8 419.049 552.754C419.798 551.686 420.822 550.747 422.123 549.937C423.185 549.275 424.113 548.833 424.906 548.609C425.721 548.372 426.129 548.254 426.129 548.254L426.494 548.478C426.494 548.478 426.579 548.711 426.749 549.177C426.927 549.607 427.164 550.181 427.461 550.899C427.765 551.582 428.108 552.301 428.489 553.057L426.749 554.321C426.749 554.321 426.701 554.245 426.607 554.093C426.534 553.928 426.471 553.802 426.417 553.715C425.944 552.957 425.416 552.519 424.831 552.401C424.233 552.262 423.544 552.436 422.764 552.922C422.178 553.286 421.778 553.731 421.564 554.256C421.357 554.745 421.382 555.196 421.639 555.608C421.895 556.02 422.305 556.291 422.868 556.422C423.452 556.539 424.256 556.55 425.28 556.454C426.901 556.257 428.214 556.191 429.218 556.258C430.209 556.303 430.99 556.493 431.56 556.83C432.153 557.153 432.651 557.64 433.056 558.29C433.61 559.179 433.83 560.185 433.717 561.308C433.591 562.409 433.153 563.494 432.405 564.562C431.664 565.595 430.676 566.496 429.44 567.266Z" fill="#FFC56F"/>
<path d="M411.245 577.551C410.34 578.024 409.506 578.358 408.744 578.554C407.982 578.75 407.373 578.881 406.918 578.946C406.473 578.977 406.25 578.992 406.25 578.992L405.869 578.759C405.749 578.418 405.57 577.964 405.331 577.398C405.116 576.819 404.883 576.235 404.633 575.645C404.393 575.021 404.173 574.488 403.971 574.046L405.75 572.901C406.375 574.044 407.084 574.768 407.878 575.074C408.671 575.38 409.566 575.273 410.562 574.753C411.219 574.41 411.691 573.991 411.979 573.495C412.256 572.976 412.282 572.501 412.057 572.071C411.892 571.754 411.642 571.525 411.308 571.382C410.997 571.228 410.516 571.133 409.864 571.099C409.223 571.03 408.338 571.017 407.208 571.06C405.519 571.135 404.185 570.981 403.208 570.599C402.218 570.193 401.476 569.515 400.979 568.564C400.436 567.523 400.257 566.464 400.444 565.387C400.631 564.31 401.144 563.279 401.983 562.293C402.811 561.285 403.904 560.426 405.262 559.717C406.371 559.138 407.33 558.767 408.138 558.605C408.969 558.43 409.384 558.343 409.384 558.343L409.731 558.594C409.731 558.594 409.798 558.833 409.932 559.31C410.077 559.753 410.27 560.344 410.511 561.082C410.764 561.785 411.051 562.529 411.373 563.311L409.542 564.44C409.542 564.44 409.501 564.36 409.418 564.202C409.358 564.032 409.304 563.901 409.257 563.811C408.843 563.018 408.35 562.542 407.776 562.38C407.19 562.196 406.49 562.317 405.675 562.743C405.063 563.062 404.631 563.475 404.377 563.982C404.134 564.454 404.125 564.906 404.349 565.336C404.574 565.766 404.962 566.067 405.513 566.241C406.087 566.402 406.888 566.474 407.916 566.456C409.548 566.381 410.862 566.415 411.858 566.558C412.842 566.678 413.606 566.927 414.15 567.306C414.716 567.673 415.176 568.196 415.531 568.875C416.015 569.803 416.159 570.823 415.961 571.935C415.752 573.023 415.233 574.072 414.406 575.08C413.589 576.054 412.535 576.877 411.245 577.551Z" fill="#FFC56F"/>
<path d="M393.339 585.996C391.693 586.695 390.131 586.969 388.653 586.82C387.198 586.66 385.883 586.109 384.706 585.166C383.552 584.213 382.626 582.913 381.928 581.268C381.38 579.975 381.087 578.698 381.052 577.437C381.016 576.176 381.205 574.986 381.618 573.868C382.021 572.726 382.633 571.717 383.454 570.842C384.266 569.942 385.259 569.244 386.434 568.745C390.384 567.069 393.206 568.229 394.902 572.226C395.052 572.578 395.171 572.958 395.26 573.364C395.373 573.76 395.45 574.073 395.493 574.305L395.25 574.908L386.117 578.783C386.852 580.385 387.767 581.495 388.861 582.112C389.969 582.697 391.189 582.761 392.522 582.307C393.855 581.852 395.222 580.856 396.622 579.319L396.929 579.355L398.226 580.843C397.906 581.396 397.482 582.033 396.957 582.755C396.421 583.454 395.837 584.104 395.204 584.705C394.572 585.307 393.95 585.737 393.339 585.996ZM385.294 576.844L390.005 574.512C390.277 574.368 390.429 574.235 390.459 574.111C390.503 573.953 390.461 573.722 390.331 573.416C389.972 572.57 389.509 572.003 388.944 571.716C388.378 571.429 387.731 571.44 387.002 571.75C386.085 572.139 385.468 572.775 385.149 573.659C384.845 574.51 384.893 575.571 385.294 576.844Z" fill="#FFC56F"/>
<path d="M365.64 593.445C366.35 593.154 366.77 592.798 366.899 592.378C367.052 591.95 366.971 591.264 366.656 590.319L364.242 583.089C363.967 582.265 363.672 581.745 363.357 581.527C363.034 581.285 362.57 581.265 361.964 581.467C361.819 581.515 361.665 581.58 361.504 581.661C361.358 581.709 361.286 581.734 361.286 581.734L361.019 581.54L360.631 579.65C361.616 579.133 362.572 578.612 363.501 578.086C364.429 577.561 365.2 577.129 365.814 576.789C366.444 576.418 366.758 576.232 366.758 576.232L367.195 576.45C367.195 576.45 367.219 576.643 367.268 577.031C367.332 577.386 367.429 577.838 367.559 578.387C367.68 578.912 367.818 579.445 367.971 579.986L368.238 580.059C368.633 578.662 369.174 577.498 369.86 576.569C370.546 575.64 371.3 575.039 372.124 574.764C372.511 574.634 372.822 574.557 373.057 574.533C373.307 574.476 373.432 574.448 373.432 574.448L373.674 574.69C373.674 574.69 373.707 574.908 373.772 575.344C373.852 575.748 373.954 576.293 374.075 576.979C374.221 577.658 374.375 578.401 374.536 579.208C374.723 580.007 374.925 580.774 375.143 581.509L372.866 582.431C372.478 581.268 372.151 580.529 371.884 580.215C371.634 579.867 371.302 579.763 370.891 579.9C370.503 580.03 370.14 580.312 369.801 580.749C369.462 581.185 369.184 581.722 368.966 582.36C368.966 582.36 369.026 582.582 369.148 583.026C369.261 583.446 369.403 583.991 369.572 584.661C369.767 585.323 369.965 585.997 370.167 586.684C370.369 587.37 370.543 587.972 370.689 588.488C370.834 589.005 370.931 589.336 370.98 589.482C371.19 590.111 371.432 590.515 371.707 590.693C372.006 590.862 372.422 590.858 372.955 590.68C373.294 590.567 373.677 590.425 374.105 590.255C374.525 590.061 374.735 589.964 374.735 589.964L374.917 590.146L375.318 592.678C375.318 592.678 375.156 592.718 374.833 592.799C374.51 592.88 374.09 592.993 373.574 593.139C373.089 593.3 372.576 593.458 372.035 593.612C371.503 593.79 371.018 593.951 370.582 594.097C369.855 594.339 369.145 594.59 368.451 594.849C367.756 595.108 367.183 595.326 366.731 595.504C366.303 595.674 366.089 595.758 366.089 595.758L365.64 593.445Z" fill="#FFC56F"/>
<path d="M342.672 611.04L342.422 608.696C343.099 608.454 343.501 608.16 343.628 607.814C343.78 607.463 343.76 606.837 343.569 605.937C343.48 605.459 343.364 604.87 343.221 604.169C343.084 603.493 342.941 602.792 342.793 602.066C342.65 601.365 342.512 600.741 342.381 600.195L339.838 589.657C339.634 588.813 339.357 588.263 339.006 588.006C338.68 587.743 338.169 587.695 337.474 587.863L336.99 587.98L336.796 587.83L336.515 585.848C337.59 585.405 338.628 584.971 339.629 584.545C340.624 584.095 341.429 583.73 342.044 583.45C342.679 583.14 342.996 582.984 342.996 582.984L343.421 583.276C343.421 583.276 343.422 583.552 343.423 584.103C343.444 584.623 343.495 585.163 343.577 585.721L343.771 585.871C344.524 584.744 345.169 583.879 345.706 583.276C346.238 582.649 346.628 582.305 346.876 582.245C348.341 581.892 349.7 581.918 350.954 582.325C352.233 582.726 353.332 583.472 354.252 584.563C355.167 585.63 355.821 586.983 356.217 588.621C356.57 590.086 356.642 591.474 356.433 592.785C356.243 594.066 355.806 595.248 355.122 596.333C354.457 597.386 353.573 598.296 352.47 599.061C351.387 599.795 350.125 600.336 348.685 600.683C348.511 600.725 348.285 600.767 348.006 600.808C347.751 600.843 347.522 600.872 347.317 600.895C347.119 600.943 347.02 600.967 347.02 600.967C347.151 601.513 347.286 602.072 347.424 602.643C347.592 603.233 347.749 603.825 347.892 604.421C348.126 605.389 348.362 606.042 348.601 606.378C348.84 606.714 349.257 606.811 349.853 606.667C350.126 606.601 350.408 606.52 350.7 606.423C351.017 606.32 351.237 606.254 351.362 606.224L351.472 606.355L351.61 608.725C351.462 608.761 351.198 608.812 350.82 608.877C350.472 608.961 350.072 609.044 349.619 609.127C349.197 609.229 348.763 609.334 348.316 609.442C347.869 609.549 347.472 609.645 347.124 609.729C346.429 609.897 345.737 610.077 345.048 610.269C344.365 610.487 343.79 610.665 343.325 610.803C342.89 610.961 342.672 611.04 342.672 611.04ZM349.26 597.353C350.477 597.059 351.312 596.385 351.767 595.329C352.216 594.249 352.236 592.865 351.829 591.177C351.535 589.961 351.12 588.945 350.581 588.129C350.068 587.307 349.468 586.729 348.784 586.395C348.118 586.03 347.412 585.938 346.668 586.118C346.32 586.202 345.925 586.415 345.483 586.758C345.034 587.077 344.628 587.464 344.265 587.919C344.449 588.899 344.651 589.954 344.871 591.083C345.116 592.206 345.36 593.329 345.605 594.452C345.869 595.544 346.111 596.55 346.333 597.468C346.63 597.502 347.057 597.53 347.614 597.553C348.166 597.551 348.714 597.485 349.26 597.353Z" fill="#FFC56F"/>
<path d="M324.672 605.134L324.493 604.967L324.527 603.065C325.054 602.963 325.424 602.845 325.637 602.711C325.846 602.551 325.935 602.37 325.906 602.168C325.888 602.042 325.828 601.896 325.726 601.73C325.625 601.564 325.467 601.367 325.254 601.14L322.528 598.362C322.236 598.843 321.904 599.395 321.53 600.017C321.181 600.635 320.877 601.208 320.618 601.736C320.384 602.26 320.282 602.624 320.312 602.826C320.352 603.104 320.481 603.279 320.697 603.35C320.914 603.422 321.29 603.432 321.824 603.38L321.971 603.591L321.97 605.449C321.97 605.449 321.816 605.459 321.51 605.477C321.232 605.518 320.876 605.556 320.443 605.594C320.009 605.631 319.589 605.666 319.181 605.699C318.776 605.758 318.46 605.804 318.233 605.837C317.854 605.892 317.437 605.953 316.982 606.019C316.531 606.11 316.143 606.192 315.818 606.265C315.518 606.334 315.368 606.369 315.368 606.369L315.178 606.126L315.223 604.3C315.526 604.075 315.81 603.815 316.077 603.518C316.344 603.221 316.623 602.832 316.914 602.351C317.231 601.867 317.63 601.241 318.112 600.474L320.622 596.433L317.527 593.244C316.948 592.631 316.441 592.163 316.007 591.839C315.573 591.515 315.141 591.294 314.711 591.175C314.281 591.057 313.78 590.988 313.21 590.967L313.106 590.789L313.031 588.671C313.031 588.671 313.248 588.652 313.681 588.615C314.136 588.549 314.694 588.481 315.354 588.411C316.037 588.312 316.732 588.211 317.439 588.108C318.223 587.995 318.966 587.874 319.67 587.746C320.374 587.618 320.939 587.51 321.365 587.422C321.816 587.331 322.042 587.285 322.042 587.285L322.227 587.491L322.237 589.425C321.276 589.564 320.831 589.874 320.901 590.354C320.945 590.657 321.061 590.924 321.249 591.155C321.438 591.386 321.682 591.647 321.982 591.939L323.899 593.944L325.377 591.33C325.6 590.91 325.769 590.563 325.884 590.288C326.025 590.01 326.076 589.744 326.04 589.492C326.01 589.29 325.903 589.176 325.719 589.151C325.531 589.101 325.159 589.116 324.603 589.197L324.506 589.056L324.452 587.09L327.788 586.606C328.243 586.54 328.709 586.459 329.185 586.364C329.687 586.266 330.102 586.192 330.431 586.145C330.781 586.068 330.956 586.03 330.956 586.03L331.097 586.203L331.161 588.245C330.671 588.6 330.183 589.058 329.696 589.619C329.21 590.18 328.762 590.825 328.352 591.556L325.881 595.863L329.421 599.452C330.178 600.219 330.852 600.779 331.446 601.132C332.06 601.455 332.738 601.589 333.478 601.533L333.614 601.668L333.597 603.684C333.597 603.684 333.367 603.704 332.909 603.745C332.454 603.811 331.934 603.873 331.349 603.933C330.768 604.017 330.288 604.087 329.909 604.142C329.555 604.193 329.089 604.274 328.511 604.383C327.934 604.493 327.344 604.604 326.741 604.718C326.163 604.827 325.674 604.924 325.273 605.008C324.873 605.092 324.672 605.134 324.672 605.134Z" fill="#FFC56F"/>
<path d="M287.762 608.351L287.91 605.775C288.974 605.572 289.687 605.232 290.048 604.755C290.409 604.278 290.563 603.478 290.511 602.356L289.869 587.776C289.829 586.934 289.727 586.389 289.562 586.141C289.396 585.868 289.058 585.743 288.548 585.767C288.395 585.774 288.204 585.796 287.976 585.832C287.746 585.843 287.542 585.865 287.365 585.899L287.119 585.565L287.318 583.255C287.905 583.227 288.607 583.207 289.425 583.195C290.242 583.182 291.072 583.169 291.915 583.155C292.783 583.115 293.561 583.078 294.249 583.046C296.086 582.961 297.731 582.871 299.184 582.778C300.636 582.684 301.91 582.574 303.003 582.446C304.122 582.317 305.074 582.183 305.86 582.044L306.186 582.451C306.088 583.094 305.994 583.827 305.905 584.65C305.816 585.472 305.752 586.306 305.715 587.151C305.677 587.971 305.648 588.726 305.629 589.417L302.234 589.806C302.25 589.601 302.251 589.345 302.237 589.039C302.247 588.706 302.248 588.45 302.239 588.272C302.214 587.736 302.144 587.318 302.027 587.016C301.91 586.689 301.682 586.457 301.343 586.32C301.003 586.157 300.5 586.065 299.835 586.045C299.193 585.998 298.324 586 297.227 586.052C296.615 586.08 296.157 586.127 295.853 586.193C295.575 586.257 295.402 586.38 295.334 586.562C295.266 586.744 295.228 587.04 295.222 587.449L295.227 595.77L295.419 602.357C295.452 603.046 295.526 603.553 295.644 603.88C295.786 604.18 296.025 604.374 296.361 604.46C296.723 604.546 297.274 604.571 298.014 604.537C299.213 604.481 300.18 604.384 300.915 604.248C301.65 604.111 302.215 603.893 302.61 603.593C303.004 603.268 303.289 602.807 303.466 602.211C303.642 601.615 303.772 600.842 303.856 599.892L306.981 599.478L307.265 599.81C307.13 600.762 306.992 601.906 306.85 603.242C306.733 604.577 306.637 605.808 306.562 606.937L306.199 607.375C304.819 607.389 303.376 607.405 301.868 607.424C300.388 607.468 298.983 607.508 297.656 607.544C296.328 607.581 295.205 607.62 294.287 607.663C293.368 607.706 292.298 607.782 291.076 607.89C289.855 608.024 288.75 608.177 287.762 608.351ZM294.785 596.98L294.928 593.483C295.107 593.475 295.426 593.46 295.885 593.439C296.344 593.417 296.842 593.407 297.379 593.407C297.915 593.382 298.399 593.36 298.833 593.339C299.241 593.32 299.89 593.252 300.779 593.133C301.668 593.015 302.494 592.9 303.256 592.788L303.578 593.118L303.194 596.395C302.53 596.401 301.699 596.414 300.703 596.435C299.707 596.456 298.865 596.482 298.176 596.514C297.615 596.541 297.017 596.607 296.383 596.713C295.748 596.794 295.215 596.883 294.785 596.98Z" fill="#FFC56F"/>
<path d="M264.614 607.528C262.806 607.385 261.513 606.899 260.733 606.069C259.953 605.238 259.627 604.021 259.754 602.418L260.428 593.902C260.49 593.113 260.392 592.567 260.134 592.265C259.877 591.963 259.341 591.767 258.529 591.677L258.168 591.38L258.583 589.53C259.428 589.212 260.25 588.855 261.05 588.457C261.852 588.033 262.562 587.641 263.18 587.28C263.825 586.896 264.336 586.59 264.713 586.364C265.091 586.112 265.28 585.986 265.28 585.986L266.307 586.606C266.307 586.606 266.233 586.894 266.085 587.472C265.965 588.026 265.812 588.821 265.628 589.856L270.143 590.098L270.28 590.301L269.696 592.829L265.199 592.358C265.036 593.447 264.874 594.689 264.712 596.086C264.578 597.458 264.444 598.985 264.311 600.665C264.225 601.76 264.353 602.564 264.697 603.078C265.041 603.592 265.645 603.883 266.511 603.951C267.071 603.996 267.6 603.948 268.097 603.808C268.595 603.668 268.844 603.598 268.844 603.598L269.244 604.859C269.244 604.859 269.054 604.998 268.673 605.275C268.318 605.554 267.87 605.878 267.328 606.245C266.814 606.588 266.304 606.894 265.796 607.161C265.288 607.428 264.894 607.551 264.614 607.528Z" fill="#FFC56F"/>
<path d="M242.643 602.469C243.294 602.445 243.772 602.29 244.077 602.003C244.412 601.695 244.641 601.241 244.764 600.64L245.939 594.117C246.119 593.008 246.05 592.156 245.733 591.561C245.42 590.941 244.847 590.564 244.015 590.429C243.612 590.363 243.169 590.382 242.687 590.485C242.234 590.566 241.812 590.692 241.423 590.862C241.033 591.031 240.71 591.186 240.455 591.325C240.319 592.002 240.156 592.765 239.967 593.613C239.777 594.462 239.588 595.311 239.398 596.16C239.238 596.988 239.092 597.727 238.961 598.378C238.829 599.03 238.741 599.494 238.696 599.771C238.59 600.427 238.604 600.895 238.74 601.175C238.879 601.431 239.151 601.591 239.554 601.657C239.731 601.686 239.945 601.72 240.197 601.761C240.453 601.777 240.581 601.785 240.581 601.785L240.632 601.948L239.874 604.231C239.874 604.231 239.649 604.182 239.199 604.083C238.75 603.984 238.212 603.871 237.586 603.743C236.981 603.645 236.426 603.555 235.922 603.473C235.267 603.367 234.584 603.269 233.874 603.18C233.185 603.12 232.599 603.064 232.116 603.011C231.654 602.988 231.423 602.976 231.423 602.976L232.106 600.681C232.854 600.699 233.391 600.579 233.717 600.322C234.069 600.068 234.302 599.589 234.416 598.883L235.717 590.867C235.856 590.01 235.814 589.395 235.59 589.022C235.391 588.654 234.938 588.412 234.233 588.298L233.741 588.218L233.62 588.004L234.129 586.069C235.317 586.081 236.455 586.084 237.542 586.079C238.633 586.05 239.529 586.027 240.231 586.011C240.936 585.971 241.288 585.95 241.288 585.95L241.529 586.377C241.529 586.377 241.421 586.644 241.205 587.178C241.019 587.691 240.847 588.272 240.69 588.919L240.817 589.095C241.16 588.892 241.575 588.648 242.061 588.365C242.572 588.086 243.093 587.821 243.625 587.571C244.182 587.325 244.694 587.124 245.159 586.966C245.625 586.809 245.983 586.751 246.235 586.792C248.025 587.082 249.342 587.736 250.186 588.752C251.055 589.773 251.365 591.052 251.115 592.59C251.054 592.968 250.922 593.542 250.72 594.311C250.517 595.08 250.29 595.923 250.038 596.839C249.811 597.759 249.592 598.629 249.381 599.449C249.196 600.272 249.064 600.924 248.986 601.403C248.884 602.033 248.897 602.513 249.024 602.845C249.156 603.15 249.436 603.338 249.864 603.408C250.091 603.445 250.345 603.473 250.626 603.493C250.908 603.512 251.048 603.522 251.048 603.522L251.1 603.686L250.385 605.937C250.385 605.937 250.236 605.9 249.937 605.826C249.66 605.781 249.309 605.711 248.885 605.616C248.456 605.546 248.017 605.462 247.568 605.363C247.114 605.29 246.698 605.222 246.32 605.161C245.942 605.1 245.511 605.043 245.028 604.99C244.566 604.967 244.106 604.931 243.649 604.883C243.191 604.834 242.808 604.798 242.502 604.774C242.216 604.78 242.074 604.782 242.074 604.782L242.643 602.469Z" fill="#FFC56F"/>
<path d="M216.79 599.745C215.06 599.298 213.653 598.565 212.571 597.547C211.514 596.535 210.805 595.297 210.445 593.833C210.109 592.374 210.165 590.78 210.612 589.049C210.964 587.689 211.509 586.498 212.248 585.476C212.986 584.454 213.86 583.624 214.868 582.988C215.883 582.327 216.983 581.899 218.167 581.704C219.358 581.484 220.572 581.534 221.808 581.853C225.962 582.926 227.496 585.564 226.41 589.768C226.314 590.139 226.178 590.512 226.002 590.889C225.85 591.272 225.721 591.568 225.614 591.778L225.054 592.108L215.448 589.626C215.057 591.345 215.108 592.782 215.6 593.938C216.124 595.076 217.053 595.87 218.387 596.32C219.722 596.77 221.412 596.811 223.459 596.443L223.68 596.659L223.804 598.629C223.214 598.872 222.49 599.121 221.634 599.374C220.783 599.603 219.924 599.763 219.056 599.855C218.188 599.948 217.433 599.911 216.79 599.745ZM215.975 587.586L221.133 588.602C221.436 588.654 221.637 588.64 221.737 588.56C221.868 588.462 221.975 588.253 222.058 587.931C222.288 587.041 222.266 586.31 221.991 585.738C221.717 585.166 221.197 584.781 220.43 584.583C219.466 584.334 218.589 584.463 217.798 584.971C217.039 585.461 216.431 586.332 215.975 587.586Z" fill="#FFC56F"/>
<path d="M193.08 592.555L194.137 590.364C194.88 590.478 195.469 590.406 195.906 590.148C196.366 589.898 196.706 589.447 196.925 588.793L199.552 580.947C199.811 580.172 199.881 579.603 199.76 579.239C199.639 578.876 199.289 578.597 198.707 578.402C198.562 578.353 198.372 578.317 198.138 578.292C197.936 578.252 197.835 578.231 197.835 578.231L198.747 576.234C199.61 576.388 200.462 576.539 201.302 576.685C202.174 576.816 202.957 576.93 203.651 577.028C204.378 577.109 204.947 577.179 205.359 577.236C205.795 577.301 206.013 577.334 206.013 577.334L206.145 578.024C205.935 578.25 205.64 578.73 205.259 579.465C204.911 580.183 204.51 581.099 204.056 582.213C203.611 583.302 203.12 584.565 202.586 586.002C202.059 587.415 201.528 588.92 200.993 590.518C200.806 591.075 200.753 591.515 200.833 591.838C200.922 592.137 201.172 592.356 201.584 592.493C201.777 592.558 201.999 592.619 202.25 592.676C202.524 592.741 202.661 592.774 202.661 592.774L202.71 592.992L201.604 595.086C201.604 595.086 201.475 595.029 201.217 594.916C200.951 594.826 200.604 594.697 200.176 594.527C199.764 594.389 199.332 594.231 198.88 594.052C198.444 593.907 198.033 593.769 197.645 593.639C197.064 593.444 196.41 593.266 195.684 593.103C194.981 592.949 194.368 592.811 193.843 592.689C193.334 592.6 193.08 592.555 193.08 592.555ZM204.117 573.225C203.293 572.949 202.741 572.508 202.459 571.902C202.209 571.28 202.21 570.594 202.462 569.843C202.745 568.995 203.243 568.395 203.954 568.04C204.673 567.662 205.457 567.614 206.304 567.898C207.103 568.165 207.628 568.61 207.877 569.232C208.151 569.863 208.162 570.553 207.911 571.304C207.627 572.151 207.142 572.756 206.455 573.119C205.768 573.481 204.988 573.517 204.117 573.225Z" fill="#FFC56F"/>
<path d="M175.91 583.033C176.638 583.276 177.188 583.28 177.56 583.046C177.955 582.822 178.342 582.249 178.719 581.327L181.608 574.273C181.937 573.469 182.053 572.882 181.956 572.512C181.869 572.117 181.531 571.799 180.94 571.557C180.798 571.499 180.639 571.448 180.464 571.404C180.323 571.346 180.252 571.317 180.252 571.317L180.176 570.996L181.114 569.311C182.198 569.562 183.264 569.791 184.31 569.999C185.356 570.206 186.223 570.382 186.909 570.525C187.629 570.654 187.989 570.718 187.989 570.718L188.177 571.168C188.177 571.168 188.069 571.331 187.853 571.656C187.67 571.968 187.449 572.374 187.189 572.874C186.938 573.351 186.695 573.845 186.458 574.355L186.613 574.584C187.824 573.783 188.992 573.254 190.118 572.998C191.244 572.741 192.209 572.778 193.013 573.107C193.391 573.261 193.677 573.406 193.87 573.54C194.097 573.661 194.21 573.721 194.21 573.721L194.236 574.063C194.236 574.063 194.118 574.249 193.882 574.622C193.68 574.981 193.401 575.46 193.046 576.059C192.713 576.668 192.345 577.331 191.941 578.049C191.561 578.776 191.213 579.489 190.899 580.189L188.573 579.401C189.037 578.267 189.271 577.494 189.274 577.081C189.311 576.655 189.128 576.359 188.727 576.195C188.349 576.04 187.889 576.017 187.347 576.126C186.806 576.236 186.244 576.461 185.663 576.803C185.663 576.803 185.564 577.011 185.366 577.426C185.178 577.818 184.93 578.324 184.621 578.943C184.336 579.571 184.047 580.211 183.752 580.863C183.458 581.515 183.197 582.084 182.97 582.571C182.743 583.058 182.601 583.372 182.543 583.514C182.291 584.128 182.211 584.592 182.304 584.906C182.42 585.229 182.738 585.498 183.257 585.71C183.588 585.846 183.971 585.989 184.406 586.139C184.851 586.266 185.073 586.33 185.073 586.33L185.093 586.586L183.745 588.766C183.745 588.766 183.596 588.691 183.298 588.542C183.001 588.392 182.609 588.204 182.122 587.977C181.65 587.784 181.158 587.569 180.648 587.332C180.128 587.12 179.655 586.926 179.23 586.752C178.521 586.461 177.819 586.188 177.124 585.931C176.429 585.674 175.852 585.465 175.393 585.305C174.958 585.155 174.741 585.079 174.741 585.079L175.91 583.033Z" fill="#FFC56F"/>
<path d="M155.053 575.817C153.066 574.767 151.566 573.425 150.552 571.791C149.573 570.146 149.112 568.314 149.17 566.293C149.25 564.285 149.869 562.185 151.027 559.996C151.958 558.235 153.065 556.769 154.348 555.599C155.643 554.406 157.051 553.547 158.571 553.022C160.125 552.486 161.729 552.294 163.382 552.446C165.057 552.61 166.73 553.134 168.401 554.017C170.455 555.103 171.978 556.457 172.969 558.079C173.983 559.713 174.467 561.529 174.421 563.527C174.376 565.525 173.774 567.619 172.616 569.809C171.661 571.615 170.525 573.108 169.207 574.289C167.901 575.447 166.471 576.294 164.917 576.83C163.374 577.343 161.759 577.529 160.072 577.388C158.397 577.224 156.723 576.701 155.053 575.817ZM157.455 573.405C158.539 573.978 159.614 574.185 160.68 574.026C161.746 573.868 162.768 573.354 163.748 572.485C164.762 571.606 165.68 570.388 166.504 568.83C167.555 566.843 168.212 565.053 168.477 563.46C168.764 561.879 168.675 560.517 168.21 559.376C167.745 558.234 166.925 557.353 165.751 556.733C164.69 556.172 163.621 555.982 162.543 556.163C161.5 556.333 160.488 556.853 159.509 557.721C158.529 558.59 157.628 559.803 156.804 561.361C155.766 563.325 155.097 565.109 154.798 566.713C154.533 568.306 154.622 569.667 155.064 570.797C155.53 571.938 156.327 572.808 157.455 573.405Z" fill="#FFC56F"/>
<path d="M190.427 257.276C191.705 262.775 197.199 266.197 202.698 264.919C208.197 263.641 211.619 258.147 210.341 252.648L190.427 257.276ZM131.941 5.61231L190.427 257.276L210.341 252.648L151.855 0.98437L131.941 5.61231Z" fill="white"/>
<path d="M187.59 255.143H212.582V267.639L191.755 264.414L187.59 255.143Z" fill="#5A311E"/>
<path d="M282.27 283.197C287.557 285.121 328.642 308.384 334.657 314.911C357.246 339.423 357.246 353.842 357.246 383.159C357.246 397.77 355.644 419.686 357.246 425.934C366.378 437.469 411.556 469.19 411.556 535.035C398.259 545.288 313.029 563.391 288.999 563.391C251.51 563.391 204.121 560.411 168.363 535.035C161.795 524.141 148.754 496.008 149.139 470.632C149.619 438.911 185.185 407.671 186.627 370.663C187.781 341.057 185.666 313.957 179.418 307.222C173.17 300.486 166.057 294.918 156.829 307.222C147.601 319.525 146.576 330.291 147.216 334.136C147.216 338.141 148.897 346.678 151.061 351.438C153.464 356.725 158.751 363.454 170.286 360.09C179.514 357.398 177.976 333.656 176.054 322.121C175.893 318.276 173.939 310.586 167.402 310.586C159.232 310.586 155.387 322.121 155.387 331.733C155.387 334.184 159.081 355.201 164.519 353.842C172.209 351.919 169.325 338.942 167.402 331.733" stroke="#E8B466" stroke-width="4"/>
<path d="M289.801 423.769C293.302 424.427 305.234 422.357 310.763 421.24C309.08 420.99 305.21 420.109 303.195 418.584C301.179 417.059 300.72 415.402 300.742 414.765L296.798 409.745C299.921 409.885 306.561 410.408 308.136 411.382C309.711 412.356 314.269 415.872 316.35 417.508C319.203 418.086 325.252 419.272 326.626 419.396C328.001 419.52 328.989 417.531 329.311 416.521L330.868 415.809L335.623 419.517C337.147 419.761 340.594 420.302 342.196 420.51C343.797 420.719 339.104 418.552 336.557 417.442C333.965 414.863 328.792 409.417 328.831 408.269C328.871 407.122 330.405 407.079 331.167 407.201L339.375 410.741C338.15 407.379 335.832 400.22 336.352 398.476C336.873 396.732 337.866 397.156 338.298 397.586C340.949 400.295 346.284 405.887 346.413 406.581C346.542 407.275 347.728 410.999 348.305 412.775C347.972 409.475 347.777 402.051 349.653 398.745C351.529 395.44 353.039 405.119 353.559 410.371C353.209 412.178 352.532 416.253 352.621 418.095C352.733 420.397 355.024 423.349 356.353 423.682C357.416 423.949 357.33 424.961 357.154 425.434C353.894 424.65 346.859 422.989 344.804 422.612C342.235 422.14 330.686 421.069 328.579 421.092C326.471 421.114 320.693 419.286 315.439 421.69C311.236 423.612 295.666 424.93 288.406 425.349C287.313 423.58 285.572 421.053 283.714 418.889C282.995 418.161 282.241 417.374 281.463 416.541C279.945 415.165 278.49 414.326 277.383 414.625C274.367 415.44 267.045 419.119 263.761 420.856C262.326 420.806 259.213 420.583 258.234 420.09C257.255 419.596 259.935 417.978 261.397 417.231C257.38 416.166 250.247 414.049 253.845 414.097C257.444 414.145 262.462 413.214 264.521 412.743C261.801 411.085 256.089 407.376 254.994 405.806C253.626 403.843 263.269 407.433 265.126 406.349C266.611 405.481 262.818 396.502 260.735 392.121C264.241 394.125 271.429 398.524 272.141 400.081C272.853 401.637 273.193 395.521 273.274 392.268C275.241 395.368 279.241 402.433 279.505 405.889C279.768 409.346 279.996 413.43 280.078 415.04C280.546 415.553 281.008 416.055 281.463 416.541C282.209 417.218 282.971 418.025 283.714 418.889C286.447 421.656 288.678 423.558 289.801 423.769Z" fill="#E8B466"/>
<path d="M265.335 397.546C268.988 402.166 274.895 409.354 280.078 415.04M280.078 415.04C284.395 419.776 288.21 423.471 289.801 423.769C293.302 424.427 305.234 422.357 310.763 421.24C309.08 420.99 305.21 420.109 303.195 418.584C301.179 417.059 300.72 415.402 300.742 414.765L296.798 409.745C299.921 409.885 306.561 410.408 308.136 411.382C309.711 412.356 314.269 415.872 316.35 417.508C319.203 418.086 325.252 419.272 326.626 419.396C328.001 419.52 328.989 417.531 329.311 416.521L330.868 415.809L335.623 419.517C337.147 419.761 340.594 420.302 342.196 420.51C343.797 420.719 339.104 418.552 336.557 417.442C333.965 414.863 328.792 409.417 328.831 408.269C328.871 407.122 330.405 407.079 331.167 407.201L339.375 410.741C338.15 407.379 335.832 400.22 336.352 398.476C336.873 396.732 337.866 397.156 338.298 397.586C340.949 400.295 346.284 405.887 346.413 406.581C346.542 407.275 347.728 410.999 348.305 412.775C347.972 409.475 347.777 402.051 349.653 398.745C351.529 395.44 353.039 405.119 353.559 410.371C353.209 412.178 352.532 416.253 352.621 418.095C352.733 420.397 355.024 423.349 356.353 423.682C357.416 423.949 357.33 424.961 357.154 425.434C353.894 424.65 346.859 422.989 344.804 422.612C342.235 422.14 330.686 421.069 328.579 421.092C326.471 421.114 320.693 419.286 315.439 421.69C311.236 423.612 295.666 424.93 288.406 425.349C285.988 421.435 280.398 413.811 277.383 414.625C274.367 415.44 267.045 419.119 263.761 420.856C262.326 420.806 259.213 420.583 258.234 420.09C257.255 419.596 259.935 417.978 261.397 417.231C257.38 416.166 250.247 414.049 253.845 414.097C257.444 414.145 262.462 413.214 264.521 412.743C261.801 411.085 256.089 407.376 254.994 405.806C253.626 403.843 263.269 407.433 265.126 406.349C266.611 405.481 262.818 396.502 260.735 392.121C264.241 394.125 271.429 398.524 272.141 400.081C272.853 401.637 273.193 395.521 273.274 392.268C275.241 395.368 279.241 402.433 279.505 405.889C279.768 409.346 279.996 413.43 280.078 415.04Z" stroke="#E8B466"/>
<path d="M347.429 299.393C347.305 302.953 351.144 314.439 353.079 319.737C353.073 318.036 353.363 314.078 354.568 311.856C355.773 309.634 357.342 308.931 357.976 308.857L362.346 304.204C362.677 307.313 363.157 313.956 362.431 315.659C361.705 317.363 358.913 322.396 357.609 324.7C357.466 327.607 357.202 333.766 357.286 335.144C357.37 336.521 359.485 337.199 360.532 337.366L361.47 338.798L358.519 344.056C358.506 345.599 358.489 349.089 358.524 350.704C358.558 352.318 359.995 347.352 360.71 344.668C362.87 341.718 367.477 335.785 368.618 335.652C369.758 335.519 370.031 337.028 370.025 337.8L367.758 346.447C370.898 344.731 377.628 341.364 379.43 341.616C381.232 341.868 380.963 342.914 380.602 343.406C378.322 346.434 373.595 352.548 372.929 352.78C372.262 353.012 368.758 354.744 367.09 355.581C370.301 354.757 377.612 353.447 381.162 354.806C384.712 356.164 375.37 359.111 370.255 360.414C368.416 360.34 364.285 360.282 362.478 360.647C360.219 361.104 357.645 363.813 357.515 365.177C357.411 366.268 356.398 366.335 355.904 366.232C356.188 362.891 356.774 355.687 356.838 353.598C356.919 350.987 356.242 339.408 355.903 337.328C355.564 335.248 356.503 329.261 353.338 324.428C350.805 320.561 347.163 305.366 345.658 298.251C347.243 296.905 349.48 294.804 351.339 292.642C351.951 291.821 352.616 290.958 353.323 290.064C354.455 288.357 355.066 286.792 354.604 285.742C353.345 282.883 348.608 276.197 346.397 273.211C346.231 271.785 345.983 268.673 346.324 267.631C346.665 266.59 348.667 268.996 349.626 270.329C350.075 266.198 351.097 258.827 351.59 262.392C352.083 265.957 353.757 270.778 354.532 272.743C355.763 269.806 358.571 263.601 359.959 262.283C361.694 260.635 359.593 270.708 360.945 272.38C362.026 273.719 370.333 268.619 374.352 265.902C372.897 269.669 369.628 277.437 368.196 278.375C366.764 279.313 372.862 278.73 376.09 278.321C373.32 280.731 366.937 285.748 363.559 286.527C360.182 287.307 356.179 288.146 354.599 288.469C354.162 289.009 353.735 289.541 353.323 290.064C352.766 290.903 352.083 291.777 351.339 292.642C349.015 295.76 347.469 298.251 347.429 299.393Z" fill="#E8B466"/>
<path d="M369.679 271.265C365.661 275.571 359.442 282.491 354.599 288.469M354.599 288.469C350.565 293.449 347.486 297.775 347.429 299.393C347.305 302.953 351.144 314.439 353.079 319.737C353.073 318.036 353.363 314.078 354.568 311.856C355.773 309.634 357.342 308.931 357.976 308.857L362.346 304.204C362.677 307.313 363.157 313.956 362.431 315.659C361.705 317.363 358.913 322.396 357.609 324.7C357.466 327.607 357.202 333.766 357.286 335.144C357.37 336.521 359.485 337.199 360.532 337.366L361.47 338.798L358.519 344.056C358.506 345.599 358.489 349.089 358.524 350.704C358.558 352.318 359.995 347.352 360.71 344.668C362.87 341.718 367.477 335.785 368.618 335.652C369.758 335.519 370.031 337.028 370.025 337.8L367.758 346.447C370.898 344.731 377.628 341.364 379.43 341.616C381.232 341.868 380.963 342.914 380.602 343.406C378.322 346.434 373.595 352.548 372.929 352.78C372.262 353.012 368.758 354.744 367.09 355.581C370.301 354.757 377.612 353.447 381.162 354.806C384.712 356.164 375.37 359.111 370.255 360.414C368.416 360.34 364.285 360.282 362.478 360.647C360.219 361.104 357.645 363.813 357.515 365.177C357.411 366.268 356.398 366.335 355.904 366.232C356.188 362.891 356.774 355.687 356.838 353.598C356.919 350.987 356.242 339.408 355.903 337.328C355.564 335.248 356.503 329.261 353.338 324.428C350.805 320.561 347.163 305.366 345.658 298.251C349.164 295.273 355.862 288.601 354.604 285.742C353.345 282.883 348.608 276.197 346.397 273.211C346.231 271.785 345.983 268.673 346.324 267.631C346.665 266.59 348.667 268.996 349.626 270.329C350.075 266.198 351.097 258.827 351.59 262.392C352.083 265.957 353.757 270.778 354.532 272.743C355.763 269.806 358.571 263.601 359.959 262.283C361.694 260.635 359.593 270.708 360.945 272.38C362.026 273.719 370.333 268.619 374.352 265.902C372.897 269.669 369.628 277.437 368.196 278.375C366.764 279.313 372.862 278.73 376.09 278.321C373.32 280.731 366.937 285.748 363.559 286.527C360.182 287.307 356.179 288.146 354.599 288.469Z" stroke="#E8B466"/>
<path d="M394.313 410.49C393.965 414.036 397.07 425.741 398.667 431.151C398.768 429.453 399.308 425.52 400.651 423.379C401.994 421.238 403.604 420.635 404.241 420.602L408.897 416.234C409.03 419.357 409.09 426.018 408.257 427.672C407.425 429.326 404.321 434.173 402.874 436.39C402.548 439.283 401.895 445.412 401.892 446.792C401.888 448.172 403.956 448.983 404.991 449.215L405.836 450.704L402.559 455.765C402.449 457.304 402.212 460.786 402.144 462.399C402.076 464.013 403.824 459.148 404.707 456.514C407.05 453.706 412.022 448.076 413.169 448.015C414.316 447.954 414.492 449.478 414.437 450.248L411.629 458.734C414.871 457.221 421.8 454.285 423.583 454.65C425.365 455.016 425.03 456.043 424.64 456.511C422.173 459.389 417.069 465.192 416.389 465.382C415.709 465.571 412.103 467.078 410.385 467.808C413.642 467.188 421.021 466.344 424.478 467.924C427.935 469.504 418.425 471.854 413.238 472.832C411.408 472.641 407.289 472.323 405.462 472.573C403.179 472.886 400.439 475.427 400.223 476.78C400.05 477.862 399.035 477.865 398.549 477.731C399.044 474.415 400.083 467.262 400.279 465.181C400.525 462.581 400.581 450.982 400.374 448.885C400.167 446.788 401.482 440.872 398.628 435.849C396.345 431.83 393.67 416.434 392.618 409.239C394.285 407.995 396.65 406.04 398.642 404C399.304 403.219 400.023 402.399 400.784 401.552C402.022 399.92 402.731 398.397 402.336 397.32C401.26 394.387 396.955 387.415 394.937 384.295C394.861 382.862 394.811 379.741 395.217 378.722C395.623 377.704 397.469 380.232 398.341 381.623C399.051 377.529 400.536 370.237 400.803 373.826C401.07 377.416 402.436 382.333 403.085 384.343C404.499 381.489 407.694 375.474 409.163 374.246C410.998 372.711 408.265 382.631 409.508 384.385C410.503 385.789 419.116 381.225 423.298 378.767C421.608 382.434 417.855 389.98 416.366 390.826C414.878 391.672 421.001 391.475 424.248 391.271C421.332 393.502 414.644 398.105 411.224 398.669C407.804 399.234 403.756 399.819 402.159 400.041C401.688 400.552 401.229 401.057 400.784 401.552C400.175 402.355 399.439 403.184 398.642 404C396.125 406.965 394.425 409.353 394.313 410.49Z" fill="#E8B466"/>
<path d="M418.295 383.824C414.013 387.867 407.37 394.381 402.159 400.041M402.159 400.041C397.818 404.756 394.472 408.879 394.313 410.49C393.965 414.036 397.07 425.741 398.667 431.151C398.768 429.453 399.308 425.52 400.651 423.379C401.994 421.238 403.604 420.635 404.241 420.602L408.897 416.234C409.03 419.357 409.09 426.018 408.257 427.672C407.425 429.326 404.321 434.173 402.874 436.39C402.548 439.283 401.895 445.412 401.892 446.792C401.888 448.172 403.956 448.983 404.991 449.215L405.836 450.704L402.559 455.765C402.449 457.304 402.212 460.786 402.144 462.399C402.076 464.013 403.824 459.148 404.707 456.514C407.05 453.706 412.022 448.076 413.169 448.015C414.316 447.954 414.492 449.478 414.437 450.248L411.629 458.734C414.871 457.221 421.8 454.285 423.583 454.65C425.365 455.016 425.03 456.043 424.64 456.511C422.173 459.389 417.069 465.192 416.389 465.382C415.709 465.571 412.103 467.078 410.385 467.808C413.642 467.188 421.021 466.344 424.478 467.924C427.935 469.504 418.425 471.854 413.238 472.832C411.408 472.641 407.289 472.323 405.462 472.573C403.179 472.886 400.439 475.427 400.223 476.78C400.05 477.862 399.035 477.865 398.549 477.731C399.044 474.415 400.083 467.262 400.279 465.181C400.525 462.581 400.581 450.982 400.374 448.885C400.167 446.788 401.482 440.872 398.628 435.849C396.345 431.83 393.67 416.434 392.618 409.239C396.305 406.488 403.411 400.253 402.336 397.32C401.26 394.387 396.955 387.415 394.937 384.295C394.861 382.862 394.811 379.741 395.217 378.722C395.623 377.704 397.469 380.232 398.341 381.623C399.051 377.529 400.536 370.237 400.803 373.826C401.07 377.416 402.436 382.333 403.085 384.343C404.499 381.489 407.694 375.474 409.163 374.246C410.998 372.711 408.265 382.631 409.508 384.385C410.503 385.789 419.116 381.225 423.298 378.767C421.608 382.434 417.855 389.98 416.366 390.826C414.878 391.672 421.001 391.475 424.248 391.271C421.332 393.502 414.644 398.105 411.224 398.669C407.804 399.234 403.756 399.819 402.159 400.041Z" stroke="#E8B466"/>
<path d="M343.629 532.389C347.13 533.046 359.063 530.976 364.591 529.859C362.908 529.61 359.038 528.729 357.023 527.203C355.007 525.678 354.548 524.021 354.57 523.384L350.626 518.364C353.75 518.504 360.39 519.028 361.964 520.001C363.539 520.975 368.097 524.491 370.179 526.127C373.031 526.705 379.08 527.891 380.455 528.015C381.829 528.14 382.817 526.15 383.14 525.14L384.696 524.428L389.451 528.136C390.975 528.38 394.423 528.921 396.024 529.13C397.625 529.338 392.932 527.171 390.385 526.061C387.793 523.482 382.62 518.036 382.66 516.889C382.699 515.741 384.233 515.698 384.995 515.82L393.203 519.361C391.979 515.999 389.661 508.839 390.181 507.095C390.701 505.351 391.695 505.775 392.127 506.205C394.778 508.914 400.112 514.506 400.241 515.2C400.37 515.894 401.556 519.618 402.133 521.394C401.801 518.095 401.605 510.67 403.481 507.364C405.358 504.059 406.867 513.738 407.387 518.99C407.037 520.798 406.36 524.872 406.449 526.714C406.561 529.016 408.852 531.968 410.181 532.301C411.245 532.568 411.158 533.58 410.983 534.053C407.722 533.269 400.687 531.608 398.632 531.231C396.063 530.759 384.514 529.688 382.407 529.711C380.299 529.734 374.522 527.905 369.268 530.309C365.064 532.231 349.494 533.549 342.234 533.968C341.141 532.199 339.4 529.672 337.542 527.508C336.823 526.781 336.069 525.993 335.291 525.16C333.773 523.785 332.318 522.945 331.211 523.244C328.195 524.059 320.873 527.738 317.589 529.475C316.155 529.425 313.041 529.203 312.062 528.709C311.083 528.216 313.763 526.598 315.225 525.85C311.208 524.785 304.075 522.668 307.673 522.716C311.272 522.764 316.29 521.834 318.349 521.362C315.63 519.704 309.917 515.995 308.822 514.425C307.454 512.463 317.097 516.052 318.954 514.968C320.439 514.1 316.646 505.121 314.563 500.74C318.069 502.744 325.257 507.143 325.969 508.7C326.682 510.256 327.021 504.14 327.102 500.887C329.069 503.987 333.07 511.052 333.333 514.509C333.596 517.965 333.825 522.049 333.906 523.659C334.374 524.173 334.837 524.674 335.291 525.16C336.037 525.837 336.799 526.644 337.542 527.508C340.275 530.275 342.506 532.178 343.629 532.389Z" fill="#E8B466"/>
<path d="M319.163 506.166C322.816 510.785 328.723 517.973 333.906 523.659M333.906 523.659C338.223 528.395 342.038 532.09 343.629 532.389C347.13 533.046 359.063 530.976 364.591 529.859C362.908 529.61 359.038 528.729 357.023 527.203C355.007 525.678 354.548 524.021 354.57 523.384L350.626 518.364C353.75 518.504 360.39 519.028 361.964 520.001C363.539 520.975 368.097 524.491 370.179 526.127C373.031 526.705 379.08 527.891 380.455 528.015C381.829 528.14 382.817 526.15 383.14 525.14L384.696 524.428L389.451 528.136C390.975 528.38 394.423 528.921 396.024 529.13C397.625 529.338 392.932 527.171 390.385 526.061C387.793 523.482 382.62 518.036 382.66 516.889C382.699 515.741 384.233 515.698 384.995 515.82L393.203 519.361C391.979 515.999 389.661 508.839 390.181 507.095C390.701 505.351 391.695 505.775 392.127 506.205C394.778 508.914 400.112 514.506 400.241 515.2C400.37 515.894 401.556 519.618 402.133 521.394C401.801 518.095 401.605 510.67 403.481 507.364C405.358 504.059 406.867 513.738 407.387 518.99C407.037 520.798 406.36 524.872 406.449 526.714C406.561 529.016 408.852 531.968 410.181 532.301C411.245 532.568 411.158 533.58 410.983 534.053C407.722 533.269 400.687 531.608 398.632 531.231C396.063 530.759 384.514 529.688 382.407 529.711C380.299 529.734 374.522 527.905 369.268 530.309C365.064 532.231 349.494 533.549 342.234 533.968C339.816 530.054 334.226 522.43 331.211 523.244C328.195 524.059 320.873 527.738 317.589 529.475C316.155 529.425 313.041 529.203 312.062 528.709C311.083 528.216 313.763 526.598 315.225 525.85C311.208 524.785 304.075 522.668 307.673 522.716C311.272 522.764 316.29 521.834 318.349 521.362C315.63 519.704 309.917 515.995 308.822 514.425C307.454 512.463 317.097 516.052 318.954 514.968C320.439 514.1 316.646 505.121 314.563 500.74C318.069 502.744 325.257 507.143 325.969 508.7C326.682 510.256 327.021 504.14 327.102 500.887C329.069 503.987 333.07 511.052 333.333 514.509C333.596 517.965 333.825 522.049 333.906 523.659Z" stroke="#E8B466"/>
<path d="M137.991 330.299C127.491 331.299 111.491 273.799 104.991 254.799C91.6387 215.768 85.8497 204.834 63.3998 202.734C10.3992 197.775 7.93576 221.638 7.51461 252.472C7.09345 283.306 17.2577 336.054 47.5713 374.564C77.8849 413.074 112.681 442.212 125.198 455.444C135.212 466.03 144.991 500.799 148.491 511.799" stroke="white" stroke-width="14.5114"/>
</svg>
