<svg width="1440" height="1303" viewBox="0 0 1440 1303" fill="none" xmlns="http://www.w3.org/2000/svg">
<g clip-path="url(#clip0_224_387)">
<path d="M1154.73 309.75C1127.55 299.984 1099.62 291.903 1071.16 285.568C1065.38 284.346 1059.48 283.202 1053.2 282.071C1037.93 279.218 1010.48 274.839 1005.5 267.43C1004.97 266.647 1003.03 265.382 1003.01 264.473C1002.99 263.564 1001.22 261.654 1001.72 260.857C1006.19 260.232 1001.97 260.561 1002.15 260.455C1002.32 260.349 1002.52 260.277 1002.73 260.243C1018.65 255.865 1047.68 263.918 1068.96 269.657L1076.08 271.651C1104.49 279.623 1132.11 289.605 1158.68 301.498" stroke="#E46171" stroke-width="7.27181" stroke-linecap="round" stroke-linejoin="round"/>
<path d="M1145.36 324.172C1119.72 315.003 1093.38 307.403 1066.54 301.427C1061.09 300.204 1055.21 299.115 1049.04 297.961C1024.86 293.61 994.769 287.915 985.533 274.128C983.232 270.7 982.055 266.788 982.131 262.822C982.207 258.855 983.534 254.988 985.965 251.645C988.532 248.124 992.441 245.512 997.005 244.266C1018.55 238.392 1049.54 246.992 1074.39 253.883L1081.5 255.822C1109.74 263.712 1137.22 273.563 1163.68 285.282" stroke="#E46171" stroke-width="7.27181" stroke-linecap="round" stroke-linejoin="round"/>
<path d="M1133.1 337.639C1109.95 329.588 1086.23 322.856 1062.1 317.485C1033.2 311.142 985.654 306.976 969.331 282.458C955.973 262.469 965.541 235.723 991.463 228.633C1021.07 220.509 1059.25 232.535 1087.15 240.126C1114.03 247.674 1140.25 256.943 1165.58 267.857" stroke="#E46171" stroke-width="7.27181" stroke-linecap="round" stroke-linejoin="round"/>
<path d="M1117.02 349.965C1097.57 343.486 1077.72 338 1057.55 333.533C1052.81 332.529 1047.24 331.472 1041.36 330.384C1009.88 324.561 970.675 317.256 952.962 290.789C947.145 282.04 944.198 272.067 944.447 261.969C944.697 251.87 948.132 242.038 954.376 233.555C961.739 223.71 972.807 216.427 985.678 212.957C1018.59 203.954 1055.99 214.385 1085.71 222.69L1092.65 224.63C1117.02 231.363 1140.84 239.528 1163.95 249.068" stroke="#E46171" stroke-width="7.27181" stroke-linecap="round" stroke-linejoin="round"/>
<path d="M1095.87 360.711C1081.11 356.236 1067.08 352.558 1053.04 349.457C1048.36 348.386 1043.24 347.451 1037.68 346.45C1004.29 340.245 958.659 331.776 936.798 298.996C929.185 287.602 925.327 274.599 925.652 261.431C925.977 248.263 930.472 235.445 938.639 224.398C948.407 211.379 963.091 201.771 980.149 197.235C1018.71 186.701 1059.13 197.865 1091.67 206.881L1098.53 208.777C1118.89 214.389 1138.87 221.002 1158.38 228.583" stroke="#E46171" stroke-width="7.27181" stroke-linecap="round" stroke-linejoin="round"/>
<path d="M1068.01 368.408C1040.33 357.02 996.987 357.336 960.578 338.864C927.182 321.935 913.496 300.848 908.071 288.346C906.687 285.32 904.481 282.631 901.643 280.514C898.805 278.396 895.421 276.914 891.785 276.194C873.734 272.098 857.818 262.715 846.7 249.617" stroke="#E46171" stroke-width="7.27181" stroke-linecap="round" stroke-linejoin="round"/>
<path d="M835.371 174.567C834.507 190.805 838.36 206.985 846.571 221.602C854.782 236.219 867.084 248.797 882.333 258.167C894.218 265.583 904.874 259.371 909.23 246.422C918.298 219.245 938.584 153.782 1069.15 181.909C1095.86 188.266 1121.9 196.612 1146.98 206.855" stroke="#E46171" stroke-width="7.27181" stroke-linecap="round" stroke-linejoin="round"/>
<path d="M871.928 129.382C860.788 143.741 853.873 160.286 851.79 177.559C848.782 207.411 870.296 239.704 883.769 237.268C898.74 234.592 887.895 207.389 942.598 174.804C968.913 159.087 1000.88 155.716 1032.13 158.776C1046.34 160.267 1060.41 162.701 1074.21 166.059C1091.98 170.334 1109.46 175.492 1126.56 181.508" stroke="#E46171" stroke-width="7.27181" stroke-linecap="round" stroke-linejoin="round"/>
<path d="M907.287 112.152C898.922 118.658 890.391 128.681 884.121 136.79C853.442 175.692 870.603 204.755 880.152 204.032C888.024 203.348 891.189 193.589 901.186 183.361C929.867 153.836 970.907 138.39 1014.83 139.127C1036.87 139.747 1057.75 144.832 1078.99 150.055C1082.85 150.966 1086.68 151.929 1090.49 152.943" stroke="#E46171" stroke-width="7.27181" stroke-linecap="round" stroke-linejoin="round"/>
<path d="M944.78 109.433C922.657 115.623 909.587 130.765 897.627 148.149C893.86 153.159 886.408 166.575 890.594 171.378C896.09 177.652 902.793 147.54 947.798 130.918C1004.36 110.027 1031.19 119.686 1031.19 119.686" stroke="#E46171" stroke-width="7.27181" stroke-linecap="round" stroke-linejoin="round"/>
<path d="M1036.94 373.208C1036.94 373.208 971.6 364.59 934.375 340.193C910.432 324.495 902.819 304.751 892.986 296.65C883.154 288.548 876.739 291.603 867.691 284.576" stroke="#E46171" stroke-width="7.27181" stroke-linecap="round" stroke-linejoin="round"/>
<path d="M182.373 330.888C206.317 314.743 229.343 296.998 251.282 277.786C255.684 273.846 260.092 269.769 264.721 265.367C276.045 254.744 295.81 235.188 304.725 235.558C305.671 235.592 307.842 234.77 308.587 235.291C309.331 235.813 311.917 235.517 312.266 236.389C310.122 240.37 312.353 236.77 312.335 236.973C312.318 237.177 312.259 237.379 312.163 237.568C306.281 252.996 282.622 271.651 265.417 285.416L259.598 289.981C236.373 308.18 211.989 324.559 186.691 338.955" stroke="#E46171" stroke-width="7.27181" stroke-linecap="round" stroke-linejoin="round"/>
<path d="M176.276 314.811C198.833 299.548 220.534 282.798 241.223 264.682C245.431 261.01 249.786 256.911 254.359 252.624C272.166 235.692 294.549 214.789 311.13 215.491C315.254 215.661 319.106 217.025 322.26 219.431C325.413 221.838 327.748 225.194 329.007 229.131C330.329 233.283 330.125 237.98 328.431 242.397C320.429 263.25 295.176 283.154 274.924 299.125L269.158 303.712C246.098 321.826 221.906 338.165 196.813 352.575" stroke="#E46171" stroke-width="7.27181" stroke-linecap="round" stroke-linejoin="round"/>
<path d="M172.667 296.955C192.845 283.045 212.296 267.897 230.897 251.606C253.093 232.056 284.565 196.167 313.99 197.499C338.009 198.542 353.923 222.071 344.316 247.17C333.362 275.855 301.09 299.538 278.475 317.551C256.496 334.768 233.522 350.431 209.743 364.41" stroke="#E46171" stroke-width="7.27181" stroke-linecap="round" stroke-linejoin="round"/>
<path d="M172.231 276.701C188.953 264.848 205.117 252.078 220.642 238.455C224.251 235.228 228.399 231.356 232.754 227.256C256.061 205.311 285.13 178.01 316.948 179.372C327.444 179.852 337.229 183.372 345.227 189.543C353.224 195.715 359.123 204.298 362.273 214.349C365.86 226.107 365.19 239.34 360.379 251.773C348.186 283.635 317.66 307.635 293.39 326.696L287.721 331.15C267.887 346.818 247.22 361.202 225.862 374.202" stroke="#E46171" stroke-width="7.27181" stroke-linecap="round" stroke-linejoin="round"/>
<path d="M176.067 253.291C188.4 244.035 199.666 234.889 210.462 225.405C214.096 222.259 217.876 218.685 221.972 214.791C246.715 191.531 280.523 159.734 319.886 161.482C333.576 162.078 346.344 166.654 356.772 174.701C367.201 182.748 374.881 193.952 378.962 207.069C383.687 222.645 382.755 240.169 376.329 256.608C362.027 293.935 329.126 319.937 302.618 340.847L297.03 345.265C280.47 358.363 263.326 370.567 245.678 381.818" stroke="#E46171" stroke-width="7.27181" stroke-linecap="round" stroke-linejoin="round"/>
<path d="M186.331 226.269C211.879 210.679 237.249 175.536 273.672 157.092C307.069 140.166 332.167 141.594 345.458 144.61C348.717 145.283 352.19 145.093 355.575 144.056C358.961 143.019 362.157 141.166 364.888 138.659C378.863 126.522 395.84 119.233 412.977 118.009" stroke="#E46171" stroke-width="7.27181" stroke-linecap="round" stroke-linejoin="round"/>
<path d="M480.204 153.242C467.619 142.945 452.292 136.487 435.649 134.468C419.006 132.448 401.588 134.934 385.016 141.693C372.008 146.894 370.718 159.161 378.587 170.33C395.144 193.711 435.949 248.774 336.071 337.452C315.155 355.232 293.03 371.298 269.937 385.476" stroke="#E46171" stroke-width="7.27181" stroke-linecap="round" stroke-linejoin="round"/>
<path d="M495.034 209.44C490.039 191.967 480.783 176.608 468.083 164.716C445.785 144.641 407.021 142.901 401.021 155.208C394.328 168.863 422.679 176.2 416.619 239.583C413.738 270.099 397.558 297.874 376.615 321.268C367.01 331.85 356.73 341.756 345.865 350.899C331.912 362.704 317.417 373.752 302.453 383.991" stroke="#E46171" stroke-width="7.27181" stroke-linecap="round" stroke-linejoin="round"/>
<path d="M488.026 248.144C487.724 237.551 484.684 224.745 481.851 214.894C468.613 167.151 435.027 163.809 429.965 171.939C425.863 178.693 431.862 187.015 434.201 201.124C441.058 241.711 429.252 283.943 402.69 318.932C389.162 336.338 372.713 350.176 355.944 364.22C352.93 366.79 349.887 369.312 346.815 371.788" stroke="#E46171" stroke-width="7.27181" stroke-linecap="round" stroke-linejoin="round"/>
<path d="M468.053 279.991C476.14 258.488 471.655 238.995 464.705 219.071C462.892 213.071 456.477 199.129 450.129 199.666C441.819 200.389 462.142 223.598 448.941 269.723C432.35 327.693 408.697 343.622 408.697 343.622" stroke="#E46171" stroke-width="7.27181" stroke-linecap="round" stroke-linejoin="round"/>
<path d="M200.826 198.378C200.826 198.378 246.408 150.772 288.092 135.173C314.908 125.143 335.333 130.676 347.68 127.535C360.026 124.394 361.356 117.414 372.372 114.272" stroke="#E46171" stroke-width="7.27181" stroke-linecap="round" stroke-linejoin="round"/>
<path d="M423.831 935.684C399.129 920.724 373.361 907.267 346.717 895.414C341.293 893.07 335.743 890.78 329.805 888.425C315.411 882.603 289.367 872.866 285.962 864.619C285.597 863.746 283.939 862.12 284.1 861.226C284.261 860.331 282.908 858.108 283.553 857.426C288.066 857.701 283.863 857.187 284.054 857.117C284.246 857.048 284.455 857.016 284.666 857.024C301.139 855.89 327.999 869.539 347.712 879.381L354.297 882.748C380.562 896.195 405.66 911.456 429.342 928.379" stroke="#E46171" stroke-width="7.27181" stroke-linecap="round" stroke-linejoin="round"/>
<path d="M411.796 947.963C388.477 933.891 364.167 921.22 339.043 910.041C333.944 907.762 328.396 905.529 322.586 903.176C299.745 894.117 271.38 882.569 265.061 867.224C263.485 863.408 263.106 859.34 263.967 855.468C264.828 851.595 266.895 848.068 269.941 845.273C273.155 842.331 277.505 840.546 282.225 840.23C304.511 838.744 333.173 853.317 356.168 864.999L362.751 868.308C388.868 881.64 413.85 896.745 437.458 913.476" stroke="#E46171" stroke-width="7.27181" stroke-linecap="round" stroke-linejoin="round"/>
<path d="M397.102 958.73C376.009 946.25 354.098 934.949 331.506 924.9C304.447 912.955 258.666 899.445 247.528 872.177C238.398 849.936 253.079 825.618 279.892 823.809C310.526 821.716 345.564 841.073 371.404 854.044C396.254 866.772 420.11 881.054 442.776 896.774" stroke="#E46171" stroke-width="7.27181" stroke-linecap="round" stroke-linejoin="round"/>
<path d="M378.899 967.625C361.124 957.419 342.75 948.105 323.87 939.728C319.427 937.805 314.172 935.664 308.624 933.432C278.925 921.483 241.946 906.551 229.833 877.097C225.865 867.369 224.954 857.009 227.201 847.161C229.447 837.312 234.764 828.356 242.565 821.28C251.734 813.09 264.027 808.146 277.33 807.297C311.369 804.997 345.962 822.636 373.447 836.669L379.868 839.947C402.412 851.376 424.14 864.101 444.902 878.034" stroke="#E46171" stroke-width="7.27181" stroke-linecap="round" stroke-linejoin="round"/>
<path d="M356.04 973.964C342.465 966.653 329.436 960.264 316.297 954.443C311.917 952.465 307.087 950.533 301.833 948.449C270.339 935.748 227.29 918.4 212.362 881.937C207.159 869.259 205.956 855.75 208.885 842.907C211.814 830.065 218.761 818.392 228.956 809.184C241.112 798.361 257.41 791.854 275.028 790.79C314.912 788.111 352.318 807.067 382.421 822.355L388.775 825.574C407.613 835.11 425.884 845.553 443.502 856.851" stroke="#E46171" stroke-width="7.27181" stroke-linecap="round" stroke-linejoin="round"/>
<path d="M327.206 975.984C302.335 959.335 259.79 951.051 227.767 925.727C198.39 902.513 189.156 879.132 186.318 865.802C185.561 862.561 183.931 859.489 181.569 856.851C179.208 854.213 176.185 852.089 172.763 850.662C155.883 843.068 142.143 830.717 133.843 815.674" stroke="#E46171" stroke-width="7.27181" stroke-linecap="round" stroke-linejoin="round"/>
<path d="M137.618 739.869C133.552 755.613 134.12 772.236 139.27 788.19C144.42 804.145 153.984 818.912 167.073 831.119C177.251 840.744 188.928 836.769 195.764 824.94C210.041 800.101 242.903 739.959 365.304 793.414C390.218 804.94 414.085 818.283 436.643 833.296" stroke="#E46171" stroke-width="7.27181" stroke-linecap="round" stroke-linejoin="round"/>
<path d="M182.408 702.828C168.643 714.694 158.585 729.539 153.119 746.057C144.252 774.72 158.936 810.637 172.625 810.92C187.829 811.266 182.593 782.453 242.67 761.36C271.579 751.172 303.579 754.206 333.602 763.401C347.238 767.68 360.542 772.855 373.4 778.881C389.97 786.594 406.081 795.116 421.652 804.403" stroke="#E46171" stroke-width="7.27181" stroke-linecap="round" stroke-linejoin="round"/>
<path d="M220.481 692.951C210.991 697.669 200.643 705.802 192.889 712.507C155.106 744.554 166.164 776.443 175.668 777.627C183.52 778.517 188.556 769.579 200.383 761.536C234.347 738.284 277.635 731.281 320.541 740.712C342.016 745.688 361.479 754.814 381.262 764.144C384.86 765.801 388.426 767.504 391.963 769.255" stroke="#E46171" stroke-width="7.27181" stroke-linecap="round" stroke-linejoin="round"/>
<path d="M257.769 697.719C234.858 699.4 219.045 711.65 203.876 726.318C199.19 730.481 189.226 742.154 192.377 747.691C196.52 754.93 209.06 726.745 256.468 719.375C316.049 710.113 340.433 724.9 340.433 724.9" stroke="#E46171" stroke-width="7.27181" stroke-linecap="round" stroke-linejoin="round"/>
<path d="M295.806 974.53C295.806 974.53 233.469 953.128 201.82 921.835C181.464 901.702 177.917 880.841 169.886 870.951C161.854 861.061 154.961 862.783 147.486 854.101" stroke="#E46171" stroke-width="7.27181" stroke-linecap="round" stroke-linejoin="round"/>
<path d="M966.387 865.184C991.525 850.97 1015.88 835.089 1039.26 817.66C1043.95 814.079 1048.67 810.36 1053.63 806.335C1065.75 796.635 1086.99 778.693 1095.85 779.762C1096.79 779.871 1099.02 779.221 1099.72 779.8C1100.42 780.378 1103.02 780.286 1103.3 781.183C1100.85 784.983 1103.36 781.57 1103.33 781.771C1103.29 781.972 1103.22 782.17 1103.11 782.35C1096.03 797.269 1070.98 814.007 1052.75 826.378L1046.59 830.471C1022 846.789 996.409 861.202 970.058 873.565" stroke="#E46171" stroke-width="7.27181" stroke-linecap="round" stroke-linejoin="round"/>
<path d="M961.572 848.678C985.259 835.234 1008.21 820.241 1030.26 803.807C1034.74 800.477 1039.4 796.732 1044.3 792.818C1063.38 777.338 1087.34 758.258 1103.81 760.261C1107.91 760.755 1111.64 762.417 1114.6 765.063C1117.55 767.71 1119.62 771.239 1120.56 775.263C1121.56 779.506 1120.98 784.173 1118.95 788.443C1109.33 808.603 1082.59 826.461 1061.15 840.792L1055.04 844.911C1030.63 861.157 1005.23 875.545 979.079 887.938" stroke="#E46171" stroke-width="7.27181" stroke-linecap="round" stroke-linejoin="round"/>
<path d="M959.378 830.594C980.587 818.312 1001.17 804.739 1020.99 789.96C1044.66 772.214 1078.85 738.91 1108.08 742.549C1131.94 745.476 1145.96 770.183 1134.41 794.449C1121.23 822.185 1087.2 843.259 1063.24 859.44C1039.98 874.877 1015.84 888.685 991.039 900.753" stroke="#E46171" stroke-width="7.27181" stroke-linecap="round" stroke-linejoin="round"/>
<path d="M960.534 810.367C978.135 799.865 995.253 788.405 1011.8 776.043C1015.65 773.11 1020.09 769.576 1024.76 765.831C1049.71 745.785 1080.84 720.852 1112.45 724.711C1122.88 726.014 1132.36 730.291 1139.84 737.072C1147.33 743.853 1152.54 752.874 1154.89 763.14C1157.54 775.145 1155.83 788.284 1150.06 800.3C1135.4 831.106 1103.08 852.633 1077.39 869.728L1071.39 873.722C1050.39 887.784 1028.65 900.499 1006.34 911.781" stroke="#E46171" stroke-width="7.27181" stroke-linecap="round" stroke-linejoin="round"/>
<path d="M966.198 787.331C979.22 779.073 991.169 770.841 1002.68 762.235C1006.55 759.384 1010.6 756.118 1014.99 752.557C1041.48 731.314 1077.68 702.271 1116.79 707.107C1130.39 708.777 1142.76 714.342 1152.52 723.183C1162.28 732.025 1169.06 743.798 1172.1 757.195C1175.58 773.094 1173.28 790.49 1165.58 806.373C1148.39 842.462 1113.55 865.797 1085.48 884.561L1079.56 888.525C1062.02 900.282 1043.97 911.101 1025.49 920.931" stroke="#E46171" stroke-width="7.27181" stroke-linecap="round" stroke-linejoin="round"/>
<path d="M978.554 761.2C1005.25 747.665 1033.3 714.624 1071.06 699.099C1105.68 684.849 1130.59 688.246 1143.61 692.297C1146.8 693.224 1150.28 693.307 1153.73 692.539C1157.19 691.771 1160.52 690.175 1163.44 687.89C1178.33 676.89 1195.83 670.956 1213.01 671.083" stroke="#E46171" stroke-width="7.27181" stroke-linecap="round" stroke-linejoin="round"/>
<path d="M1277.26 711.489C1265.52 700.235 1250.75 692.592 1234.31 689.271C1217.88 685.951 1200.32 687.06 1183.27 692.497C1169.89 696.659 1167.64 708.787 1174.61 720.539C1189.28 745.149 1225.63 803.248 1119.09 883.804C1096.85 899.885 1073.53 914.164 1049.39 926.483" stroke="#E46171" stroke-width="7.27181" stroke-linecap="round" stroke-linejoin="round"/>
<path d="M1287.63 768.678C1284.02 750.867 1276 734.828 1264.27 721.975C1243.62 700.21 1205.11 695.43 1198.16 707.227C1190.42 720.315 1218.11 729.856 1207.08 792.568C1201.81 822.762 1183.5 849.18 1160.79 870.857C1150.38 880.651 1139.35 889.718 1127.8 897.979C1112.96 908.651 1097.65 918.527 1081.92 927.558" stroke="#E46171" stroke-width="7.27181" stroke-linecap="round" stroke-linejoin="round"/>
<path d="M1277.6 806.712C1278.13 796.128 1276.1 783.123 1274.05 773.079C1264.61 724.444 1231.39 718.474 1225.7 726.181C1221.08 732.591 1226.41 741.359 1227.63 755.609C1231.28 796.609 1216.19 837.782 1186.96 870.577C1172.11 886.866 1154.62 899.368 1136.8 912.051C1133.6 914.376 1130.36 916.652 1127.11 918.878" stroke="#E46171" stroke-width="7.27181" stroke-linecap="round" stroke-linejoin="round"/>
<path d="M1255.18 836.891C1264.93 816.09 1262 796.305 1256.63 775.897C1255.3 769.773 1250 755.37 1243.63 755.406C1235.29 755.474 1253.72 780.208 1236.94 825.153C1215.84 881.64 1191.01 895.662 1191.01 895.662" stroke="#E46171" stroke-width="7.27181" stroke-linecap="round" stroke-linejoin="round"/>
<path d="M995.195 734.534C995.195 734.534 1044.38 690.656 1087.16 678.381C1114.68 670.489 1134.61 677.609 1147.16 675.448C1159.72 673.287 1161.59 666.434 1172.82 664.166" stroke="#E46171" stroke-width="7.27181" stroke-linecap="round" stroke-linejoin="round"/>
<path d="M853.211 492.355L886.081 485" stroke="white" stroke-width="0.959416"/>
<path d="M158 719H1256.99" stroke="white" stroke-width="0.81106"/>
<path d="M156.286 394.79H1255.27" stroke="white" stroke-width="0.81106"/>
<path d="M504.27 727L527.669 803.092" stroke="white" stroke-width="0.81106"/>
<path d="M1217.13 318.132L1221.2 314.139C1225.92 318.796 1230.77 323.353 1235.74 327.809C1240.78 332.328 1245.92 336.715 1251.14 340.971L1247.08 344.964C1242.29 340.308 1237.41 335.72 1232.44 331.199C1227.46 326.678 1222.36 322.323 1217.13 318.132ZM1210.28 305.221L1215.14 305.572C1215.59 307.824 1216.21 309.295 1217.01 309.984C1217.8 310.674 1219.17 310.992 1221.11 310.939L1246.71 310.235C1248.19 310.194 1249.16 310.006 1249.6 309.67C1250.11 309.333 1250.35 308.614 1250.32 307.516C1250.31 307.063 1250.26 306.547 1250.18 305.967C1250.17 305.45 1250.16 305.191 1250.16 305.191L1250.73 304.884L1255.21 305.246C1255.21 305.246 1255.22 305.763 1255.25 306.798C1255.28 307.832 1255.28 309.029 1255.25 310.388C1255.29 311.81 1255.32 313.006 1255.35 313.976C1255.37 314.816 1255.43 315.785 1255.53 316.882C1255.62 318.044 1255.69 319.174 1255.72 320.273C1255.81 321.37 1255.9 322.273 1255.99 322.983C1256.07 323.692 1256.11 324.047 1256.11 324.047L1251.06 323.797C1250.75 321.93 1250.3 320.746 1249.7 320.244C1249.1 319.743 1247.83 319.455 1245.89 319.379C1243.24 319.322 1240.39 319.271 1237.35 319.226C1234.37 319.178 1231.43 319.13 1228.51 319.08C1225.6 319.096 1223.02 319.135 1220.75 319.197C1218.94 319.247 1217.72 319.507 1217.09 319.977C1216.45 320.447 1216.15 321.297 1216.19 322.525C1216.21 323.171 1216.25 323.784 1216.34 324.364C1216.42 324.944 1216.46 325.234 1216.46 325.234L1216.08 325.536L1211.21 324.991C1211.21 324.991 1211.23 324.699 1211.28 324.115C1211.27 323.533 1211.25 322.79 1211.22 321.885C1211.2 321.045 1211.21 320.171 1211.25 319.264C1211.22 318.424 1211.2 317.648 1211.18 316.937C1211.14 315.45 1211.06 313.803 1210.95 311.995C1210.77 310.188 1210.63 308.607 1210.53 307.252C1210.43 305.961 1210.34 305.284 1210.28 305.221ZM1212 353.886C1212 353.886 1212.02 353.303 1212.05 352.138C1212.02 351.039 1212.02 349.68 1212.04 348.062C1211.99 346.446 1211.95 344.927 1211.91 343.505C1211.89 342.859 1211.87 341.986 1211.84 340.887C1211.81 339.788 1211.78 338.689 1211.75 337.59C1211.66 336.558 1211.6 335.686 1211.58 334.975C1211.56 334.264 1211.55 333.908 1211.55 333.908L1216.42 334.357C1216.54 336.488 1217.03 337.898 1217.89 338.586C1218.82 339.337 1220.57 339.677 1223.16 339.605L1247.5 339.033C1248.99 338.992 1249.95 338.739 1250.39 338.274C1250.9 337.872 1251.13 337.122 1251.1 336.023C1251.09 335.635 1251.05 335.151 1250.97 334.571C1250.95 334.054 1250.95 333.795 1250.95 333.795L1251.52 333.488L1255.99 333.85C1255.99 333.85 1256.01 334.368 1256.04 335.402C1256.07 336.501 1256.07 337.73 1256.04 339.089C1256.08 340.511 1256.11 341.707 1256.14 342.677C1256.16 343.582 1256.22 344.583 1256.32 345.68C1256.42 346.842 1256.48 347.972 1256.51 349.071C1256.61 350.233 1256.7 351.168 1256.78 351.878C1256.86 352.587 1256.91 352.942 1256.91 352.942L1251.95 352.69C1251.64 350.887 1251.22 349.702 1250.69 349.134C1250.22 348.565 1249.34 348.233 1248.04 348.14C1245.26 348.087 1242.25 348.04 1239.01 348C1235.84 347.958 1232.74 347.914 1229.69 347.868C1226.65 347.887 1223.94 347.929 1221.55 347.995C1219.8 348.043 1218.58 348.303 1217.88 348.775C1217.25 349.245 1216.94 350.062 1216.98 351.226C1217 351.937 1217.05 352.582 1217.13 353.162C1217.27 353.805 1217.35 354.127 1217.35 354.127L1216.87 354.431L1212 353.886Z" fill="white"/>
<path d="M1202.63 267.505L1207.49 267.044C1208.15 269.152 1208.75 270.677 1209.28 271.619C1209.88 272.548 1210.69 273.068 1211.7 273.178C1212.78 273.274 1214.3 273.11 1216.26 272.685L1243.09 266.861C1242.56 264.726 1242.06 263.047 1241.6 261.824C1241.21 260.651 1240.63 259.786 1239.84 259.228C1239.14 258.719 1238.15 258.437 1236.88 258.382C1235.61 258.327 1233.97 258.385 1231.95 258.558L1230.44 253.427C1231.29 253.375 1232.29 253.257 1233.44 253.073C1234.67 252.939 1235.96 252.759 1237.3 252.534C1238.65 252.372 1239.97 252.186 1241.25 251.975C1242.59 251.75 1243.79 251.521 1244.87 251.288L1245.77 251.787L1246.49 258.776L1251.35 281.147L1253.61 287.902L1253 288.73C1251.3 289.164 1249.52 289.618 1247.63 290.093C1245.83 290.617 1244.15 291.114 1242.6 291.583C1241.12 292.102 1240.04 292.437 1239.34 292.588L1237.85 287.552C1239.87 286.783 1241.44 286.11 1242.58 285.534C1243.71 284.957 1244.49 284.291 1244.92 283.536C1245.43 282.83 1245.65 281.856 1245.58 280.614C1245.58 279.421 1245.4 277.807 1245.02 275.771C1243.1 276.057 1240.51 276.486 1237.26 277.059C1234.07 277.619 1230.6 278.24 1226.85 278.923C1223.1 279.669 1219.43 280.433 1215.83 281.215C1214.19 281.572 1213.08 282.11 1212.51 282.83C1211.95 283.613 1211.82 284.699 1212.12 286.09C1212.3 286.911 1212.47 287.701 1212.64 288.459C1212.87 289.204 1213.04 289.696 1213.16 289.935L1212.84 290.302L1207.86 290.688C1207.71 289.992 1207.56 289.132 1207.4 288.108C1207.18 287.096 1206.97 285.984 1206.78 284.769C1206.53 283.632 1206.32 282.519 1206.15 281.431C1205.93 280.42 1205.74 279.535 1205.57 278.777C1205.42 278.082 1205.23 277.197 1205 276.123C1204.71 275.125 1204.42 274.065 1204.11 272.941C1203.81 271.88 1203.55 270.844 1203.33 269.833C1203.07 268.899 1202.83 268.123 1202.63 267.505Z" fill="white"/>
<path d="M1192.78 240.964C1191.19 237.071 1190.66 233.346 1191.16 229.788C1191.67 226.231 1193.09 223.034 1195.43 220.198C1197.79 217.421 1201.04 215.192 1205.17 213.51C1209.54 211.73 1213.81 211.074 1217.98 211.541C1222.21 211.983 1225.96 213.39 1229.23 215.76C1232.58 218.165 1235.09 221.404 1236.75 225.477C1237.57 227.513 1238.17 229.401 1238.53 231.14C1238.97 232.915 1239.21 234.354 1239.24 235.459C1239.33 236.539 1239.37 237.079 1239.37 237.079L1238.89 237.695C1238.89 237.695 1238.23 237.789 1236.91 237.977C1235.68 238.201 1234.01 238.565 1231.91 239.07C1229.81 239.575 1227.5 240.237 1224.97 241.057L1222.83 236.585L1225.71 235.415C1227.87 234.537 1229.3 233.256 1230.01 231.57C1230.78 229.86 1230.75 227.987 1229.92 225.951C1228.6 222.716 1226.39 220.718 1223.29 219.957C1220.25 219.17 1216.54 219.667 1212.17 221.447C1207.08 223.519 1203.5 226.129 1201.43 229.276C1199.42 232.398 1199.13 235.726 1200.57 239.26C1201.23 240.877 1202.1 242.337 1203.19 243.639C1204.36 244.977 1205.34 246.01 1206.13 246.738C1207 247.501 1207.43 247.882 1207.43 247.882L1207.42 248.621L1204.33 251.342C1204.33 251.342 1203.82 251.027 1202.8 250.396C1201.86 249.802 1200.69 248.986 1199.29 247.95C1197.91 246.973 1196.62 245.858 1195.41 244.605C1194.15 243.376 1193.27 242.162 1192.78 240.964Z" fill="white"/>
<path d="M1172.49 200.437C1170.41 197.164 1169.33 193.787 1169.26 190.305C1169.23 186.878 1170.15 183.57 1172.03 180.38C1173.94 177.245 1176.72 174.514 1180.38 172.187C1184.41 169.616 1188.51 168.159 1192.66 167.816C1196.9 167.492 1200.86 168.23 1204.53 170.029C1208.21 171.828 1211.21 174.555 1213.54 178.21C1215.66 181.537 1216.73 184.915 1216.77 188.342C1216.84 191.823 1215.92 195.132 1214.01 198.267C1212.15 201.367 1209.36 204.098 1205.65 206.46C1201.67 208.996 1197.56 210.426 1193.32 210.749C1189.11 211.128 1185.17 210.417 1181.5 208.618C1177.86 206.873 1174.86 204.146 1172.49 200.437ZM1178.74 199.223C1180.47 201.95 1182.92 203.383 1186.07 203.52C1189.32 203.678 1192.93 202.489 1196.91 199.954C1200.24 197.835 1202.82 195.575 1204.67 193.174C1206.6 190.792 1207.74 188.421 1208.07 186.06C1208.44 183.754 1207.97 181.564 1206.65 179.492C1204.95 176.819 1202.47 175.404 1199.23 175.246C1196.02 175.143 1192.43 176.359 1188.44 178.895C1185.06 181.048 1182.43 183.298 1180.55 185.645C1178.67 187.991 1177.57 190.345 1177.23 192.706C1176.95 195.032 1177.45 197.204 1178.74 199.223Z" fill="white"/>
<path d="M1130.45 146.221L1134.44 143.242C1136.23 144.571 1137.63 145.249 1138.64 145.277C1139.69 145.26 1140.92 144.584 1142.33 143.25L1161.06 125.644C1162.09 124.665 1162.64 123.88 1162.7 123.287C1162.85 122.696 1162.55 122.002 1161.8 121.204C1161.48 120.875 1161.13 120.545 1160.72 120.214C1160.37 119.839 1160.17 119.627 1160.12 119.58L1160.35 118.969L1163.92 116.253C1164.05 116.393 1164.48 116.839 1165.19 117.591C1165.9 118.342 1166.68 119.209 1167.52 120.193C1168.41 121.132 1169.16 121.93 1169.79 122.587C1170.54 123.385 1171.43 124.278 1172.46 125.267C1173.57 126.258 1174.56 127.153 1175.4 127.954C1176.3 128.802 1176.85 129.343 1177.08 129.578L1173.28 132.768C1171.76 131.538 1170.61 130.98 1169.83 131.096C1169.1 131.168 1167.98 131.824 1166.48 133.064L1159.32 139.182L1166.25 146.781C1167.54 148.142 1168.65 149.27 1169.59 150.165C1170.61 151.062 1171.78 152.099 1173.07 153.278L1180.6 146.278C1181.63 145.3 1182.18 144.514 1182.24 143.921C1182.4 143.331 1182.1 142.636 1181.34 141.838C1181.07 141.556 1180.72 141.226 1180.27 140.848C1179.87 140.426 1179.65 140.191 1179.6 140.144L1179.82 139.533L1183.4 136.816C1183.58 137.004 1184.04 137.497 1184.8 138.295C1185.55 139.093 1186.33 139.961 1187.13 140.897C1188.02 141.836 1188.77 142.634 1189.4 143.292C1190.15 144.09 1191.07 145.007 1192.14 146.042C1193.25 147.033 1194.26 147.952 1195.15 148.8C1196.04 149.647 1196.58 150.165 1196.75 150.353L1192.96 153.543C1191.53 152.407 1190.42 151.805 1189.65 151.738C1188.92 151.627 1188.04 151.969 1187.01 152.764C1184.91 154.583 1182.59 156.555 1180.06 158.683C1177.58 160.857 1175.21 162.965 1172.96 165.008C1170.71 167.051 1168.74 168.873 1167.05 170.474C1165.87 171.586 1165.18 172.505 1164.98 173.231C1164.82 174.005 1165.14 174.814 1165.94 175.659C1166.43 176.176 1166.9 176.623 1167.35 177.001C1167.84 177.426 1168.13 177.64 1168.22 177.642L1168.07 178.187L1164.01 181.096C1163.88 180.955 1163.44 180.44 1162.68 179.55C1161.88 178.705 1160.97 177.697 1159.95 176.526C1158.93 175.446 1157.97 174.436 1157.08 173.497C1156.51 172.887 1155.73 172.066 1154.75 171.033C1153.77 170 1152.86 169.037 1152.01 168.145C1151.12 167.298 1150.56 166.756 1150.34 166.522L1154.33 163.68C1155.85 165.184 1157.18 165.884 1158.32 165.778C1159.47 165.671 1160.96 164.751 1162.79 163.017L1168.84 157.28C1168.8 157.233 1168.4 156.811 1167.64 156.013C1166.94 155.17 1166.11 154.256 1165.18 153.27C1164.25 152.284 1163.45 151.439 1162.78 150.735C1162.42 150.359 1161.82 149.771 1160.97 148.97C1160.17 148.217 1159.28 147.415 1158.29 146.565C1157.36 145.67 1156.56 144.917 1155.89 144.304C1155.22 143.691 1154.84 143.338 1154.75 143.244L1147.57 149.773C1146.26 150.927 1145.5 151.867 1145.3 152.593C1145.1 153.32 1145.4 154.106 1146.2 154.951C1146.69 155.467 1147.15 155.914 1147.6 156.292C1148.09 156.717 1148.36 156.953 1148.41 157L1148.26 157.408L1144.34 160.321C1144.11 160.086 1143.69 159.594 1143.07 158.845C1142.4 158.141 1141.69 157.344 1140.94 156.455C1140.14 155.61 1139.45 154.882 1138.87 154.272C1137.94 153.286 1136.85 152.181 1135.6 150.958C1134.31 149.779 1133.19 148.743 1132.25 147.848C1131.32 146.954 1130.72 146.411 1130.45 146.221Z" fill="white"/>
<path d="M1089.24 116.931L1092.59 113.247C1094.61 114.211 1096.11 114.611 1097.1 114.447C1098.13 114.23 1099.21 113.333 1100.34 111.755L1115.38 90.91C1116.21 89.7532 1116.6 88.8778 1116.55 88.2839C1116.58 87.6751 1116.16 87.0507 1115.26 86.4108C1114.89 86.1473 1114.48 85.8913 1114.02 85.6427C1113.6 85.3416 1113.37 85.1722 1113.31 85.1346L1113.41 84.4919L1116.41 81.1461C1116.56 81.259 1117.06 81.6166 1117.91 82.2188C1118.75 82.8211 1119.67 83.5249 1120.69 84.3303C1121.74 85.0832 1122.63 85.7231 1123.37 86.25C1124.26 86.8899 1125.31 87.5976 1126.5 88.3732C1127.79 89.1338 1128.92 89.8265 1129.91 90.4515C1130.94 91.1141 1131.59 91.5395 1131.85 91.7277L1128.74 95.5809C1127.01 94.662 1125.77 94.3337 1125.03 94.596C1124.32 94.8058 1123.35 95.6617 1122.12 97.1639L1116.25 104.532L1124.49 110.675C1126.02 111.767 1127.33 112.663 1128.42 113.363C1129.6 114.048 1130.93 114.846 1132.43 115.758L1138.49 107.453C1139.32 106.297 1139.71 105.421 1139.66 104.827C1139.69 104.218 1139.27 103.594 1138.37 102.954C1138.06 102.728 1137.64 102.472 1137.13 102.186C1136.66 101.847 1136.4 101.659 1136.34 101.621L1136.45 100.979L1139.44 97.6329C1139.65 97.7835 1140.2 98.1787 1141.09 98.8186C1141.99 99.4585 1142.92 100.162 1143.88 100.93C1144.93 101.683 1145.82 102.323 1146.56 102.85C1147.45 103.49 1148.52 104.216 1149.77 105.029C1151.05 105.79 1152.22 106.502 1153.25 107.164C1154.29 107.827 1154.91 108.233 1155.12 108.384L1152.01 112.237C1150.38 111.393 1149.18 111.013 1148.41 111.095C1147.67 111.124 1146.88 111.627 1146.02 112.603C1144.29 114.789 1142.39 117.166 1140.32 119.735C1138.29 122.341 1136.37 124.861 1134.55 127.295C1132.73 129.729 1131.14 131.892 1129.78 133.785C1128.84 135.1 1128.34 136.133 1128.28 136.884C1128.27 137.674 1128.74 138.407 1129.69 139.085C1130.26 139.499 1130.81 139.849 1131.32 140.135C1131.88 140.459 1132.21 140.613 1132.3 140.598L1132.25 141.162L1128.82 144.79C1128.67 144.677 1128.13 144.255 1127.22 143.525C1126.28 142.847 1125.19 142.031 1123.97 141.075C1122.76 140.209 1121.63 139.4 1120.58 138.647C1119.89 138.157 1118.97 137.499 1117.81 136.671C1116.66 135.843 1115.58 135.071 1114.58 134.356C1113.54 133.693 1112.89 133.268 1112.63 133.08L1116.01 129.531C1117.78 130.721 1119.22 131.154 1120.32 130.832C1121.43 130.51 1122.72 129.324 1124.18 127.273L1129.04 120.49C1128.99 120.452 1128.51 120.114 1127.62 119.474C1126.76 118.781 1125.78 118.04 1124.68 117.249C1123.58 116.459 1122.63 115.781 1121.84 115.217C1121.42 114.915 1120.72 114.452 1119.73 113.827C1118.8 113.24 1117.77 112.623 1116.65 111.975C1115.56 111.275 1114.62 110.687 1113.85 110.213C1113.08 109.739 1112.64 109.464 1112.53 109.388L1106.73 117.163C1105.66 118.545 1105.09 119.612 1105.03 120.364C1104.97 121.115 1105.42 121.83 1106.36 122.507C1106.94 122.921 1107.48 123.272 1108 123.558C1108.56 123.882 1108.87 124.062 1108.92 124.1L1108.85 124.528L1105.56 128.133C1105.29 127.945 1104.79 127.542 1104.03 126.925C1103.25 126.361 1102.4 125.713 1101.49 124.983C1100.54 124.306 1099.73 123.722 1099.04 123.233C1097.94 122.442 1096.66 121.565 1095.2 120.601C1093.71 119.69 1092.41 118.885 1091.32 118.184C1090.23 117.484 1089.54 117.066 1089.24 116.931Z" fill="white"/>
<path d="M1069.11 107.626C1065.25 105.805 1062.28 103.4 1060.18 100.41C1058.09 97.4204 1056.94 94.091 1056.74 90.4218C1056.57 86.6941 1057.42 82.8418 1059.3 78.8648C1060.76 75.7651 1062.66 73.1185 1064.98 70.9248C1067.3 68.7312 1069.85 67.0385 1072.63 65.8469C1075.47 64.6829 1078.36 64.0816 1081.31 64.0432C1084.26 64.0048 1087.11 64.634 1089.86 65.9308C1099.1 70.2903 1101.56 77.0318 1097.26 86.1555C1096.87 86.9743 1096.39 87.7809 1095.8 88.5754C1095.27 89.3975 1094.82 90.0441 1094.45 90.5153L1092.95 90.9836L1069.43 79.8918C1067.23 84.5705 1066.42 88.6965 1067.03 92.2698C1067.63 95.843 1069.54 98.6053 1072.77 100.556C1076.05 102.535 1080.5 103.562 1086.12 103.636L1086.52 104.148L1086.18 108.061C1084.53 108.359 1082.63 108.605 1080.46 108.799C1078.39 108.962 1076.32 108.951 1074.26 108.767C1072.23 108.668 1070.52 108.288 1069.11 107.626ZM1071.47 76.0268L1085.93 81.9884C1086.74 82.2301 1087.32 82.2892 1087.67 82.1656C1088.1 82.0112 1088.51 81.5245 1088.89 80.7058C1089.97 78.4248 1090.23 76.4374 1089.67 74.7435C1089.11 73.0495 1087.78 71.7059 1085.67 70.7126C1083.15 69.5262 1080.61 69.3963 1078.02 70.3231C1075.53 71.219 1073.34 73.1203 1071.47 76.0268Z" fill="white"/>
<path d="M1024.95 91.1213C1018.58 89.4234 1014.38 85.6963 1012.37 79.9401C1010.42 74.2004 1010.71 66.5816 1013.24 57.0835C1016.05 46.5231 1020.46 38.8969 1026.46 34.205C1032.54 29.4672 1040.73 27.2324 1051.03 27.5005C1052.76 27.5583 1054.1 27.5476 1055.06 27.4682C1056.09 27.343 1057 27.0824 1057.77 26.6865C1058.55 26.2905 1059.38 25.6759 1060.27 24.8426L1063.18 27.1224L1063.24 27.641L1056.45 36.5716L1055.05 37.3031C1048.97 36.4882 1044.02 36.1062 1040.19 36.1572C1036.36 36.2082 1033.38 36.8525 1031.25 38.0902C1029.11 39.3279 1027.51 41.3111 1026.45 44.0399C1025.45 46.7852 1024.67 50.4594 1024.11 55.0625L1023.49 47.9708L1025.38 49.5761C1029.39 47.3007 1034.02 46.3914 1039.25 46.8483C1043.13 47.8804 1046.26 49.6853 1048.65 52.2632C1051.06 54.7785 1052.62 57.8377 1053.33 61.4408C1054.13 64.9979 1053.96 68.8698 1052.85 73.0565C1051.6 77.7431 1049.59 81.6571 1046.81 84.7986C1044.05 87.8777 1040.78 89.9842 1037 91.1182C1033.21 92.2522 1029.2 92.2533 1024.95 91.1213ZM1028.25 85.8781C1031.44 86.7271 1034.22 86.0953 1036.59 83.9827C1039.02 81.8869 1040.87 78.4644 1042.13 73.7153C1043.13 69.9661 1043.49 66.6148 1043.21 63.6615C1043 60.6624 1042.21 58.2112 1040.85 56.3078C1039.56 54.3587 1037.73 53.0679 1035.35 52.4353C1032.23 51.603 1029.44 52.266 1027 54.4244C1024.56 56.5203 1022.71 59.9428 1021.45 64.6918C1020.45 68.4411 1020.06 71.784 1020.28 74.7207C1020.57 77.674 1021.35 80.1252 1022.64 82.0744C1024.01 83.9777 1025.88 85.2456 1028.25 85.8781Z" fill="white"/>
<path d="M975.503 82.9486C971.632 82.6806 968.275 81.5408 965.433 79.529C962.655 77.5217 960.541 74.815 959.091 71.4087C957.706 68.007 957.163 64.1449 957.463 59.8226C957.793 55.0487 959.053 50.8901 961.243 47.3469C963.502 43.7436 966.447 40.9981 970.078 39.1103C973.709 37.2225 977.686 36.4282 982.008 36.7274C985.943 36.9998 989.3 38.1397 992.078 40.147C994.92 42.1587 997.034 44.8655 998.419 48.2672C999.809 51.6045 1000.35 55.4665 1000.05 59.8534C999.722 64.5628 998.43 68.7191 996.171 72.3224C993.976 75.9302 991.064 78.6779 987.433 80.5657C983.866 82.4579 979.89 83.2522 975.503 82.9486ZM978.234 77.2064C981.459 77.4297 984.065 76.3136 986.05 73.8582C988.104 71.3427 989.293 67.7302 989.619 63.0208C989.892 59.0856 989.61 55.6629 988.774 52.7529C988.008 49.7829 986.775 47.4612 985.076 45.7879C983.441 44.119 981.398 43.1998 978.946 43.0301C975.785 42.8113 973.178 43.9596 971.124 46.4751C969.134 48.9951 967.977 52.6098 967.651 57.3192C967.374 61.3189 967.621 64.7716 968.392 67.6771C969.163 70.5826 970.399 72.872 972.098 74.5454C973.801 76.1542 975.847 77.0412 978.234 77.2064Z" fill="white"/>
<path d="M934.078 83.7272C929.9 84.1943 926.169 83.7006 922.883 82.2461C919.597 80.7916 916.907 78.5547 914.812 75.5354C912.782 72.509 911.519 68.7786 911.023 64.3442C910.498 59.6528 911.027 55.3641 912.61 51.4781C914.185 47.5279 916.557 44.302 919.726 41.8003C922.952 39.2272 926.751 37.6963 931.121 37.2076C933.306 36.9633 935.284 36.9048 937.055 37.0321C938.883 37.0879 940.333 37.2511 941.404 37.5217C942.468 37.7281 943 37.8313 943 37.8313L943.462 38.4629C943.462 38.4629 943.373 39.1236 943.195 40.4448C943.075 41.6946 942.972 43.3979 942.888 45.5546C942.804 47.7113 942.813 50.1179 942.915 52.7744L938.031 53.6133L937.686 50.5286C937.427 48.215 936.583 46.4874 935.154 45.3458C933.718 44.1399 931.907 43.6592 929.722 43.9035C926.252 44.2916 923.728 45.8752 922.152 48.6542C920.569 51.369 920.039 55.0721 920.564 59.7635C921.175 65.2261 922.713 69.3813 925.179 72.2289C927.637 75.0122 930.762 76.1919 934.554 75.7679C936.289 75.5739 937.931 75.13 939.481 74.4362C941.087 73.6709 942.347 73.0095 943.261 72.4518C944.231 71.8227 944.717 71.5081 944.717 71.5081L945.424 71.7219L947.205 75.4269C947.205 75.4269 946.762 75.8343 945.877 76.649C945.049 77.3923 943.947 78.2964 942.569 79.3614C941.256 80.4193 939.832 81.3593 938.297 82.1817C936.769 83.0683 935.363 83.5834 934.078 83.7272Z" fill="white"/>
<path d="M873.045 97.7862C867.853 99.5909 862.929 100.002 858.274 99.0182C853.598 97.9737 849.448 95.6852 845.824 92.1526C842.179 88.559 839.358 83.8913 837.362 78.1497C835.748 73.5075 834.995 68.977 835.102 64.5582C835.209 60.1394 836.107 56.0274 837.797 52.2224C839.527 48.335 841.948 44.9602 845.061 42.0982C848.173 39.2361 851.898 37.0513 856.235 35.5437C861.61 33.6752 866.666 33.2526 871.404 34.2759C876.12 35.2381 880.29 37.4855 883.914 41.018C887.578 44.4683 890.408 49.0642 892.404 54.8059C894.039 59.5091 894.783 64.1113 894.636 68.6124C894.468 73.0525 893.508 77.1857 891.758 81.012C890.068 84.817 887.647 88.1918 884.494 91.1362C881.32 94.0195 877.504 96.2362 873.045 97.7862ZM873.6 90.8155C877.081 89.6052 879.767 87.6791 881.655 85.0372C883.584 82.313 884.677 79.0575 884.935 75.2707C885.255 71.4627 884.639 67.3293 883.089 62.8703C881.221 57.4952 878.865 53.1795 876.021 49.9232C873.157 46.6059 869.989 44.3866 866.518 43.2653C863.109 42.1228 859.541 42.1991 855.815 43.4943C852.456 44.6621 849.842 46.5975 847.975 49.3005C846.086 51.9424 845.013 55.1568 844.755 58.9435C844.536 62.648 845.202 66.7297 846.752 71.1886C848.599 76.5027 850.925 80.829 853.728 84.1676C856.532 87.5061 859.649 89.7772 863.08 90.9808C866.489 92.1233 869.996 92.0682 873.6 90.8155Z" fill="white"/>
<path d="M689.329 726L674.547 799.958" stroke="white" stroke-width="0.81106"/>
</g>
<defs>
<clipPath id="clip0_224_387">
<rect width="1440" height="1303" fill="white"/>
</clipPath>
</defs>
</svg>
