<svg width="542" height="790" viewBox="0 0 542 790" fill="none" xmlns="http://www.w3.org/2000/svg">
<path d="M401.463 697.529L364.9 757.181L368.267 605.847L240.681 678.867L316.331 604.142L69.0584 615.752L289.757 521.42L188.613 445.305L288.414 463.396L358.759 477.521L328.651 325.725L406.255 452.501L624.99 290.568L483.978 482.897L764.371 411.33L522.356 525.841L647.24 598.227L475.52 593.113L560.544 718.375L443.187 638.7L401.463 697.529Z" fill="#E46171"/>
<path d="M396.407 601.873L382.121 624.08L383.805 567.91L334.294 595.248L363.73 567.374L268.102 572.146L353.665 536.724L314.754 508.665L353.293 515.192L380.454 520.302L369.197 464.024L398.879 510.928L483.855 450.42L428.851 522.063L537.436 494.977L443.58 537.929L491.679 564.559L425.303 562.983L457.858 609.311L412.687 579.962L396.407 601.873Z" fill="white"/>
<path d="M408.874 507.311C404.982 497.922 342.606 337.589 301.418 235.98C295.096 220.384 275.946 214.773 262.14 224.395L217.008 255.85C217.008 255.85 280.919 392.938 289.423 411.115C300.053 433.836 361.884 534.677 367.389 545.158C372.893 555.639 401.278 589.554 404.547 582.89C407.816 576.226 414.022 519.731 408.874 507.311Z" fill="url(#paint0_linear_216_322)"/>
<path d="M198.156 8.30485L294.262 226.115C296.259 230.641 294.123 235.921 289.542 237.786L265.151 247.711C260.899 249.442 256.046 247.631 254.002 243.521C232.234 199.775 188.951 112.706 162.269 58.7497C161.288 56.7657 161.11 54.4816 161.765 52.3672C175.934 6.58034 189.738 1.7818 196.129 5.70273C197.087 6.29081 197.702 7.27601 198.156 8.30485Z" fill="#34B1B9" stroke="#34B1B9" stroke-width="8.77503"/>
<circle cx="267.394" cy="198.954" r="9.65217" transform="rotate(116.127 267.394 198.954)" fill="#FFC56F"/>
<circle cx="238.64" cy="134.028" r="9.65217" transform="rotate(116.127 238.64 134.028)" fill="#FFC56F"/>
<defs>
<linearGradient id="paint0_linear_216_322" x1="509.459" y1="368.991" x2="143.396" y2="405.934" gradientUnits="userSpaceOnUse">
<stop offset="0.145833" stop-color="white"/>
<stop offset="1" stop-color="#807F7F"/>
</linearGradient>
</defs>
</svg>
