<svg width="1440" height="1426" viewBox="0 0 1440 1426" fill="none" xmlns="http://www.w3.org/2000/svg">
<g clip-path="url(#clip0_169_361)">
<path opacity="0.49" d="M-0.981445 475.753C-0.981445 475.753 58.6997 288.974 276.271 288.974C493.843 288.974 504.752 436.837 715.542 436.837C1027.71 436.837 840.668 288.974 1372.41 288.974C1566.12 288.974 1566.12 436.837 1566.12 436.837V1066.65H-0.981445V475.753Z" fill="#3DC7CF"/>
<path d="M-0.000976562 338.332L1186.16 1277.75H-0.000976562V338.332Z" fill="#266B70"/>
<path opacity="0.4" d="M-0.000976562 338.332C-0.000976562 338.332 5.87762 417.516 60.7445 456.707C115.611 495.898 9.79668 523.331 60.7445 586.036C111.692 648.741 244.94 619.564 272.374 665.495C299.807 711.427 203.555 893.683 253.641 967.263C303.726 1040.84 349.971 1044.16 349.971 1044.16L560.17 781.989L-0.000976562 338.332Z" fill="url(#paint0_linear_169_361)"/>
<path d="M1340.17 205.519L326 1361.53H1722.68V587.407L1385 206C1382.39 203.059 1378.17 200.098 1374.36 198.465C1370.54 196.833 1366.36 195.99 1362.11 196C1357.87 196.01 1353.69 196.873 1349.89 198.523C1346.08 200.173 1342.76 202.566 1340.17 205.519Z" fill="#33898E"/>
<path opacity="0.8" d="M1385 206C1364.5 183 1323.73 204.086 1337.27 230.015C1337.53 230.514 1337.8 231.012 1338.1 231.494C1352.23 254.706 1396.85 257.285 1396.85 275.339C1396.85 334.659 1200 394.353 1200 507.835C1200 621.316 1378.26 621.344 1378.26 739.983C1378.26 858.623 1222.53 833.272 1222.53 1008.64C1222.53 1184 1709.31 1342.92 1709.31 1342.92V570.202L1385 206Z" fill="url(#paint1_linear_169_361)" fill-opacity="0.7"/>
<path d="M815.781 273.781C864.158 225.405 864.158 146.97 815.781 98.5937C767.405 50.2171 688.97 50.217 640.594 98.5937C592.217 146.97 592.217 225.405 640.594 273.781C688.97 322.158 767.405 322.158 815.781 273.781Z" fill="url(#paint2_linear_169_361)"/>
<path d="M898.444 783.947H890.763C896.263 782.881 901.169 779.802 904.52 775.312C907.872 770.823 909.429 765.245 908.888 759.668C908.347 754.092 905.746 748.917 901.593 745.156C897.441 741.395 892.035 739.317 886.432 739.328H870.58V724.906H874.636V715.598H855.433V724.906H859.469V739.328H824.198V736.017H817.418V730.021C817.421 729.096 817.221 728.182 816.832 727.344C816.442 726.506 815.872 725.764 815.163 725.17C814.454 724.577 813.623 724.148 812.729 723.913C811.835 723.677 810.9 723.642 809.991 723.809C808.499 724.128 807.165 724.959 806.22 726.158C805.276 727.356 804.78 728.848 804.818 730.373V736.017H798.057V739.328H789.416V727.767H779.52V739.328H750.97V727.023C750.973 725.523 750.68 724.038 750.108 722.652C749.536 721.266 748.696 720.007 747.637 718.946C746.577 717.885 745.319 717.043 743.934 716.468C742.549 715.894 741.065 715.598 739.566 715.598H663.144C662.186 715.597 661.238 715.791 660.358 716.169C659.478 716.547 658.684 717.1 658.026 717.795C657.367 718.491 656.857 719.313 656.528 720.212C656.198 721.112 656.056 722.069 656.109 723.025C656.263 724.878 657.121 726.603 658.505 727.845C659.889 729.087 661.696 729.753 663.555 729.707H691.224C694.172 729.707 697 730.877 699.087 732.96C701.174 735.043 702.349 737.869 702.354 740.818V759.002C702.349 759.757 702.045 760.48 701.509 761.012C700.973 761.545 700.248 761.843 699.493 761.843H662.321C660.69 761.848 659.128 762.498 657.976 763.651C656.823 764.804 656.173 766.366 656.168 767.996V786.631C656.17 789.572 656.794 792.478 658 795.16C659.206 797.841 660.965 800.237 663.163 802.19C663.163 802.68 663.046 803.19 663.007 803.699H639.257V741.876C639.26 739.957 638.884 738.057 638.151 736.283C637.419 734.51 636.344 732.898 634.988 731.54C633.632 730.183 632.022 729.106 630.25 728.371C628.477 727.636 626.577 727.258 624.659 727.258H345.7C341.826 727.263 338.113 728.805 335.376 731.546C332.639 734.287 331.101 738.002 331.101 741.876V793.039H316.601V741.876C316.603 739.957 316.227 738.057 315.495 736.283C314.762 734.51 313.688 732.898 312.332 731.54C310.976 730.183 309.366 729.106 307.593 728.371C305.821 727.636 303.921 727.258 302.002 727.258H23.0823C21.1626 727.258 19.2618 727.636 17.4882 728.37C15.7146 729.105 14.1032 730.182 12.7457 731.539C11.3883 732.897 10.3116 734.508 9.57694 736.282C8.84231 738.055 8.4642 739.956 8.4642 741.876V793.039H-0.000976562V799.035H8.4642V810.459H14.0293C14.0293 813.484 15.2308 816.385 17.3696 818.524C19.5083 820.662 22.4091 821.864 25.4337 821.864C28.4584 821.864 31.3592 820.662 33.4979 818.524C35.6367 816.385 36.8382 813.484 36.8382 810.459H45.8717C45.8717 813.484 47.0732 816.385 49.212 818.524C51.3507 820.662 54.2515 821.864 57.2761 821.864C60.3008 821.864 63.2016 820.662 65.3403 818.524C67.4791 816.385 68.6806 813.484 68.6806 810.459H254.836C254.836 813.484 256.038 816.385 258.176 818.524C260.315 820.662 263.216 821.864 266.241 821.864C269.265 821.864 272.166 820.662 274.305 818.524C276.444 816.385 277.645 813.484 277.645 810.459H286.659C286.781 813.405 288.037 816.189 290.164 818.23C292.291 820.271 295.125 821.41 298.073 821.41C301.021 821.41 303.855 820.271 305.982 818.23C308.109 816.189 309.365 813.405 309.487 810.459H316.679V799.035H331.16V810.459H336.725C336.847 813.405 338.103 816.189 340.23 818.23C342.357 820.271 345.191 821.41 348.139 821.41C351.087 821.41 353.921 820.271 356.048 818.23C358.176 816.189 359.431 813.405 359.554 810.459H368.548C368.67 813.405 369.926 816.189 372.053 818.23C374.18 820.271 377.014 821.41 379.962 821.41C382.91 821.41 385.744 820.271 387.871 818.23C389.998 816.189 391.254 813.405 391.376 810.459H577.434C577.434 813.489 578.637 816.395 580.78 818.537C582.922 820.68 585.828 821.883 588.858 821.883C591.888 821.883 594.794 820.68 596.936 818.537C599.078 816.395 600.282 813.489 600.282 810.459H609.276C609.398 813.405 610.654 816.189 612.781 818.23C614.909 820.271 617.743 821.41 620.691 821.41C623.638 821.41 626.472 820.271 628.599 818.23C630.727 816.189 631.983 813.405 632.105 810.459H663.908C665.194 814.011 667.62 817.036 670.807 819.063C673.994 821.089 677.763 822.003 681.525 821.66C685.286 821.318 688.828 819.739 691.597 817.17C694.366 814.601 696.205 811.187 696.828 807.461H712.073C712.964 811.541 715.223 815.193 718.476 817.812C721.728 820.431 725.778 821.859 729.954 821.859C734.13 821.859 738.18 820.431 741.432 817.812C744.685 815.193 746.944 811.541 747.835 807.461H754.125C755.024 811.531 757.286 815.172 760.535 817.782C763.785 820.392 767.828 821.814 771.996 821.814C776.164 821.814 780.207 820.392 783.456 817.782C786.706 815.172 788.967 811.531 789.867 807.461H799.488C800.379 811.541 802.638 815.193 805.89 817.812C809.143 820.431 813.193 821.859 817.369 821.859C821.544 821.859 825.595 820.431 828.847 817.812C832.1 815.193 834.359 811.541 835.249 807.461H841.54C842.43 811.541 844.689 815.193 847.942 817.812C851.194 820.431 855.245 821.859 859.42 821.859C863.596 821.859 867.646 820.431 870.899 817.812C874.151 815.193 876.41 811.541 877.301 807.461H879.378C878.622 808.535 878.107 809.76 877.867 811.051C877.627 812.343 877.669 813.671 877.989 814.945C878.31 816.219 878.901 817.408 879.723 818.433C880.546 819.457 881.579 820.292 882.753 820.881C883.928 821.47 885.215 821.798 886.528 821.843C887.841 821.889 889.148 821.651 890.36 821.145C891.572 820.64 892.661 819.878 893.553 818.913C894.444 817.949 895.117 816.803 895.525 815.554C917.844 815.437 922.723 809.676 922.723 809.676L898.444 783.947ZM211.041 803.679H114.024V799.035H211.041V803.679ZM533.677 803.679H436.681V799.035H533.677V803.679Z" fill="black"/>
<path d="M1566.64 950.504C1566.64 950.504 1493.81 874.083 1372.98 967.16C1252.16 1060.24 1288.84 1032.8 1219.55 1013.21C1150.26 993.614 1160.04 966.181 1080.68 1021.05C1001.32 1075.91 875.91 1001.06 781.852 1054.16C687.795 1107.27 596.853 1168.37 570.105 1164.76C323.322 1131.45 101.895 1277.75 101.895 1277.75H1566.64V950.504Z" fill="white"/>
<path d="M1567.62 789.453V780.4H-0.000976562V789.453H41.1492V821.178H-0.000976562V1277.75H60.7445V1021.05C60.7445 991.167 72.6154 962.509 93.7457 941.378C114.876 920.248 143.535 908.377 173.418 908.377C203.3 908.377 231.959 920.248 253.089 941.378C274.22 962.509 286.091 991.167 286.091 1021.05V1277.75H400.762V1021.05C400.762 991.174 412.628 962.521 433.75 941.392C454.872 920.263 483.52 908.388 513.396 908.377C543.279 908.377 571.938 920.248 593.068 941.378C614.198 962.509 626.069 991.167 626.069 1021.05V1277.75H740.702H775.315C825.045 1299.38 788.742 1298.88 809.873 1277.75C851.595 1279.99 823.492 1277.75 853.375 1277.75C883.258 1277.75 860.024 1277.75 941.784 1277.75C962.914 1298.88 956.427 1257.28 956.427 1287.16L966.048 1277.75H1080.72H1523.03C1523.03 1247.87 1451.32 1233.71 1472.45 1212.58C1493.58 1191.45 1524.98 1212.58 1554.86 1212.58C1584.74 1212.58 1501.9 1034.74 1523.03 1055.87C1497.07 957.441 1472.45 1153.32 1472.45 1183.2L1306.07 1277.75H1567.62V1035.31C1567.62 1005.42 1567.62 988.783 1567.62 964.297C1567.62 928.057 1567.62 966.256 1567.62 941.28C1567.62 916.304 1567.62 926.588 1567.62 913.276V821.178H1538.23V789.453H1567.62ZM50.9468 821.178V789.453H155.566V821.178H50.9468ZM165.364 821.178V789.453H269.964V821.178H165.364ZM279.761 821.178V789.453H384.381V821.178H279.761ZM394.178 821.178V789.453H498.798V821.178H394.178ZM508.595 821.178V789.453H613.195V821.178H508.595ZM622.993 821.178V789.453H727.612V821.178H622.993ZM737.41 821.178V789.453H842.029V821.178H737.41ZM851.827 821.178V789.453H956.427V821.178H851.827ZM966.224 821.178V789.453H1070.84V821.178H966.224ZM1080.64 821.178V789.453H1185.26V821.178H1080.64ZM1195.06 821.178V789.453H1299.66V821.178H1195.06ZM1309.46 821.178V789.453H1414.08V821.178H1309.46ZM1423.87 821.178V789.453H1528.43V821.178H1423.87Z" fill="#34B1B9"/>
<path d="M-6.99902 115.402C-6.99902 115.402 284.398 156.615 344.058 115.402C403.717 74.1879 1066.6 115.402 1066.6 115.402C1066.6 115.402 517.875 114.941 478.682 133.728C439.489 152.514 -6.99902 247.305 -6.99902 247.305V115.402Z" fill="url(#paint3_linear_169_361)" fill-opacity="0.9"/>
<ellipse cx="1185.5" cy="1324.5" rx="283.5" ry="88.5" fill="white"/>
<ellipse cx="509.836" cy="1338.73" rx="652.836" ry="62.4827" fill="white"/>
<ellipse cx="60.8248" cy="1338.61" rx="182.277" ry="74.1173" fill="white"/>
<ellipse cx="1396.5" cy="1310" rx="182.5" ry="116" fill="white"/>
<path d="M865.069 715.833C867.633 696.534 905.609 658.318 893.983 641.217C882.357 624.116 843.158 622.893 818.633 623.543C802.016 623.976 763.181 636.837 747.503 641.217C731.161 645.79 713.987 648.231 696.654 648.444C687.631 648.553 678.315 647.995 670.31 644.73C657.059 639.344 650.052 627.799 639.639 619.38C613.452 598.193 569.492 599.354 534.046 608.918C517.801 613.298 501.066 619.21 484.156 616.842C472.569 615.217 462.45 609.862 452.703 604.631C424.597 589.527 392.204 573.787 358.951 579.374C342.725 582.114 328.633 589.697 313.934 595.717C292.639 604.415 268.917 610.033 244.98 609.522C221.043 609.011 196.832 601.969 180.215 588.304C182.172 598.023 191.156 604.693 202.41 608.841C225.974 617.44 252.435 619.748 277.803 615.418C299.333 611.688 319.238 603.269 340.279 597.884C361.319 592.498 385.432 590.424 404.711 598.998C418.412 605.189 427.944 615.867 440.431 623.543C473.234 643.662 520.678 639.453 559.529 627.892C571.86 624.224 584.073 619.906 597.128 618.482C610.183 617.059 624.53 619.04 633.885 626.437C643.671 634.175 645.903 646.278 654.789 654.697C663.674 663.116 677.747 666.644 691.409 667.867C728.773 671.21 754.491 652.7 790.093 651.555C803.559 651.122 825.441 653.567 835.892 660.268C843.447 665.128 849.335 673.825 853.993 680.572C862.155 692.442 860.928 702.523 863.864 715.833" fill="url(#paint4_linear_169_361)"/>
<path d="M722.93 760.629H732.472C736.801 760.629 740.311 757.119 740.311 752.791V743.248C740.311 738.919 736.801 735.409 732.472 735.409H722.93C718.601 735.409 715.091 738.919 715.091 743.248V752.791C715.091 757.119 718.601 760.629 722.93 760.629Z" fill="#FFC56F"/>
<path d="M596.636 773.953H603.338C607.667 773.953 611.176 770.444 611.176 766.115V760.609C611.176 756.28 607.667 752.771 603.338 752.771H596.636C592.307 752.771 588.798 756.28 588.798 760.609V766.115C588.798 770.444 592.307 773.953 596.636 773.953Z" fill="#FFC56F"/>
<path d="M562.835 773.953H569.537C573.866 773.953 577.375 770.444 577.375 766.115V760.609C577.375 756.28 573.866 752.771 569.537 752.771H562.835C558.506 752.771 554.997 756.28 554.997 760.609V766.115C554.997 770.444 558.506 773.953 562.835 773.953Z" fill="#FFC56F"/>
<path d="M530.347 773.953H537.049C541.377 773.953 544.887 770.444 544.887 766.115V760.609C544.887 756.28 541.377 752.771 537.049 752.771H530.347C526.018 752.771 522.509 756.28 522.509 760.609V766.115C522.509 770.444 526.018 773.953 530.347 773.953Z" fill="#FFC56F"/>
<path d="M497.82 773.953H504.521C508.85 773.953 512.359 770.444 512.359 766.115V760.609C512.359 756.28 508.85 752.771 504.521 752.771H497.82C493.491 752.771 489.982 756.28 489.982 760.609V766.115C489.982 770.444 493.491 773.953 497.82 773.953Z" fill="#FFC56F"/>
<path d="M465.31 773.953H472.011C476.34 773.953 479.85 770.444 479.85 766.115V760.609C479.85 756.28 476.34 752.771 472.011 752.771H465.31C460.981 752.771 457.472 756.28 457.472 760.609V766.115C457.472 770.444 460.981 773.953 465.31 773.953Z" fill="#FFC56F"/>
<path d="M432.8 773.953H439.502C443.831 773.953 447.34 770.444 447.34 766.115V760.609C447.34 756.28 443.831 752.771 439.502 752.771H432.8C428.471 752.771 424.962 756.28 424.962 760.609V766.115C424.962 770.444 428.471 773.953 432.8 773.953Z" fill="#FFC56F"/>
<path d="M400.273 773.953H406.974C411.303 773.953 414.812 770.444 414.812 766.115V760.609C414.812 756.28 411.303 752.771 406.974 752.771H400.273C395.944 752.771 392.435 756.28 392.435 760.609V766.115C392.435 770.444 395.944 773.953 400.273 773.953Z" fill="#FFC56F"/>
<path d="M367.765 773.953H374.467C378.795 773.953 382.305 770.444 382.305 766.115V760.609C382.305 756.28 378.795 752.771 374.467 752.771H367.765C363.436 752.771 359.927 756.28 359.927 760.609V766.115C359.927 770.444 363.436 773.953 367.765 773.953Z" fill="#FFC56F"/>
<path d="M273.981 773.953H280.682C285.011 773.953 288.521 770.444 288.521 766.115V760.609C288.521 756.28 285.011 752.771 280.682 752.771H273.981C269.652 752.771 266.143 756.28 266.143 760.609V766.115C266.143 770.444 269.652 773.953 273.981 773.953Z" fill="#FFC56F"/>
<path d="M240.219 773.953H246.921C251.25 773.953 254.759 770.444 254.759 766.115V760.609C254.759 756.28 251.25 752.771 246.921 752.771H240.219C235.89 752.771 232.381 756.28 232.381 760.609V766.115C232.381 770.444 235.89 773.953 240.219 773.953Z" fill="#FFC56F"/>
<path d="M207.69 773.953H214.391C218.72 773.953 222.229 770.444 222.229 766.115V760.609C222.229 756.28 218.72 752.771 214.391 752.771H207.69C203.361 752.771 199.852 756.28 199.852 760.609V766.115C199.852 770.444 203.361 773.953 207.69 773.953Z" fill="#FFC56F"/>
<path d="M175.181 773.953H181.883C186.211 773.953 189.721 770.444 189.721 766.115V760.609C189.721 756.28 186.211 752.771 181.883 752.771H175.181C170.852 752.771 167.343 756.28 167.343 760.609V766.115C167.343 770.444 170.852 773.953 175.181 773.953Z" fill="#FFC56F"/>
<path d="M142.672 773.953H149.374C153.703 773.953 157.212 770.444 157.212 766.115V760.609C157.212 756.28 153.703 752.771 149.374 752.771H142.672C138.343 752.771 134.834 756.28 134.834 760.609V766.115C134.834 770.444 138.343 773.953 142.672 773.953Z" fill="#FFC56F"/>
<path d="M110.145 773.953H116.846C121.175 773.953 124.685 770.444 124.685 766.115V760.609C124.685 756.28 121.175 752.771 116.846 752.771H110.145C105.816 752.771 102.307 756.28 102.307 760.609V766.115C102.307 770.444 105.816 773.953 110.145 773.953Z" fill="#FFC56F"/>
<path d="M77.6361 773.953H84.3377C88.6665 773.953 92.1758 770.444 92.1758 766.115V760.609C92.1758 756.28 88.6665 752.771 84.3377 752.771H77.6361C73.3072 752.771 69.7979 756.28 69.7979 760.609V766.115C69.7979 770.444 73.3072 773.953 77.6361 773.953Z" fill="#FFC56F"/>
<path d="M45.1478 773.953H51.8494C56.1783 773.953 59.6875 770.444 59.6875 766.115V760.609C59.6875 756.28 56.1783 752.771 51.8494 752.771H45.1478C40.8189 752.771 37.3096 756.28 37.3096 760.609V766.115C37.3096 770.444 40.8189 773.953 45.1478 773.953Z" fill="#FFC56F"/>
<path d="M253.64 1128.41C275.568 1128.41 289.402 1120.34 289.402 1120.34C262.87 1120.34 253.64 1046.54 253.64 1046.52C253.64 1046.52 244.411 1120.34 217.879 1120.34C217.879 1120.34 231.733 1128.41 253.64 1128.41Z" fill="black"/>
<path d="M253.641 1173.4C271.909 1173.44 289.747 1167.86 304.745 1157.43C270.022 1157.43 253.641 1099.96 253.641 1099.96C253.641 1099.96 237.259 1157.43 202.556 1157.43C217.545 1167.86 235.378 1173.44 253.641 1173.4Z" fill="black"/>
<path d="M253.641 1211.85C275.544 1211.89 296.932 1205.21 314.915 1192.7C273.275 1192.7 253.641 1123.81 253.641 1123.81C253.641 1123.81 234.045 1192.7 192.386 1192.7C210.362 1205.21 231.744 1211.89 253.641 1211.85Z" fill="black"/>
<path d="M253.642 1277.75C304.06 1277.75 337.588 1251.53 337.588 1251.53C280.546 1251.53 253.642 1157.12 253.642 1157.12C253.642 1157.12 226.737 1251.53 169.715 1251.53C169.715 1251.53 203.242 1277.75 253.642 1277.75Z" fill="black"/>
<path d="M476.165 1173.89C484.795 1174.07 493.337 1172.14 501.051 1168.27C482.593 1168.27 476.185 1116.91 476.165 1116.89C476.165 1116.89 469.758 1168.27 451.279 1168.27C458.995 1172.14 467.536 1174.07 476.165 1173.89Z" fill="black"/>
<path d="M476.167 1205.13C488.88 1205.15 501.294 1201.27 511.732 1194.02C487.571 1194.02 476.167 1154.02 476.167 1154.02C476.167 1154.02 464.782 1194.02 440.621 1194.02C451.053 1201.27 463.46 1205.15 476.167 1205.13Z" fill="black"/>
<path d="M476.165 1231.89C491.407 1231.92 506.29 1227.27 518.804 1218.57C489.882 1218.57 476.165 1170.6 476.165 1170.6C476.165 1170.6 462.448 1218.57 433.525 1218.57C446.04 1227.27 460.923 1231.92 476.165 1231.89Z" fill="black"/>
<path d="M476.166 1277.75C497.051 1277.79 517.447 1271.42 534.599 1259.5C494.899 1259.5 476.166 1193.78 476.166 1193.78C476.166 1193.78 457.452 1259.5 417.752 1259.5C434.897 1271.42 455.286 1277.79 476.166 1277.75Z" fill="black"/>
<path d="M149.886 1217C158.515 1217.18 167.056 1215.25 174.772 1211.38C156.313 1211.38 149.886 1160.02 149.886 1160C149.886 1160 143.459 1211.38 125 1211.38C132.715 1215.25 141.257 1217.18 149.886 1217Z" fill="black"/>
<path d="M149.644 1245.1C162.357 1245.13 174.771 1241.25 185.209 1233.99C161.029 1233.99 149.644 1194 149.644 1194C149.644 1194 138.239 1233.99 114 1233.99C124.438 1241.25 136.853 1245.13 149.566 1245.1H149.644Z" fill="black"/>
<path d="M533.971 910.276C527.185 909.006 520.299 908.35 513.396 908.317C498.594 908.317 483.938 911.233 470.264 916.899C456.59 922.565 444.166 930.87 433.703 941.339C423.24 951.807 414.941 964.235 409.283 977.912C403.624 991.589 400.715 1006.25 400.723 1021.05V1277.75H441.873V1021.05C441.878 994.737 451.09 969.257 467.911 949.025C484.732 928.793 508.103 915.084 533.971 910.276Z" fill="#171717"/>
<path d="M193.992 910.276C187.207 909.006 180.321 908.35 173.417 908.317C158.616 908.317 143.959 911.233 130.286 916.899C116.612 922.565 104.188 930.87 93.7245 941.339C83.2611 951.807 74.9629 964.235 69.304 977.912C63.6451 991.589 60.7364 1006.25 60.7442 1021.05V1277.75H101.894V1021.05C101.9 994.737 111.111 969.257 127.932 949.025C144.754 928.793 168.124 915.084 193.992 910.276Z" fill="#171717"/>
<ellipse cx="661.222" cy="1338.61" rx="182.277" ry="74.1173" fill="white"/>
<ellipse cx="911.959" cy="1316.09" rx="182.277" ry="74.1173" fill="white"/>
<ellipse cx="253.5" cy="1340" rx="214.5" ry="74" fill="white"/>
<path d="M149.541 1272.29C164.817 1272.34 179.737 1267.69 192.279 1258.97C163.297 1258.97 149.639 1211 149.639 1211C149.639 1211 135.923 1258.97 107 1258.97C119.514 1267.67 134.397 1272.32 149.639 1272.29H149.541Z" fill="black"/>
<path d="M1488.42 265.673C1488.42 265.673 1191.36 307.687 1130.56 265.673C1069.76 223.659 394 265.673 394 265.673C394 265.673 953.366 265.213 993.319 284.339C1033.27 303.465 1488.42 400.117 1488.42 400.117L1488.42 265.673Z" fill="url(#paint5_linear_169_361)" fill-opacity="0.9"/>
</g>
<defs>
<linearGradient id="paint0_linear_169_361" x1="327.574" y1="541.32" x2="112.574" y2="752.498" gradientUnits="userSpaceOnUse">
<stop stop-color="white" stop-opacity="0"/>
<stop offset="0.08" stop-color="white" stop-opacity="0.12"/>
<stop offset="0.28" stop-color="white" stop-opacity="0.38"/>
<stop offset="0.46" stop-color="white" stop-opacity="0.6"/>
<stop offset="0.63" stop-color="white" stop-opacity="0.77"/>
<stop offset="0.78" stop-color="white" stop-opacity="0.9"/>
<stop offset="0.91" stop-color="white" stop-opacity="0.97"/>
<stop offset="1" stop-color="white"/>
</linearGradient>
<linearGradient id="paint1_linear_169_361" x1="1222.53" y1="769.465" x2="1709.31" y2="769.465" gradientUnits="userSpaceOnUse">
<stop stop-color="white"/>
<stop offset="0.16" stop-color="white" stop-opacity="0.79"/>
<stop offset="0.39" stop-color="white" stop-opacity="0.51"/>
<stop offset="0.6" stop-color="white" stop-opacity="0.29"/>
<stop offset="0.78" stop-color="white" stop-opacity="0.13"/>
<stop offset="0.92" stop-color="white" stop-opacity="0.04"/>
<stop offset="1" stop-color="white" stop-opacity="0"/>
</linearGradient>
<linearGradient id="paint2_linear_169_361" x1="728.186" y1="25.7451" x2="728.186" y2="330.566" gradientUnits="userSpaceOnUse">
<stop stop-color="#FAA3BF"/>
<stop offset="0.3125" stop-color="#D05A69"/>
</linearGradient>
<linearGradient id="paint3_linear_169_361" x1="529.799" y1="211.714" x2="529.799" y2="89.0529" gradientUnits="userSpaceOnUse">
<stop stop-color="white" stop-opacity="0"/>
<stop offset="0.14" stop-color="white" stop-opacity="0.22"/>
<stop offset="0.32" stop-color="white" stop-opacity="0.45"/>
<stop offset="0.48" stop-color="white" stop-opacity="0.65"/>
<stop offset="0.64" stop-color="white" stop-opacity="0.8"/>
<stop offset="0.78" stop-color="white" stop-opacity="0.91"/>
<stop offset="0.91" stop-color="white" stop-opacity="0.98"/>
<stop offset="1" stop-color="white"/>
</linearGradient>
<linearGradient id="paint4_linear_169_361" x1="180.176" y1="646.952" x2="865.956" y2="646.952" gradientUnits="userSpaceOnUse">
<stop stop-color="white" stop-opacity="0"/>
<stop offset="0.09" stop-color="white" stop-opacity="0.06"/>
<stop offset="0.27" stop-color="white" stop-opacity="0.21"/>
<stop offset="0.51" stop-color="white" stop-opacity="0.45"/>
<stop offset="0.81" stop-color="white" stop-opacity="0.77"/>
<stop offset="1" stop-color="white"/>
</linearGradient>
<linearGradient id="paint5_linear_169_361" x1="941.202" y1="271.535" x2="941.202" y2="355.943" gradientUnits="userSpaceOnUse">
<stop stop-color="white"/>
<stop offset="0.09" stop-color="white" stop-opacity="0.95"/>
<stop offset="0.26" stop-color="white" stop-opacity="0.81"/>
<stop offset="0.49" stop-color="white" stop-opacity="0.59"/>
<stop offset="0.76" stop-color="white" stop-opacity="0.28"/>
<stop offset="1" stop-color="white" stop-opacity="0"/>
</linearGradient>
<clipPath id="clip0_169_361">
<rect width="1440" height="1426" fill="white"/>
</clipPath>
</defs>
</svg>
