<svg width="451" height="308" viewBox="0 0 451 308" fill="none" xmlns="http://www.w3.org/2000/svg">
<rect x="0.712891" y="0.230957" width="449.806" height="307.204" fill="#C2C2C2"/>
<path d="M49.7059 171.146C49.7059 171.146 49.3785 171.103 48.7238 171.016C48.0692 170.928 47.2399 170.841 46.236 170.754C45.2322 170.666 44.1847 170.579 43.0936 170.492C42.0461 170.404 41.1077 170.361 40.2784 170.361C39.1873 170.361 38.0525 170.426 36.8741 170.557C35.7393 170.688 34.7573 170.819 33.928 170.95C33.1424 171.081 32.7496 171.146 32.7496 171.146L33.1424 168.135C34.67 167.829 35.7829 167.458 36.4813 167.022C37.2232 166.586 37.7033 165.844 37.9216 164.796C38.1398 163.749 38.2489 162.177 38.2489 160.082L38.2489 150.458L29.5416 150.458L29.0834 150L29.5416 147.905L38.2489 147.905L38.3144 135.008C38.3144 133.611 38.1616 132.673 37.8561 132.193C37.5506 131.713 36.8959 131.473 35.8921 131.473C35.4992 131.473 35.0191 131.495 34.4518 131.538C33.928 131.582 33.6661 131.604 33.6661 131.604L33.5352 131.342L33.9935 128.461C33.9935 128.461 34.2335 128.483 34.7136 128.527C35.1937 128.527 35.7829 128.548 36.4813 128.592C37.2232 128.592 37.987 128.614 38.7727 128.658C39.5583 128.658 40.2566 128.658 40.8676 128.658C41.6096 128.658 42.5262 128.658 43.6173 128.658C44.7521 128.614 45.8651 128.57 46.9562 128.527C48.0473 128.483 48.9639 128.461 49.7059 128.461C50.4478 128.417 50.8188 128.396 50.8188 128.396C55.0088 128.396 58.7187 129.247 61.9484 130.949C65.2218 132.607 67.7751 134.921 69.6082 137.889C71.4413 140.813 72.3579 144.174 72.3579 147.971C72.3579 151.244 71.7687 154.277 70.5902 157.071C69.4555 159.864 67.8406 162.33 65.7456 164.469C63.6942 166.564 61.2937 168.2 58.5441 169.379C55.8381 170.557 52.892 171.146 49.7059 171.146ZM43.3554 147.905L54.485 147.905L54.8124 148.363L54.4196 150.458L43.29 150.458L42.9626 161.784C42.9626 163.356 43.1809 164.578 43.6173 165.451C44.0974 166.324 44.9267 166.935 46.1051 167.284C47.3272 167.633 49.0294 167.808 51.2116 167.808C55.9253 167.808 59.6352 166.193 62.3412 162.963C65.0473 159.69 66.4003 155.216 66.4003 149.542C66.4003 145.701 65.6147 142.45 64.0434 139.787C62.5158 137.125 60.2463 135.095 57.2347 133.699C54.2668 132.302 50.6224 131.604 46.3015 131.604C45.385 131.604 44.7739 131.691 44.4684 131.865C44.1629 132.04 43.9883 132.433 43.9447 133.044L43.3554 147.905Z" fill="black"/>
<path d="M48.0491 246.727L48.3764 243.912C49.904 243.65 50.9515 243.301 51.5189 242.865C52.1299 242.385 52.4791 241.643 52.5664 240.639C52.6537 239.635 52.6973 238.217 52.6973 236.383C51.3879 236.383 50.0786 236.383 48.7692 236.383C47.4599 236.383 46.1505 236.405 44.8411 236.449C43.5318 236.449 42.2224 236.449 40.913 236.449L40.5857 235.991L40.913 234.092L52.5009 234.092C52.3263 233.525 52.1299 232.979 51.9117 232.455C51.7371 231.888 51.4752 231.277 51.1261 230.622L49.5548 227.807C48.1145 227.807 46.6742 227.829 45.2339 227.873C43.7936 227.873 42.3533 227.873 40.913 227.873L40.5857 227.414L40.913 225.516L48.2455 225.516C47.4162 223.988 46.7179 222.657 46.1505 221.522C45.5831 220.344 45.0157 219.362 44.4483 218.576C43.8809 217.747 43.1826 217.114 42.3533 216.677C41.5241 216.241 40.4111 216.001 39.0144 215.957C38.9708 215.87 38.949 215.783 38.949 215.695C38.949 215.565 38.9272 215.455 38.8835 215.368C38.9708 214.975 39.0581 214.583 39.1454 214.19C39.2327 213.797 39.2981 213.404 39.3418 213.011C39.3418 213.011 39.6909 213.033 40.3893 213.077C41.0876 213.077 41.9387 213.099 42.9425 213.142C43.9464 213.186 44.8629 213.208 45.6922 213.208C46.3469 213.208 47.0234 213.186 47.7217 213.142C48.4637 213.099 49.162 213.055 49.8167 213.011C50.515 212.968 51.1479 212.924 51.7153 212.88C52.2827 212.837 52.7191 212.815 53.0247 212.815C53.3738 212.771 53.5484 212.749 53.5484 212.749L53.8757 213.404L53.6793 215.63C51.8462 215.805 50.6896 216.001 50.2095 216.219C49.7731 216.437 49.5548 216.765 49.5548 217.201C49.5548 217.507 49.6203 217.834 49.7512 218.183C49.8822 218.532 50.0786 218.991 50.3405 219.558C50.3405 219.558 50.3186 219.558 50.275 219.558L55.5124 229.837L61.601 219.427C61.8192 219.034 62.0156 218.642 62.1902 218.249C62.3648 217.856 62.4521 217.441 62.4521 217.005C62.4521 216.743 62.2993 216.547 61.9938 216.416C61.7319 216.241 61.3391 216.088 60.8154 215.957C60.2916 215.826 59.6806 215.739 58.9823 215.695C58.9823 215.608 58.9604 215.521 58.9168 215.434C58.9168 215.346 58.9168 215.281 58.9168 215.237L59.2441 212.815C59.2441 212.815 59.6151 212.859 60.3571 212.946C61.0991 212.989 61.972 213.055 62.9758 213.142C63.9797 213.186 64.8744 213.208 65.66 213.208C66.402 213.208 67.1658 213.186 67.9514 213.142C68.7807 213.099 69.479 213.077 70.0464 213.077C70.6138 213.033 70.8975 213.011 70.8975 213.011L71.2248 213.47L70.832 215.892C69.6536 216.066 68.737 216.328 68.0824 216.677C67.4713 217.027 66.9039 217.529 66.3802 218.183C65.9001 218.838 65.2672 219.755 64.4816 220.933L61.7319 225.385C62.9977 225.341 64.2634 225.319 65.5291 225.319C66.7948 225.319 68.0387 225.297 69.2608 225.254L69.6536 225.843L69.4572 227.807L60.2262 227.807L57.9348 231.539C57.7602 231.844 57.6074 232.237 57.4765 232.717C57.3892 233.197 57.3237 233.656 57.2801 234.092C58.6331 234.048 59.9643 234.027 61.2737 234.027C62.6267 233.983 63.9579 233.939 65.2672 233.896C66.6202 233.852 67.9514 233.83 69.2608 233.83L69.6536 234.419L69.4572 236.383L57.2146 236.383C57.2146 236.994 57.1928 237.627 57.1492 238.282C57.1492 238.937 57.1492 239.57 57.1492 240.181C57.1492 241.403 57.2801 242.232 57.542 242.668C57.8475 243.105 58.4149 243.323 59.2441 243.323C59.4624 243.323 59.6588 243.323 59.8334 243.323C60.0516 243.279 60.2698 243.258 60.488 243.258C60.9681 243.214 61.3828 243.192 61.7319 243.192C62.0811 243.192 62.2557 243.192 62.2557 243.192L62.3866 243.716L61.7974 246.204C61.7974 246.204 61.5355 246.182 61.0118 246.138C60.5317 246.138 59.8988 246.138 59.1132 246.138C58.3712 246.138 57.5856 246.116 56.7563 246.073C55.9271 246.073 55.2069 246.073 54.5959 246.073C53.9412 246.073 53.2211 246.095 52.4354 246.138C51.6935 246.226 50.9951 246.313 50.3405 246.4C49.6858 246.487 49.1402 246.553 48.7037 246.597C48.2673 246.684 48.0491 246.727 48.0491 246.727Z" fill="black"/>
<path d="M142.125 244.033C142.169 245.342 141.711 246.739 140.75 248.223C139.834 249.751 138.546 251.038 136.888 252.086C135.229 253.133 133.352 253.657 131.257 253.657C129.817 253.657 128.508 253.417 127.329 252.937C126.195 252.5 125.278 251.889 124.58 251.104C123.925 250.318 123.598 249.423 123.598 248.419C123.598 247.416 123.707 246.324 123.925 245.146C124.143 243.924 124.361 243.16 124.58 242.855L125.562 242.855C125.998 245.168 126.915 247.023 128.311 248.419C129.708 249.86 131.367 250.58 133.287 250.58C134.684 250.58 135.862 250.122 136.822 249.205C137.826 248.332 138.328 247.219 138.328 245.866C138.328 244.513 137.892 243.291 137.019 242.2C136.189 241.065 135.12 239.996 133.811 238.992C132.501 237.988 131.083 236.962 129.555 235.915C128.071 234.867 126.675 233.776 125.365 232.642C124.056 231.463 122.965 230.154 122.092 228.713C121.263 227.273 120.848 225.658 120.848 223.869C120.848 222.559 121.175 221.25 121.83 219.941C122.485 218.588 123.423 217.3 124.645 216.078C125.911 214.856 127.373 213.787 129.032 212.87L129.293 215.096C127.591 216.056 126.369 217.06 125.627 218.108C124.885 219.111 124.514 220.312 124.514 221.708C124.514 223.018 124.929 224.262 125.758 225.44C126.631 226.575 127.722 227.71 129.032 228.844C130.385 229.936 131.803 231.049 133.287 232.183C134.815 233.274 136.233 234.431 137.542 235.653C138.895 236.875 139.987 238.185 140.816 239.581C141.689 240.934 142.125 242.418 142.125 244.033ZM141.34 242.331C142.867 241.458 144.024 240.454 144.809 239.319C145.595 238.185 145.988 236.897 145.988 235.457C145.988 234.235 145.551 233.078 144.678 231.987C143.849 230.852 142.758 229.739 141.405 228.648C140.096 227.513 138.699 226.4 137.215 225.309C135.731 224.174 134.313 223.018 132.96 221.839C131.65 220.617 130.559 219.352 129.686 218.042C128.857 216.689 128.442 215.271 128.442 213.787C128.442 212.085 128.879 210.513 129.752 209.073C130.625 207.633 131.781 206.476 133.222 205.603C134.705 204.73 136.32 204.294 138.066 204.294C139.201 204.294 140.248 204.447 141.209 204.752C142.213 205.058 143.02 205.45 143.631 205.931C144.242 206.411 144.548 206.934 144.548 207.502C144.548 208.025 144.482 208.658 144.351 209.4C144.22 210.099 144.046 210.753 143.827 211.364C143.653 211.975 143.478 212.39 143.304 212.608L142.387 212.608C141.776 211.081 140.838 209.859 139.572 208.942C138.306 207.982 137.019 207.502 135.709 207.502C134.662 207.502 133.789 207.895 133.091 208.68C132.392 209.422 132.043 210.382 132.043 211.561C132.043 212.914 132.458 214.158 133.287 215.292C134.16 216.427 135.273 217.497 136.626 218.5C137.979 219.504 139.397 220.53 140.881 221.577C142.409 222.581 143.849 223.651 145.202 224.785C146.555 225.92 147.646 227.186 148.476 228.583C149.349 229.936 149.785 231.463 149.785 233.165C149.785 234.693 149.414 236.22 148.672 237.748C147.974 239.232 147.014 240.585 145.791 241.807C144.569 243.029 143.151 244.011 141.536 244.753L141.34 242.331Z" fill="black"/>
<path d="M229.175 248.311C226.426 248.311 223.829 247.787 221.385 246.739C218.984 245.692 216.867 244.273 215.034 242.484C213.245 240.651 211.826 238.534 210.779 236.133C209.775 233.689 209.273 231.092 209.273 228.343C209.273 225.593 209.775 223.018 210.779 220.617C211.826 218.173 213.245 216.056 215.034 214.267C216.867 212.434 218.984 210.994 221.385 209.946C223.829 208.899 226.426 208.375 229.175 208.375C231.925 208.375 234.5 208.899 236.901 209.946C239.345 210.994 241.483 212.434 243.317 214.267C245.15 216.056 246.568 218.173 247.572 220.617C248.62 223.018 249.143 225.593 249.143 228.343C249.143 231.092 248.62 233.689 247.572 236.133C246.568 238.534 245.15 240.651 243.317 242.484C241.483 244.273 239.345 245.692 236.901 246.739C234.5 247.787 231.925 248.311 229.175 248.311ZM228.717 238.949C226.491 238.949 224.658 238.49 223.218 237.574C221.778 236.614 220.686 235.37 219.944 233.842C219.246 232.271 218.897 230.569 218.897 228.736C218.897 226.553 219.355 224.589 220.272 222.843C221.232 221.098 222.563 219.723 224.265 218.719C225.968 217.715 227.953 217.213 230.223 217.213C231.227 217.213 232.209 217.279 233.169 217.409C234.129 217.54 234.915 217.671 235.526 217.802C236.181 217.933 236.508 217.999 236.508 217.999L236.639 218.261C236.639 218.261 236.508 218.828 236.246 219.963C236.028 221.098 235.875 222.494 235.788 224.153L233.627 224.284C233.627 224.284 233.627 224.109 233.627 223.76C233.671 223.411 233.693 223.062 233.693 222.712C233.693 221.883 233.387 221.207 232.776 220.683C232.165 220.116 231.074 219.832 229.503 219.832C227.582 219.832 226.055 220.487 224.92 221.796C223.785 223.105 223.218 225.047 223.218 227.623C223.218 230.285 223.742 232.445 224.789 234.104C225.837 235.762 227.451 236.592 229.634 236.592C231.161 236.592 232.318 236.199 233.104 235.413C233.933 234.628 234.5 233.384 234.806 231.682L236.901 231.551C236.901 231.551 236.835 231.856 236.704 232.467C236.573 233.078 236.442 233.82 236.312 234.693C236.181 235.566 236.093 236.417 236.05 237.246L235.788 237.705C235.788 237.705 235.482 237.814 234.871 238.032C234.26 238.207 233.431 238.403 232.383 238.621C231.336 238.839 230.114 238.949 228.717 238.949ZM229.175 245.692C231.532 245.692 233.758 245.255 235.853 244.382C237.948 243.466 239.781 242.222 241.353 240.651C242.924 239.036 244.146 237.181 245.019 235.086C245.935 232.991 246.394 230.743 246.394 228.343C246.394 225.942 245.935 223.694 245.019 221.599C244.146 219.504 242.924 217.671 241.353 216.1C239.781 214.485 237.948 213.241 235.853 212.368C233.758 211.452 231.532 210.994 229.175 210.994C226.819 210.994 224.593 211.452 222.498 212.368C220.446 213.241 218.635 214.485 217.064 216.1C215.493 217.671 214.249 219.504 213.332 221.599C212.459 223.694 212.023 225.942 212.023 228.343C212.023 230.743 212.459 232.991 213.332 235.086C214.249 237.181 215.493 239.036 217.064 240.651C218.635 242.222 220.446 243.466 222.498 244.382C224.593 245.255 226.819 245.692 229.175 245.692Z" fill="black"/>
<path d="M309.295 240.54C306.72 239.056 304.756 237.005 303.403 234.386L301.439 235.368L303.665 228.363C304.319 230.764 305.039 232.444 305.825 233.404C306.654 234.364 307.658 234.845 308.837 234.845C310.757 234.845 312.415 233.972 313.812 232.226C315.252 230.48 316.54 228.08 317.675 225.024C317.718 222.275 317.849 219.7 318.068 217.299C318.286 214.899 318.548 212.76 318.853 210.883L320.555 209.77C321.341 210.207 322.039 210.687 322.65 211.211C323.305 211.734 323.894 212.323 324.418 212.978C323.327 217.299 322.301 221.074 321.341 224.304C320.424 227.534 319.552 230.327 318.722 232.684L318.068 232.357C317.151 234.452 316.234 236.11 315.318 237.332C314.445 238.511 313.507 239.34 312.503 239.82C311.543 240.3 310.473 240.54 309.295 240.54ZM300.718 255.794L299.671 255.074L301.242 222.798L301.897 230.982C301.024 228.101 300.391 225.635 299.998 223.584C299.606 221.489 299.431 219.46 299.475 217.495C299.518 215.531 299.715 213.284 300.064 210.752L301.373 209.901L302.29 209.901L305.825 211.734L303.01 234.845C303.141 238.293 303.49 241.631 304.057 244.861C304.625 248.091 305.323 251.386 306.152 254.747C305.585 254.922 304.799 255.096 303.795 255.271C302.792 255.445 301.766 255.62 300.718 255.794ZM325.662 240.802C323.261 240.802 321.472 240.082 320.293 238.642C319.115 237.201 318.46 234.866 318.329 231.637L318.002 222.537L320.817 222.34L320.621 227.643C320.577 229.694 320.817 231.287 321.341 232.422C321.865 233.513 322.781 234.168 324.091 234.386C325.4 234.605 327.168 234.43 329.394 233.863L329.721 234.386C329.459 235.696 329.001 236.896 328.346 237.987C327.691 239.078 326.797 240.017 325.662 240.802Z" fill="black"/>
<path d="M384.756 231.986L385.018 229.695C386.284 229.607 387.222 229.346 387.833 228.909C388.444 228.429 388.75 227.578 388.75 226.356L388.75 212.673C388.75 211.669 388.575 211.036 388.226 210.774C387.877 210.512 387.331 210.382 386.589 210.382C386.153 210.382 385.673 210.425 385.149 210.512C384.669 210.556 384.429 210.578 384.429 210.578L384.232 210.382L384.429 208.287C384.691 208.243 385.302 208.177 386.262 208.09C387.266 207.959 388.27 207.806 389.274 207.632C390.67 207.414 391.718 207.261 392.416 207.174C393.158 207.043 393.66 206.955 393.922 206.912C394.227 206.868 394.38 206.846 394.38 206.846L394.707 207.828C394.227 208.265 393.856 208.723 393.594 209.203C393.376 209.64 393.223 210.294 393.136 211.167C393.093 212.084 393.049 213.24 393.005 214.637C392.962 215.99 392.918 217.408 392.874 218.892C392.831 220.376 392.787 221.795 392.743 223.148C392.743 224.457 392.743 225.548 392.743 226.421C392.743 227.469 392.874 228.211 393.136 228.647C393.442 229.04 393.965 229.236 394.707 229.236C395.188 229.236 395.646 229.215 396.082 229.171C396.562 229.127 396.802 229.105 396.802 229.105L396.933 229.302L396.475 231.659C396.475 231.659 396.126 231.659 395.428 231.659C394.773 231.615 393.987 231.593 393.071 231.593C392.198 231.55 391.412 231.528 390.714 231.528C389.928 231.528 389.055 231.571 388.095 231.659C387.179 231.702 386.393 231.768 385.738 231.855C385.084 231.942 384.756 231.986 384.756 231.986ZM389.732 255.227L387.244 253.983L386.917 253.198C386.917 253.198 387.222 252.718 387.833 251.757C388.444 250.841 389.252 249.597 390.256 248.026C391.303 246.455 392.46 244.709 393.725 242.788C394.991 240.824 396.279 238.838 397.588 236.831C398.897 234.779 400.141 232.837 401.32 231.004L418.08 204.62L420.633 205.864L420.96 206.781C420.96 206.781 420.546 207.392 419.716 208.614C418.931 209.792 417.883 211.364 416.574 213.328C415.264 215.292 413.846 217.452 412.318 219.809C410.791 222.122 409.263 224.435 407.736 226.749C406.252 229.062 404.942 231.135 403.808 232.968C402.629 234.845 401.385 236.831 400.076 238.926C398.81 240.977 397.544 242.985 396.279 244.949C395.057 246.869 393.944 248.593 392.94 250.121C391.98 251.692 391.194 252.936 390.583 253.852C390.016 254.769 389.732 255.227 389.732 255.227ZM417.752 249.466L417.425 249.073C417.425 249.073 417.447 248.724 417.49 248.026C417.534 247.284 417.578 246.389 417.621 245.342C417.665 244.25 417.687 243.203 417.687 242.199L407.605 242.003L407.736 239.777L418.996 224.392L419.193 224.326L421.746 224.719L421.746 239.057L425.347 239.057L425.674 239.515L425.281 242.396L421.746 242.265C421.789 243.836 421.833 245.298 421.877 246.651C421.964 247.96 422.008 248.615 422.008 248.615L421.746 249.008L417.752 249.466ZM411.402 239.057L417.687 239.057L417.687 230.873L417.294 230.873L411.402 239.057Z" fill="black"/>
<path d="M144.98 171.847L144.783 171.388L145.045 168.835C146.573 168.704 147.751 168.551 148.58 168.377C149.41 168.202 149.999 167.962 150.348 167.657C150.697 167.307 150.872 166.871 150.872 166.347C150.872 165.911 150.828 165.431 150.741 164.907C150.654 164.383 150.501 163.816 150.283 163.205L148.122 156.069C147.336 156.025 146.224 156.003 144.783 156.003C143.387 156.003 142.23 156.003 141.313 156.003C140.048 156.003 138.716 156.069 137.32 156.2C135.967 156.331 134.919 156.44 134.177 156.527L131.755 163.336C131.362 164.514 131.166 165.365 131.166 165.889C131.166 166.849 131.471 167.547 132.082 167.984C132.737 168.377 133.741 168.573 135.094 168.573L138.826 168.573L138.957 168.835L138.564 171.65C138.564 171.65 138.105 171.607 137.189 171.519C136.272 171.432 135.116 171.345 133.719 171.257C132.322 171.214 130.904 171.192 129.464 171.192C128.416 171.192 127.325 171.192 126.19 171.192C125.099 171.236 124.161 171.279 123.375 171.323C122.633 171.366 122.262 171.388 122.262 171.388L122.786 168.311C124.008 168.18 124.99 167.766 125.732 167.067C126.474 166.369 127.194 165.103 127.892 163.27L140.659 129.816L144.783 128.703L145.307 128.703C145.307 128.703 145.438 129.227 145.7 130.274C146.005 131.278 146.398 132.697 146.878 134.53C147.402 136.319 147.991 138.392 148.646 140.749C149.344 143.062 150.064 145.528 150.806 148.147C151.592 150.766 152.399 153.428 153.229 156.134C154.058 158.797 154.887 161.35 155.716 163.794C156.24 165.409 156.938 166.544 157.811 167.198C158.728 167.853 160.125 168.268 162.001 168.442L162.132 168.704L161.674 171.388C161.674 171.388 161.238 171.366 160.365 171.323C159.535 171.279 158.575 171.236 157.484 171.192C156.393 171.192 155.476 171.192 154.734 171.192C153.076 171.192 151.483 171.236 149.955 171.323C148.471 171.454 147.271 171.563 146.354 171.65C145.438 171.781 144.98 171.847 144.98 171.847ZM135.356 153.319L141.117 153.319C141.99 153.319 143.037 153.275 144.259 153.188C145.482 153.101 146.464 153.035 147.206 152.992L142.034 135.839L141.575 135.839L135.356 153.319ZM139.48 125.168L138.957 124.84L138.564 123.269C140.091 122.483 141.619 121.676 143.146 120.847C144.718 119.974 146.136 119.188 147.402 118.49C148.668 117.792 149.672 117.224 150.413 116.788C151.199 116.351 151.592 116.133 151.592 116.133L152.181 116.526L153.229 119.668L152.967 120.323C152.967 120.323 152.596 120.454 151.854 120.716C151.112 120.978 150.086 121.327 148.777 121.763C147.511 122.2 146.071 122.724 144.456 123.335C142.841 123.902 141.182 124.513 139.48 125.168Z" fill="black"/>
<path d="M221.434 168.2L219.339 167.283L237.016 133.502L239.176 134.418L221.434 168.2ZM216.066 178.282L214.298 177.889L214.167 177.235L219.339 167.283L221.434 168.2L216.066 178.282ZM239.176 134.418L237.016 133.502L241.206 125.515L243.104 125.973L243.301 126.759L239.176 134.418ZM227.916 172.652C224.337 172.652 221.172 171.801 218.423 170.099C215.717 168.396 213.6 166.018 212.072 162.963C210.545 159.907 209.781 156.394 209.781 152.422C209.781 149.192 210.326 146.181 211.418 143.388C212.509 140.594 214.036 138.15 216 136.055C217.964 133.96 220.256 132.323 222.874 131.145C225.493 129.967 228.308 129.377 231.32 129.377C234.986 129.377 238.194 130.228 240.944 131.931C243.737 133.633 245.919 136.011 247.491 139.067C249.062 142.078 249.847 145.57 249.847 149.542C249.847 152.815 249.28 155.848 248.145 158.642C247.054 161.435 245.505 163.879 243.497 165.974C241.533 168.069 239.22 169.706 236.557 170.884C233.895 172.063 231.014 172.652 227.916 172.652ZM229.945 169.313C232.738 169.313 235.183 168.593 237.278 167.152C239.373 165.712 241.009 163.726 242.188 161.195C243.41 158.62 244.021 155.652 244.021 152.291C244.021 148.538 243.388 145.242 242.122 142.405C240.856 139.569 239.111 137.343 236.885 135.728C234.659 134.113 232.062 133.305 229.094 133.305C226.388 133.305 224.009 134.026 221.958 135.466C219.907 136.906 218.292 138.914 217.113 141.489C215.979 144.02 215.411 146.966 215.411 150.327C215.411 154.037 216.022 157.332 217.244 160.213C218.466 163.05 220.168 165.276 222.351 166.891C224.577 168.506 227.108 169.313 229.945 169.313Z" fill="black"/>
<path d="M305.966 171.2C308.541 170.982 310.243 170.677 311.072 170.284C311.902 169.847 312.316 169.04 312.316 167.861C312.316 167.119 312.251 166.399 312.12 165.701C312.032 164.959 311.945 164.239 311.858 163.54L310.679 155.488L304.198 156.012L298.24 156.666L293.592 165.701C293.199 166.443 292.916 167.054 292.741 167.534C292.61 167.971 292.545 168.363 292.545 168.712C292.545 169.454 292.828 170.022 293.396 170.415C294.007 170.764 294.923 170.938 296.145 170.938L299.877 170.938L299.55 174.015C299.55 174.015 299.266 173.994 298.699 173.95C298.175 173.906 297.477 173.841 296.604 173.754C295.731 173.71 294.749 173.666 293.658 173.623C292.61 173.579 291.563 173.557 290.515 173.557C290.035 173.557 289.446 173.579 288.748 173.623C288.049 173.666 287.416 173.71 286.849 173.754C286.325 173.797 286.063 173.819 286.063 173.819L285.605 171.528C285.605 171.528 286.042 171.004 286.914 169.956C287.831 168.865 288.769 167.425 289.73 165.635L305.9 135.716C305.813 135.324 305.638 135.062 305.377 134.931C305.115 134.756 304.744 134.669 304.264 134.669C303.871 134.669 303.391 134.691 302.823 134.734C302.299 134.778 302.038 134.8 302.038 134.8L301.907 134.538L302.365 131.657C302.365 131.657 302.605 131.657 303.085 131.657C303.609 131.657 304.329 131.679 305.246 131.723C306.162 131.767 307.253 131.81 308.519 131.854C309.785 131.854 311.203 131.854 312.774 131.854C315.35 131.854 317.641 131.854 319.649 131.854C321.656 131.81 323.424 131.767 324.952 131.723C326.479 131.636 327.832 131.548 329.011 131.461C330.233 131.33 331.324 131.199 332.284 131.068L332.48 131.461C332.48 131.461 332.371 131.963 332.153 132.967C331.978 133.927 331.76 135.236 331.498 136.895C331.28 138.51 331.106 140.321 330.975 142.329L327.832 142.591C327.832 142.591 327.854 142.241 327.898 141.543C327.941 140.801 327.963 140.212 327.963 139.775C327.963 138.335 327.745 137.288 327.308 136.633C326.916 135.978 325.999 135.564 324.559 135.389C323.118 135.215 320.827 135.127 317.685 135.127C315.677 135.127 314.411 135.236 313.887 135.455C313.407 135.673 313.145 136.24 313.102 137.157L315.131 152.084L322.857 151.363L328.88 150.512L329.141 150.84L328.29 154.309L322.66 154.506L315.524 155.095L317.357 166.159C317.619 167.818 318.165 168.974 318.994 169.629C319.823 170.284 321.111 170.611 322.857 170.611C325.213 170.611 327.112 170.524 328.552 170.349C329.993 170.175 331.084 169.825 331.826 169.302C332.611 168.778 333.179 167.992 333.528 166.945C333.921 165.854 334.248 164.413 334.51 162.624L337.39 162.297L337.587 162.624C337.587 162.624 337.478 163.169 337.26 164.261C337.041 165.308 336.801 166.661 336.539 168.32C336.278 169.978 336.037 171.746 335.819 173.623L335.492 174.015C335.492 174.015 334.903 173.994 333.724 173.95C332.546 173.906 331.018 173.841 329.141 173.754C327.308 173.71 325.388 173.666 323.38 173.623C321.373 173.579 319.539 173.557 317.881 173.557L315.655 173.557C313.996 173.557 312.425 173.601 310.941 173.688C309.457 173.819 308.257 173.928 307.341 174.015C306.424 174.146 305.966 174.212 305.966 174.212L305.835 173.754L305.966 171.2ZM305.507 152.935L310.287 152.542L308.323 138.27L307.733 138.27L300.008 153.262L305.507 152.935Z" fill="black"/>
<path d="M61.4492 95.7856C59.3106 95.7856 57.4993 95.4583 56.0153 94.8036C54.575 94.1053 53.8549 93.276 53.8549 92.3158C53.8549 91.8793 53.9858 91.312 54.2477 90.6136C54.5095 89.8717 54.8369 89.1297 55.2297 88.3877C55.6225 87.6457 55.9935 87.0783 56.3427 86.6855L57.2592 86.6855C57.2592 88.6496 57.8048 90.1772 58.8959 91.2683C59.9871 92.3594 61.5147 92.905 63.4787 92.905C64.7881 92.905 65.9447 92.3594 66.9485 91.2683C67.9524 90.1335 68.4543 88.8678 68.4543 87.4711C68.4543 86.0745 67.9742 84.8742 67.014 83.8704C66.0538 82.8665 64.8535 81.9282 63.4132 81.0553C61.9729 80.1387 60.5326 79.2003 59.0923 78.2401C57.652 77.2363 56.4518 76.1015 55.4916 74.8358C54.5314 73.5701 54.0513 72.0425 54.0513 70.253C54.0513 69.0309 54.335 67.9398 54.9024 66.9796C55.4697 65.9757 56.1681 65.0592 56.9973 64.2299C57.8703 63.357 58.7432 62.5277 59.6161 61.7421C60.489 60.9129 61.2091 60.0836 61.7765 59.2543C62.3439 58.3814 62.6276 57.4649 62.6276 56.5047C62.6276 54.5842 61.8856 53.0785 60.4017 51.9873C58.9177 50.8526 56.8882 50.2852 54.3131 50.2852C52.6546 50.2852 51.2798 50.7216 50.1886 51.5945C49.0975 52.4674 48.2901 53.7986 47.7663 55.5881C47.2426 57.3339 46.9589 59.6035 46.9152 62.3968L46.5224 88.5841C46.4351 90.9846 47.2862 92.1849 49.0757 92.1849C50.0359 92.1849 50.7779 92.1849 51.3016 92.1849C51.869 92.1412 52.1527 92.1194 52.1527 92.1194L52.2836 92.3813L51.8253 95.1309C51.8253 95.1309 51.5853 95.1091 51.1052 95.0655C50.6251 95.0655 50.0141 95.0655 49.2721 95.0655C48.5738 95.0655 47.8536 95.0436 47.1116 95C46.4133 95 45.8241 95 45.344 95C44.4274 95 43.5327 95 42.6598 95C41.7869 95.0436 41.0013 95.0873 40.3029 95.1309C39.6046 95.1746 39.0372 95.1964 38.6008 95.1964C38.2079 95.2401 38.0115 95.2619 38.0115 95.2619L38.3389 92.7086C39.8665 92.4904 40.8703 92.0539 41.3504 91.3992C41.8305 90.7009 42.0706 89.5443 42.0706 87.9294L42.0706 71.1695C42.0269 70.1657 41.6996 69.4892 41.0885 69.14C40.5212 68.7472 39.4737 68.529 37.9461 68.4853L37.6842 68.0925L38.1425 65.8666L42.0706 65.1465C42.0706 59.2543 43.4018 54.6715 46.0641 51.3981C48.7265 48.0811 52.4364 46.4225 57.1937 46.4225C58.9396 46.4225 60.5545 46.8153 62.0384 47.601C63.566 48.3429 64.7881 49.325 65.7046 50.547C66.6648 51.7255 67.1449 53.013 67.1449 54.4097C67.1449 55.8936 66.8612 57.203 66.2938 58.3378C65.7701 59.4289 65.0936 60.4327 64.2643 61.3493C63.4351 62.2222 62.6058 63.0515 61.7765 63.8371C60.9473 64.6227 60.2489 65.4302 59.6815 66.2594C59.1578 67.0887 58.8959 68.0052 58.8959 69.0091C58.8959 70.1439 59.376 71.1695 60.3362 72.0861C61.2964 72.959 62.4749 73.8319 63.8715 74.7048C65.3118 75.5341 66.7303 76.4288 68.1269 77.389C69.5236 78.3492 70.702 79.484 71.6622 80.7934C72.6224 82.0591 73.1025 83.5867 73.1025 85.3762C73.1025 87.2093 72.557 88.9333 71.4658 90.5482C70.4183 92.1194 68.9999 93.3851 67.2104 94.3453C65.4646 95.3055 63.5442 95.7856 61.4492 95.7856Z" fill="black"/>
<path d="M137.73 96.8742C136.246 96.8742 134.828 96.6559 133.475 96.2195C132.122 95.783 131.031 95.1065 130.202 94.19C129.372 93.2734 128.958 92.1168 128.958 90.7202C128.958 89.8472 129.198 88.8434 129.678 87.7086C130.202 86.5738 130.791 85.6354 131.445 84.8935L132.427 84.8935C132.427 87.8177 132.995 90.0218 134.13 91.5058C135.308 93.0334 136.836 93.7972 138.712 93.7972C140.545 93.7972 141.942 93.3825 142.902 92.5533C143.863 91.724 144.495 90.3928 144.801 88.5597C145.15 86.7266 145.325 84.2824 145.325 81.2273L145.325 52.1593C145.281 51.7229 145.194 51.461 145.063 51.3737C144.932 51.2864 144.43 51.2428 143.557 51.2428C141.375 51.2428 139.76 52.1375 138.712 53.927C137.665 55.7164 137.141 58.0297 137.141 60.8666C137.141 64.0964 137.512 66.7588 138.254 68.8537C138.996 70.9487 140.131 73.0437 141.658 75.1387L141.658 76.1207C138.865 75.8589 136.246 75.1605 133.802 74.0257C131.402 72.891 129.46 71.2324 127.976 69.0502C126.492 66.8679 125.75 64.14 125.75 60.8666C125.75 58.5098 126.295 56.3711 127.386 54.4507C128.521 52.4867 130.114 50.9373 132.166 49.8025C134.261 48.624 136.727 48.0348 139.563 48.0348C141.222 48.0348 142.837 48.0785 144.408 48.1658C145.979 48.2531 147.18 48.2967 148.009 48.2967C148.62 48.2967 149.384 48.2967 150.3 48.2967C151.217 48.2531 152.112 48.2312 152.984 48.2312C153.901 48.1876 154.665 48.1658 155.276 48.1658C155.887 48.1221 156.192 48.1003 156.192 48.1003L155.8 50.85L155.669 51.1118C153.661 51.0246 152.308 51.1991 151.61 51.6356C150.911 52.072 150.519 52.8795 150.431 54.0579C150.3 54.8435 150.191 56.0656 150.104 57.7241C150.017 59.3827 149.951 61.2594 149.907 63.3544C149.864 65.4494 149.82 67.588 149.777 69.7703C149.777 71.9089 149.755 73.8948 149.711 75.7279C149.711 77.5174 149.711 78.914 149.711 79.9179C149.711 82.5803 149.558 84.9589 149.253 87.0539C148.947 89.1489 148.38 90.9166 147.551 92.3569C146.721 93.8408 145.521 94.9538 143.95 95.6957C142.379 96.4814 140.305 96.8742 137.73 96.8742Z" fill="black"/>
<path d="M228.408 95.7856C223.825 95.7856 220.29 94.5417 217.802 92.0539C215.314 89.5225 214.071 85.9436 214.071 81.3171L214.071 59.6471C214.071 58.2505 213.918 57.3121 213.612 56.832C213.307 56.3519 212.652 56.1118 211.648 56.1118C211.255 56.1118 210.775 56.1337 210.208 56.1773C209.684 56.221 209.422 56.2428 209.422 56.2428L209.291 55.9809L209.75 53.1003C209.75 53.1003 210.186 53.1221 211.059 53.1658C211.976 53.2094 213.001 53.2531 214.136 53.2967C215.314 53.2967 216.318 53.2967 217.148 53.2967C217.846 53.2967 218.588 53.2749 219.374 53.2312C220.203 53.1439 220.967 53.0785 221.665 53.0348C222.363 52.9475 222.931 52.8821 223.367 52.8384C223.804 52.7511 224.022 52.7075 224.022 52.7075L223.76 55.6536C222.145 55.8718 221.054 56.2428 220.486 56.7665C219.963 57.2466 219.657 58.1195 219.57 59.3853L219.046 78.6329C219.046 82.9538 219.985 86.2709 221.861 88.5841C223.738 90.8973 226.444 92.0539 229.979 92.0539C233.558 92.0539 236.286 91.1155 238.163 89.2388C240.04 87.3184 240.978 84.5687 240.978 80.9898C240.978 80.0732 240.956 78.7639 240.913 77.0617C240.913 75.3595 240.891 73.5264 240.847 71.5624C240.803 69.5547 240.76 67.6561 240.716 65.8666C240.673 64.0335 240.629 62.5496 240.585 61.4148C240.585 60.2363 240.585 59.6471 240.585 59.6471C240.498 58.1195 240.302 57.1593 239.996 56.7665C239.734 56.3301 239.123 56.1118 238.163 56.1118C237.77 56.1118 237.203 56.1337 236.461 56.1773C235.719 56.221 235.348 56.2428 235.348 56.2428L235.217 55.9809L235.675 53.1003C235.675 53.1003 235.937 53.1221 236.461 53.1658C236.984 53.1658 237.639 53.1876 238.425 53.2312C239.21 53.2312 240.018 53.2531 240.847 53.2967C241.72 53.2967 242.462 53.2967 243.073 53.2967C244.033 53.2967 244.993 53.2531 245.954 53.1658C246.914 53.0785 247.721 52.9912 248.376 52.9039C249.074 52.773 249.423 52.7075 249.423 52.7075L249.162 55.6536C247.285 55.9154 246.063 56.2646 245.495 56.7011C244.928 57.1375 244.644 58.0322 244.644 59.3853L244.644 81.3826C244.644 85.9654 243.226 89.5225 240.389 92.0539C237.552 94.5417 233.558 95.7856 228.408 95.7856ZM234.824 48.1902C233.951 48.1902 233.275 47.9065 232.795 47.3391C232.358 46.7281 232.14 46.0734 232.14 45.375C232.14 44.5021 232.445 43.7383 233.056 43.0837C233.667 42.429 234.453 42.1016 235.413 42.1016C236.286 42.1016 236.941 42.3853 237.377 42.9527C237.857 43.5201 238.097 44.1748 238.097 44.9168C238.097 45.7897 237.792 46.5535 237.181 47.2082C236.57 47.8628 235.784 48.1902 234.824 48.1902ZM223.956 48.1902C223.083 48.1902 222.407 47.9065 221.927 47.3391C221.49 46.7281 221.272 46.0734 221.272 45.375C221.272 44.5021 221.578 43.7383 222.189 43.0837C222.8 42.429 223.585 42.1016 224.545 42.1016C225.418 42.1016 226.073 42.3853 226.51 42.9527C226.99 43.5201 227.23 44.1748 227.23 44.9168C227.23 45.7897 226.924 46.5535 226.313 47.2082C225.702 47.8628 224.916 48.1902 223.956 48.1902Z" fill="black"/>
<path d="M403.857 174.135C400.278 174.135 397.114 173.284 394.364 171.582C391.658 169.88 389.541 167.501 388.014 164.446C386.486 161.391 385.722 157.877 385.722 153.906C385.722 150.676 386.268 147.664 387.359 144.871C388.45 142.078 389.978 139.633 391.942 137.538C393.906 135.443 396.197 133.807 398.816 132.628C401.435 131.45 404.25 130.861 407.261 130.861C410.928 130.861 414.135 131.712 416.885 133.414C419.678 135.116 421.861 137.495 423.432 140.55C425.003 143.562 425.789 147.053 425.789 151.025C425.789 154.298 425.221 157.332 424.087 160.125C422.996 162.918 421.446 165.362 419.438 167.457C417.474 169.552 415.161 171.189 412.499 172.368C409.836 173.546 406.956 174.135 403.857 174.135ZM405.886 170.796C408.68 170.796 411.124 170.076 413.219 168.636C415.314 167.196 416.951 165.21 418.129 162.678C419.351 160.103 419.962 157.135 419.962 153.775C419.962 150.021 419.329 146.726 418.064 143.889C416.798 141.052 415.052 138.826 412.826 137.211C410.6 135.596 408.003 134.789 405.035 134.789C402.329 134.789 399.951 135.509 397.899 136.949C395.848 138.39 394.233 140.397 393.055 142.972C391.92 145.504 391.353 148.45 391.353 151.811C391.353 155.52 391.964 158.816 393.186 161.696C394.408 164.533 396.11 166.759 398.292 168.374C400.518 169.989 403.05 170.796 405.886 170.796ZM410.6 126.54C409.727 126.54 409.051 126.256 408.571 125.689C408.134 125.078 407.916 124.423 407.916 123.725C407.916 122.852 408.222 122.088 408.833 121.433C409.444 120.779 410.229 120.451 411.189 120.451C412.062 120.451 412.717 120.735 413.153 121.302C413.634 121.87 413.874 122.524 413.874 123.266C413.874 124.139 413.568 124.903 412.957 125.558C412.346 126.212 411.56 126.54 410.6 126.54ZM399.732 126.54C398.86 126.54 398.183 126.256 397.703 125.689C397.266 125.078 397.048 124.423 397.048 123.725C397.048 122.852 397.354 122.088 397.965 121.433C398.576 120.779 399.361 120.451 400.322 120.451C401.195 120.451 401.849 120.735 402.286 121.302C402.766 121.87 403.006 122.524 403.006 123.266C403.006 124.139 402.7 124.903 402.089 125.558C401.478 126.212 400.693 126.54 399.732 126.54Z" fill="black"/>
<path d="M322.425 90.7856C319.675 90.7856 317.253 90.1746 315.158 88.9525C313.063 87.7304 311.492 86.0064 310.444 83.7805C308.742 85.57 307.083 87.0758 305.468 88.2978C303.854 89.4763 302.479 90.2182 301.344 90.5237C299.729 90.5237 298.289 90.1746 297.023 89.4763C295.757 88.7779 294.754 87.8177 294.012 86.5956C293.313 85.3736 292.964 83.9769 292.964 82.4057C292.964 81.14 293.27 80.0488 293.881 79.1323C294.535 78.1721 295.386 77.5392 296.434 77.2337L308.938 73.8293L309.004 70.5559C309.004 68.3736 308.524 66.6933 307.563 65.5149C306.603 64.3364 305.207 63.7472 303.374 63.7472C301.977 63.7472 300.646 64.0309 299.38 64.5983C298.158 65.1657 297.176 65.7549 296.434 66.366C295.692 66.9333 295.321 67.217 295.321 67.217L294.994 67.0206L294.208 64.2055C294.208 64.2055 294.47 64.0527 294.994 63.7472C295.561 63.4417 296.281 63.0707 297.154 62.6343C298.027 62.1542 298.943 61.6959 299.904 61.2594C300.908 60.7793 301.846 60.3865 302.719 60.081C303.592 59.7755 304.312 59.6227 304.879 59.6227C309.157 59.6227 311.863 61.3685 312.997 64.8602C314.263 63.2017 315.769 61.9141 317.515 60.9976C319.26 60.081 321.072 59.6227 322.949 59.6227C325.742 59.6227 327.924 60.452 329.495 62.1105C331.11 63.7254 331.918 65.995 331.918 68.9192C331.918 69.2247 331.896 69.5084 331.852 69.7703C331.809 70.0322 331.787 70.1631 331.787 70.1631L331.198 71.0797L313.521 75.2696C313.739 78.6303 314.743 81.3582 316.533 83.4532C318.366 85.5482 320.613 86.5957 323.276 86.5957C324.585 86.5957 325.851 86.3992 327.073 86.0064C328.339 85.6136 329.364 85.2426 330.15 84.8935C330.936 84.5007 331.328 84.3043 331.328 84.3043L331.721 84.4352L332.441 86.3338C332.441 86.3338 332.114 86.5738 331.459 87.0539C330.805 87.4904 329.954 87.9923 328.906 88.5597C327.902 89.1271 326.811 89.629 325.633 90.0655C324.498 90.5456 323.429 90.7856 322.425 90.7856ZM302.13 86.2683C303.046 86.2683 304.137 85.8973 305.403 85.1553C306.712 84.3697 308.131 83.2568 309.658 81.8165C309.135 80.1579 308.873 78.303 308.873 76.2517L299.838 78.9359C299.14 79.1104 298.616 79.4596 298.267 79.9834C297.918 80.5071 297.743 81.0745 297.743 81.6855C297.743 82.9076 298.18 83.9769 299.053 84.8935C299.926 85.81 300.951 86.2683 302.13 86.2683ZM313.456 72.8473L324.913 69.5739C325.785 69.312 326.222 68.9192 326.222 68.3955C326.222 66.9552 325.764 65.7549 324.847 64.7947C323.974 63.7909 322.839 63.2889 321.443 63.2889C319.042 63.2889 317.1 64.14 315.616 65.8422C314.176 67.5007 313.456 69.683 313.456 72.389L313.456 72.8473Z" fill="black"/>
<path d="M398.058 83.5302L397.468 83.1374C397.468 83.1374 397.468 82.5045 397.468 81.2388C397.512 79.9294 397.534 78.3364 397.534 76.4596C397.534 74.5392 397.534 72.6406 397.534 70.7639C396.094 70.7639 394.61 70.7639 393.082 70.7639C391.598 70.7639 390.202 70.7857 388.892 70.8293C387.583 70.8293 386.535 70.8293 385.75 70.8293C384.964 70.8293 384.571 70.8293 384.571 70.8293L384.178 70.2401L384.899 67.0322C384.899 67.0322 385.553 67.0322 386.863 67.0322C388.172 67.0322 389.809 67.054 391.773 67.0976C393.737 67.0976 395.657 67.0976 397.534 67.0976C397.534 65.0027 397.534 62.9295 397.534 60.8782C397.578 58.7832 397.599 56.6882 397.599 54.5932L400.938 54.0695L401.593 54.4623C401.593 54.4623 401.571 54.8769 401.528 55.7062C401.484 56.4918 401.44 57.5393 401.397 58.8486C401.353 60.1144 401.309 61.4892 401.266 62.9731C401.222 64.4134 401.2 65.7883 401.2 67.0976C402.51 67.0976 403.928 67.0758 405.456 67.0322C406.983 66.9885 408.445 66.9449 409.842 66.9012C411.239 66.8576 412.373 66.8139 413.246 66.7703C414.119 66.7267 414.556 66.7048 414.556 66.7048L414.949 67.3595L414.425 70.6984C412.242 70.6984 410.038 70.7202 407.812 70.7639C405.587 70.7639 403.382 70.7639 401.2 70.7639C401.2 72.597 401.2 74.4519 401.2 76.3287C401.244 78.1618 401.266 79.7112 401.266 80.9769C401.266 82.199 401.266 82.81 401.266 82.81L398.058 83.5302ZM384.571 91.9101L384.178 91.3209L384.899 88.113C384.899 88.113 385.422 88.113 386.47 88.113C387.561 88.113 388.914 88.113 390.529 88.113C392.187 88.1566 393.911 88.1784 395.701 88.1784C397.49 88.1784 399.105 88.1784 400.545 88.1784C401.855 88.1784 403.317 88.1566 404.932 88.113C406.547 88.0693 408.074 88.0257 409.515 87.982C410.911 87.9384 412.09 87.8947 413.05 87.8511C414.054 87.8511 414.556 87.8293 414.556 87.7856L414.949 88.4403L414.425 91.7792C412.33 91.7792 410.038 91.7792 407.551 91.7792C405.106 91.7792 402.64 91.7792 400.153 91.7792C397.665 91.8228 395.33 91.8447 393.148 91.8447C391.009 91.8883 389.176 91.9101 387.648 91.9101C386.121 91.9101 385.095 91.9101 384.571 91.9101Z" fill="black"/>
</svg>
