<svg width="607" height="1049" viewBox="0 0 607 1049" fill="none" xmlns="http://www.w3.org/2000/svg">
<path d="M516.913 170.99C516.307 139.454 508.001 124 484.501 109.5C461.001 95 444.152 89.3903 417.19 78.007C361.951 54.6849 272.09 27.7748 272.09 27.7748C243.068 20.1171 180.66 6.68454 163.201 14.2155C145.742 21.7465 130.085 65.7885 124.438 86.8681L113.735 87.8458C106.428 105.683 90.8726 141.304 87.098 141.093C82.3798 140.83 10.9091 128.178 5.01134 127.848C-0.886402 127.519 -18.9729 126.51 -29.0874 131.064C-39.2018 135.619 -39.6181 143.077 -40.9084 152.062C-42.1987 161.046 -26.2327 171.782 -24.4858 175.817C-22.739 179.852 4.58306 206.185 14.1278 211.836C23.6726 217.488 51.411 236.362 51.1481 241.073C50.8852 245.783 27.4001 263.767 23.1396 269.436C18.879 275.105 14.0904 304.37 16.1208 310.39C18.1513 316.41 23.0436 320.621 23.4563 334.426C23.7865 345.47 16.0207 342.805 12.0966 340.092C8.36766 345.659 0.0318363 355.563 -3.47982 350.642C-6.99149 345.721 -25.7644 330.628 -34.7119 323.697L-70.8415 971.007C-70.8415 971.007 50.4118 1020.96 106.834 1024.11C163.256 1027.26 311.727 992.36 311.727 992.36C312.389 992.265 313.374 991.113 312.012 987.257C310.649 983.4 281.416 897.082 266.97 854.405C258.07 827.788 239.679 773.813 237.321 770.846C234.372 767.138 226.842 732.459 227.346 723.431C227.749 716.208 236.924 702.571 241.462 696.655C232.849 690.792 215.003 678.876 212.522 678.107C209.42 677.147 216.303 666.899 216.544 662.581C216.785 658.263 188.741 637.797 183.958 631.623C179.175 625.45 187.192 623.141 194.685 623.165C202.177 623.19 236.293 647.933 260.342 655.181C284.39 662.43 295.403 641.781 300.276 632.209C305.149 622.637 303.315 613.084 306.747 601.069C310.178 589.053 316.265 599.147 324.5 600C331.088 600.683 331.221 594.994 330.465 592.064L329.926 581.493C345.259 589.436 327.629 601.447 346.042 610.744C360.772 618.181 371.316 605.46 374.747 598.17L376.368 569.122C376.215 571.869 374.418 578.621 368.458 583.643C362.499 588.666 355.752 589.891 353.123 589.875C353.298 586.735 355.598 578.043 363.393 568.397C371.189 558.752 361.226 553.051 355.27 551.406L350.337 533.804C350.337 533.804 358.75 545.5 362.5 548C366.25 550.5 368.5 550.906 370.5 551.406C372.5 551.906 386 550.5 390.133 548.626C393.722 547 395.953 544.74 397.976 542.37C400 540 408.347 520.504 400.014 505.863C393.377 494.202 392.025 485.394 389.387 476.525L392.441 464.882L399.561 471.58L397.792 467.937L402.271 465.431L397.946 465.19L389.035 455.242L399.123 444.1C400.596 444.106 402.053 444.155 403.454 444.233L414.856 444.87C418.067 443.868 424.582 440.215 424.95 433.62C425.41 425.377 428.803 385.795 436.731 392.144C444.659 398.493 537.121 416.648 552.52 416.327C567.92 416.005 575.328 403.424 584.11 394.464C591.136 387.295 581.957 383.58 576.489 382.619L485.652 314.152L504.362 247.468L489.881 238.391L496.173 231.654C503.288 221.944 517.398 196.218 516.913 170.99Z" fill="url(#paint0_linear_216_323)"/>
<defs>
<linearGradient id="paint0_linear_216_323" x1="259.001" y1="-35.5" x2="426.001" y2="202.5" gradientUnits="userSpaceOnUse">
<stop offset="0.0625" stop-color="white"/>
<stop offset="1" stop-color="#32A2A9"/>
</linearGradient>
</defs>
</svg>
