<svg width="1355" height="832" viewBox="0 0 1355 832" fill="none" xmlns="http://www.w3.org/2000/svg">
<path fill-rule="evenodd" clip-rule="evenodd" d="M31.3905 285.125C27.0564 285.125 23.543 281.612 23.543 277.278L23.543 31.39C23.543 27.0559 27.0564 23.5425 31.3905 23.5425L277.279 23.5425C281.613 23.5425 285.126 27.0559 285.126 31.39V106.598C285.126 112.509 291.592 116.45 297.435 115.553C299.392 115.252 301.396 115.097 303.437 115.097C325.107 115.097 342.674 132.664 342.674 154.334C342.674 176.004 325.107 193.571 303.437 193.571C301.396 193.571 299.392 193.416 297.435 193.115C291.592 192.218 285.126 196.159 285.126 202.07V277.278C285.126 281.612 281.613 285.125 277.278 285.125H202.071C196.159 285.125 192.219 291.591 193.116 297.434C193.416 299.391 193.572 301.396 193.572 303.436C193.572 325.107 176.005 342.674 154.334 342.674C132.664 342.674 115.097 325.107 115.097 303.436C115.097 301.396 115.253 299.391 115.553 297.434C116.45 291.591 112.509 285.125 106.598 285.125H31.3905Z" fill="#E46171"/>
<path fill-rule="evenodd" clip-rule="evenodd" d="M297.434 193.115C291.591 192.219 285.125 196.159 285.125 202.071L285.125 277.278C285.125 281.612 288.638 285.125 292.972 285.125H368.18C374.092 285.125 378.032 291.591 377.135 297.434C376.835 299.391 376.679 301.396 376.679 303.436C376.679 325.107 394.246 342.674 415.916 342.674C437.587 342.674 455.154 325.107 455.154 303.436C455.154 301.396 454.998 299.391 454.698 297.434C453.801 291.591 457.741 285.125 463.653 285.125H538.861C543.195 285.125 546.708 281.612 546.708 277.278V202.07C546.708 196.159 540.242 192.218 534.399 193.115C532.442 193.416 530.438 193.571 528.397 193.571C506.726 193.571 489.159 176.004 489.159 154.334C489.159 132.664 506.726 115.097 528.397 115.097C530.438 115.097 532.442 115.252 534.399 115.553C540.242 116.45 546.708 112.509 546.708 106.598V31.39C546.708 27.0559 543.195 23.5425 538.861 23.5425L292.972 23.5425C288.638 23.5425 285.125 27.0559 285.125 31.39L285.125 106.598C285.125 112.509 291.591 116.449 297.434 115.553C299.39 115.252 301.395 115.097 303.435 115.097C325.106 115.097 342.673 132.664 342.673 154.334C342.673 176.004 325.106 193.571 303.435 193.571C301.395 193.571 299.39 193.416 297.434 193.115Z" fill="white"/>
<path fill-rule="evenodd" clip-rule="evenodd" d="M795.28 193.949C801.149 193.048 807.642 197.005 807.642 202.942L807.642 278.475C807.642 282.827 811.171 286.356 815.524 286.356H891.056C896.993 286.356 900.95 292.85 900.05 298.718C899.748 300.683 899.591 302.696 899.591 304.746C899.591 326.509 917.234 344.152 938.998 344.152C960.762 344.152 978.405 326.509 978.405 304.746C978.405 302.696 978.249 300.683 977.947 298.718C977.046 292.85 981.004 286.356 986.941 286.356H1062.47C1066.83 286.356 1070.35 282.827 1070.35 278.475V202.942C1070.35 197.005 1076.85 193.048 1082.72 193.949C1084.68 194.25 1086.69 194.407 1088.74 194.407C1110.51 194.407 1128.15 176.764 1128.15 155C1128.15 133.236 1110.51 115.593 1088.74 115.593C1086.69 115.593 1084.68 115.75 1082.72 116.051C1076.85 116.952 1070.35 112.995 1070.35 107.058V31.5254C1070.35 27.1726 1066.83 23.644 1062.47 23.644L815.524 23.644C811.171 23.644 807.642 27.1726 807.642 31.5254V107.058C807.642 112.995 801.149 116.952 795.28 116.051C793.315 115.75 791.302 115.593 789.252 115.593C767.489 115.593 749.846 133.236 749.846 155C749.846 176.764 767.489 194.407 789.252 194.407C791.302 194.407 793.315 194.25 795.28 193.949Z" fill="#34B1B9"/>
<path fill-rule="evenodd" clip-rule="evenodd" d="M115.183 297.334C116.04 291.519 112.108 285.126 106.229 285.126L31.3905 285.126C27.0564 285.126 23.543 288.639 23.543 292.973L23.543 538.861C23.543 543.196 27.0564 546.709 31.3905 546.709H106.598C112.51 546.709 116.45 553.175 115.553 559.018C115.253 560.975 115.097 562.979 115.097 565.02C115.097 586.69 132.664 604.257 154.334 604.257C176.005 604.257 193.572 586.69 193.572 565.02C193.572 562.979 193.416 560.975 193.116 559.018C192.219 553.175 196.159 546.709 202.071 546.709H277.278C281.613 546.709 285.126 543.196 285.126 538.861V463.654C285.126 457.742 291.592 453.802 297.435 454.699C299.392 454.999 301.396 455.155 303.437 455.155C325.107 455.155 342.674 437.588 342.674 415.917C342.674 394.247 325.107 376.68 303.437 376.68C301.396 376.68 299.392 376.836 297.435 377.136C291.592 378.033 285.126 374.093 285.126 368.181V292.973C285.126 288.639 281.613 285.126 277.278 285.126L201.769 285.126C195.891 285.126 191.959 291.519 192.816 297.334C193.093 299.217 193.237 301.144 193.237 303.103C193.237 324.774 175.67 342.341 153.999 342.341C132.329 342.341 114.762 324.774 114.762 303.103C114.762 301.144 114.906 299.217 115.183 297.334Z" fill="white"/>
<path fill-rule="evenodd" clip-rule="evenodd" d="M463.651 546.709C457.739 546.709 453.799 553.175 454.695 559.018C454.996 560.975 455.152 562.979 455.152 565.02C455.152 586.69 437.584 604.257 415.914 604.257C394.244 604.257 376.677 586.69 376.677 565.02C376.677 562.979 376.832 560.975 377.133 559.018C378.03 553.175 374.089 546.709 368.178 546.709L292.97 546.709C288.636 546.709 285.123 543.196 285.123 538.862L285.123 463.654C285.123 457.742 291.589 453.802 297.432 454.699C299.389 454.999 301.393 455.155 303.434 455.155C325.104 455.155 342.671 437.588 342.671 415.918C342.671 394.247 325.104 376.68 303.434 376.68C301.393 376.68 299.388 376.836 297.432 377.136C291.589 378.033 285.123 374.093 285.123 368.181L285.123 292.974C285.123 288.64 288.636 285.126 292.97 285.126L368.178 285.126C374.09 285.126 378.03 291.592 377.133 297.435C376.833 299.392 376.677 301.396 376.677 303.437C376.677 325.107 394.244 342.674 415.915 342.674C437.585 342.674 455.152 325.107 455.152 303.437C455.152 301.396 454.996 299.392 454.696 297.435C453.799 291.592 457.74 285.126 463.651 285.126L538.858 285.126C543.192 285.126 546.706 288.64 546.706 292.974L546.706 368.181C546.706 374.093 553.171 378.033 559.015 377.136C560.971 376.836 562.976 376.68 565.016 376.68C586.687 376.68 604.254 394.247 604.254 415.918C604.254 437.588 586.687 455.155 565.016 455.155C562.976 455.155 560.971 454.999 559.015 454.699C553.171 453.802 546.706 457.743 546.706 463.654L546.706 538.862C546.706 543.196 543.192 546.709 538.858 546.709L463.651 546.709Z" fill="#34B1B9"/>
<path fill-rule="evenodd" clip-rule="evenodd" d="M826.6 376.68C824.56 376.68 822.555 376.836 820.598 377.136C814.755 378.033 808.29 374.092 808.29 368.181L808.29 292.973C808.29 288.639 804.776 285.126 800.442 285.126L725.235 285.126C719.323 285.126 715.383 278.66 716.279 272.817C716.58 270.86 716.736 268.856 716.736 266.815C716.736 245.145 699.168 227.578 677.498 227.578C655.828 227.578 638.261 245.145 638.261 266.815C638.261 268.856 638.417 270.86 638.717 272.817C639.614 278.66 635.673 285.126 629.762 285.126L554.554 285.126C550.22 285.126 546.707 288.639 546.707 292.973L546.707 368.181C546.707 374.093 553.173 378.033 559.016 377.136C560.973 376.836 562.977 376.68 565.018 376.68C586.688 376.68 604.255 394.247 604.255 415.917C604.255 437.588 586.688 455.155 565.018 455.155C562.977 455.155 560.973 454.999 559.016 454.699C553.173 453.802 546.707 457.742 546.707 463.654L546.707 538.861C546.707 543.195 550.22 546.709 554.554 546.709L629.762 546.709C635.673 546.709 639.614 553.175 638.717 559.018C638.416 560.975 638.261 562.979 638.261 565.02C638.261 586.69 655.828 604.257 677.498 604.257C699.168 604.257 716.736 586.69 716.736 565.02C716.736 562.979 716.58 560.975 716.279 559.018C715.383 553.175 719.323 546.709 725.235 546.709L800.442 546.709C804.776 546.709 808.29 543.195 808.29 538.861L808.29 463.654C808.29 457.742 814.755 453.802 820.598 454.699C822.555 454.999 824.56 455.155 826.6 455.155C848.271 455.155 865.838 437.588 865.838 415.917C865.838 394.247 848.271 376.68 826.6 376.68Z" fill="white"/>
<path fill-rule="evenodd" clip-rule="evenodd" d="M1088.18 376.68C1086.14 376.68 1084.14 376.836 1082.18 377.136C1076.34 378.033 1069.87 374.093 1069.87 368.181L1069.87 292.973C1069.87 288.639 1066.36 285.126 1062.03 285.126L986.819 285.126C980.908 285.126 976.967 291.592 977.864 297.435C978.164 299.392 978.32 301.396 978.32 303.437C978.32 325.107 960.753 342.674 939.083 342.674C917.412 342.674 899.845 325.107 899.845 303.437C899.845 301.396 900.001 299.392 900.301 297.435C901.198 291.592 897.258 285.126 891.346 285.126L816.138 285.126C811.804 285.126 808.291 288.639 808.291 292.973L808.291 368.181C808.291 374.093 814.757 378.033 820.6 377.136C822.556 376.836 824.561 376.68 826.602 376.68C848.272 376.68 865.839 394.247 865.839 415.917C865.839 437.588 848.272 455.155 826.602 455.155C824.561 455.155 822.556 454.999 820.6 454.699C814.757 453.802 808.291 457.742 808.291 463.654L808.291 538.861C808.291 543.196 811.804 546.709 816.138 546.709L891.346 546.709C897.258 546.709 901.198 540.243 900.301 534.4C900.001 532.443 899.845 530.439 899.845 528.398C899.845 506.728 917.412 489.161 939.083 489.161C960.753 489.161 978.32 506.728 978.32 528.398C978.32 530.439 978.164 532.443 977.864 534.4C976.967 540.243 980.908 546.709 986.819 546.709L1062.03 546.709C1066.36 546.709 1069.87 543.196 1069.87 538.861L1069.87 463.654C1069.87 457.742 1076.34 453.802 1082.18 454.699C1084.14 454.999 1086.14 455.155 1088.18 455.155C1109.85 455.155 1127.42 437.588 1127.42 415.917C1127.42 394.247 1109.85 376.68 1088.18 376.68Z" fill="#D05A69"/>
<path fill-rule="evenodd" clip-rule="evenodd" d="M1152.93 285.126C1158.84 285.126 1162.78 278.66 1161.89 272.817C1161.58 270.86 1161.43 268.856 1161.43 266.815C1161.43 245.145 1179 227.578 1200.67 227.578C1222.34 227.578 1239.9 245.145 1239.9 266.815C1239.9 268.856 1239.75 270.86 1239.45 272.817C1238.55 278.66 1242.49 285.126 1248.4 285.126L1323.61 285.126C1327.94 285.126 1331.46 288.639 1331.46 292.973V368.181C1331.46 374.093 1324.99 378.033 1319.15 377.136C1317.19 376.836 1315.19 376.68 1313.15 376.68C1291.48 376.68 1273.91 394.247 1273.91 415.917C1273.91 437.588 1291.48 455.155 1313.15 455.155C1315.19 455.155 1317.19 454.999 1319.15 454.699C1324.99 453.802 1331.46 457.742 1331.46 463.654V538.861C1331.46 543.195 1327.94 546.709 1323.61 546.709H1248.4C1242.49 546.709 1238.55 553.175 1239.45 559.018C1239.75 560.975 1239.9 562.979 1239.9 565.02C1239.9 586.69 1222.34 604.257 1200.67 604.257C1179 604.257 1161.43 586.69 1161.43 565.02C1161.43 562.979 1161.58 560.975 1161.89 559.018C1162.78 553.175 1158.84 546.709 1152.93 546.709H1077.72C1073.39 546.709 1069.88 543.195 1069.88 538.861L1069.88 463.654C1069.88 457.742 1076.34 453.802 1082.18 454.699C1084.14 454.999 1086.14 455.155 1088.19 455.155C1109.86 455.155 1127.42 437.588 1127.42 415.917C1127.42 394.247 1109.86 376.68 1088.19 376.68C1086.14 376.68 1084.14 376.836 1082.18 377.136C1076.34 378.033 1069.88 374.092 1069.88 368.181L1069.88 292.973C1069.88 288.639 1073.39 285.126 1077.72 285.126H1152.93Z" fill="white"/>
<path fill-rule="evenodd" clip-rule="evenodd" d="M538.858 808.292C543.192 808.292 546.706 804.778 546.706 800.444L546.706 725.236C546.706 719.325 553.171 715.384 559.014 716.281C560.971 716.582 562.976 716.737 565.016 716.737C586.687 716.737 604.254 699.17 604.254 677.5C604.254 655.83 586.687 638.263 565.016 638.263C562.976 638.263 560.971 638.418 559.015 638.719C553.171 639.616 546.706 635.675 546.706 629.764L546.706 554.556C546.706 550.222 543.192 546.709 538.858 546.709L463.651 546.709C457.74 546.709 453.799 553.174 454.696 559.017C454.996 560.974 455.152 562.978 455.152 565.019C455.152 586.69 437.585 604.257 415.915 604.257C394.244 604.257 376.677 586.69 376.677 565.019C376.677 562.979 376.833 560.974 377.133 559.017C378.03 553.174 374.09 546.709 368.178 546.709L292.97 546.709C288.636 546.709 285.123 550.222 285.123 554.556L285.123 629.764C285.123 635.675 278.657 639.616 272.814 638.719C270.857 638.418 268.853 638.263 266.812 638.263C245.142 638.263 227.574 655.83 227.574 677.5C227.574 699.17 245.142 716.737 266.812 716.737C268.853 716.737 270.857 716.582 272.814 716.281C278.657 715.384 285.123 719.325 285.123 725.236L285.123 800.444C285.123 804.778 288.636 808.292 292.97 808.292L538.858 808.292Z" fill="white"/>
<path fill-rule="evenodd" clip-rule="evenodd" d="M795.982 638.719C801.825 639.615 808.291 635.675 808.291 629.763L808.291 554.556C808.291 550.222 804.778 546.708 800.443 546.708L725.236 546.709C719.325 546.709 715.384 553.174 716.281 559.017C716.582 560.974 716.737 562.978 716.737 565.019C716.737 586.69 699.17 604.257 677.5 604.257C655.83 604.257 638.263 586.69 638.263 565.019C638.263 562.978 638.418 560.974 638.719 559.017C639.616 553.174 635.675 546.709 629.764 546.709L554.555 546.709C550.221 546.709 546.708 550.222 546.708 554.556L546.708 629.764C546.708 635.675 553.174 639.616 559.017 638.719C560.974 638.418 562.978 638.263 565.019 638.263C586.69 638.263 604.257 655.83 604.257 677.5C604.257 699.17 586.69 716.737 565.019 716.737C562.978 716.737 560.974 716.582 559.017 716.281C553.174 715.384 546.708 719.325 546.708 725.236L546.708 800.444C546.708 804.778 550.221 808.292 554.555 808.292L800.444 808.292C804.778 808.292 808.291 804.778 808.291 800.444L808.291 725.236C808.291 719.325 801.825 715.384 795.982 716.281C794.026 716.582 792.021 716.737 789.981 716.737C768.31 716.737 750.743 699.17 750.743 677.5C750.743 655.83 768.31 638.263 789.981 638.263C792.021 638.263 794.026 638.418 795.982 638.719Z" fill="#34B1B9"/>
<path fill-rule="evenodd" clip-rule="evenodd" d="M1057.57 638.719C1063.41 639.615 1069.87 635.675 1069.87 629.763L1069.87 554.556C1069.87 550.222 1066.36 546.708 1062.03 546.708L986.82 546.709C980.908 546.709 976.968 540.243 977.865 534.4C978.165 532.443 978.321 530.438 978.321 528.398C978.321 506.727 960.754 489.16 939.083 489.16C917.413 489.16 899.846 506.727 899.846 528.398C899.846 530.438 900.002 532.443 900.302 534.4C901.199 540.243 897.259 546.709 891.347 546.709L816.139 546.709C811.805 546.709 808.292 550.222 808.292 554.556L808.292 629.764C808.292 635.675 801.826 639.616 795.983 638.719C794.026 638.418 792.022 638.263 789.981 638.263C768.311 638.263 750.744 655.83 750.744 677.5C750.744 699.17 768.311 716.737 789.981 716.737C792.022 716.737 794.026 716.582 795.983 716.281C801.826 715.384 808.292 719.325 808.292 725.236L808.292 800.444C808.292 804.778 811.805 808.292 816.139 808.292L1062.03 808.292C1066.36 808.292 1069.87 804.778 1069.87 800.444L1069.87 725.236C1069.87 719.325 1063.41 715.384 1057.57 716.281C1055.61 716.582 1053.61 716.737 1051.56 716.737C1029.89 716.737 1012.33 699.17 1012.33 677.5C1012.33 655.83 1029.89 638.263 1051.56 638.263C1053.61 638.263 1055.61 638.418 1057.57 638.719Z" fill="white"/>
</svg>
