<svg width="1440" height="303" viewBox="0 0 1440 303" fill="none" xmlns="http://www.w3.org/2000/svg">
<g clip-path="url(#clip0_281_291)">
<path d="M66.7832 73.0195L26.4395 199.454" stroke="#34B1B9" stroke-width="13.5173"/>
<path d="M16.4707 58.8989L-22.9392 182.407" stroke="#34B1B9" stroke-width="13.5173"/>
<path d="M110.923 90.3282L77.6646 208.704L76.7308 211.631L110.923 90.3282ZM110.923 90.3282L112.043 86.8161" stroke="#34B1B9" stroke-width="13.5173"/>
<path d="M159.031 99.2304L126.035 222.85" stroke="#34B1B9" stroke-width="13.5173"/>
<path d="M204.477 112.442L180.958 232.636" stroke="#34B1B9" stroke-width="13.5173"/>
<path d="M251.181 117.669L232.183 241.886" stroke="#34B1B9" stroke-width="13.5173"/>
<path d="M1463.69 117.601C1133.99 0.789913 913.734 38.2129 584.881 122.893C518.025 137.032 366.287 162.783 294.183 152.674C204.053 140.038 0.508738 82.7045 -2.07474 82.6497L-10.9425 80.2796" stroke="#34B1B9" stroke-width="6.14421"/>
<path d="M1440.27 191.001C1110.76 73.5938 888.742 116.545 556.783 210.956C489.346 226.915 350.314 233.059 277.999 223.612C187.606 211.804 -30.5627 159.81 -29.7534 151.21" stroke="#34B1B9" stroke-width="7.37305"/>
<path d="M1452.38 84.3257L1412.97 207.833" stroke="#34B1B9" stroke-width="13.5173"/>
<path d="M1403.59 67.4658L1364.18 190.973" stroke="#34B1B9" stroke-width="13.5173"/>
<path d="M1354.39 53.0591L1319.34 177.873" stroke="#34B1B9" stroke-width="13.5173"/>
<path d="M1301.77 41.5332L1270.64 167.382" stroke="#34B1B9" stroke-width="13.5173"/>
<path d="M1248.25 30.7983L1224.96 158.333" stroke="#34B1B9" stroke-width="13.5173"/>
<path d="M1195.81 23.0962L1180.6 151.843" stroke="#34B1B9" stroke-width="13.5173"/>
<path d="M1143.22 19.2124L1135.19 148.607" stroke="#34B1B9" stroke-width="13.5173"/>
<path d="M1089.69 16.9878L1087.87 146.618" stroke="#34B1B9" stroke-width="13.5173"/>
<path d="M1035.92 16.5195L1039.71 146.107" stroke="#34B1B9" stroke-width="13.5173"/>
<path d="M981.896 18.0415L989.812 147.443" stroke="#34B1B9" stroke-width="13.5173"/>
<path d="M930.408 23.5405L945.701 152.278" stroke="#34B1B9" stroke-width="13.5173"/>
<path d="M879.912 32.5684L897.062 161.072" stroke="#34B1B9" stroke-width="13.5173"/>
<path d="M824.322 41.9624L850.297 168.977" stroke="#34B1B9" stroke-width="13.5173"/>
<path d="M774.832 53.3774L804.189 179.653" stroke="#34B1B9" stroke-width="13.5173"/>
<path d="M725 63.7676L754.357 190.043" stroke="#34B1B9" stroke-width="13.5173"/>
<path d="M673.527 78.3008L706.119 203.78" stroke="#34B1B9" stroke-width="13.5173"/>
<path d="M624.924 89.8799L655.854 215.779" stroke="#34B1B9" stroke-width="13.5173"/>
<path d="M582.365 99.5171L605.83 227.019" stroke="#34B1B9" stroke-width="13.5173"/>
<path d="M531.793 110.468L551.848 238.55" stroke="#34B1B9" stroke-width="13.5173"/>
<path d="M484.709 117.326L498.852 246.195" stroke="#34B1B9" stroke-width="13.5173"/>
<path d="M438.057 123.779L444.787 253.247" stroke="#34B1B9" stroke-width="13.5173"/>
<path d="M395.875 123.854L396.161 253.497" stroke="#34B1B9" stroke-width="13.5173"/>
<path d="M345.332 125.784L338.041 253.736" stroke="#34B1B9" stroke-width="13.5173"/>
<path d="M298.656 122.499L285.724 249.941" stroke="#34B1B9" stroke-width="13.5173"/>
</g>
<defs>
<clipPath id="clip0_281_291">
<rect width="1440" height="303" fill="white"/>
</clipPath>
</defs>
</svg>
