<svg width="1440" height="1085" viewBox="0 0 1440 1085" fill="none" xmlns="http://www.w3.org/2000/svg">
<rect y="621.299" width="1440" height="464" fill="#D05A69"/>
<g clip-path="url(#clip0_318_290)">
<path d="M702.12 971.697C689.745 970.998 480.576 954.586 347.14 946.005C326.66 944.688 310.352 962.753 313.608 983.016L324.253 1049.26C324.253 1049.26 508.7 1051.67 533.172 1051.96C563.762 1052.31 707.289 1037.81 721.719 1037.32C736.148 1036.82 788.44 1023.61 782.85 1016.49C777.261 1009.37 718.49 972.621 702.12 971.697Z" fill="url(#paint0_linear_318_290)"/>
<path d="M43.2059 945.55L327.211 949.809C333.403 949.901 338.223 955.213 337.717 961.384L335.202 992.019C334.757 997.445 330.349 1001.67 324.907 1001.84C266.51 1003.64 150.043 1007.18 77.8885 1009.22C75.1459 1009.3 72.4858 1008.3 70.4675 1006.44C29.3286 968.561 31.7087 951.349 39.3584 946.43C40.4887 945.703 41.8622 945.53 43.2059 945.55Z" fill="#34B1B9" stroke="#34B1B9" stroke-width="10.7016"/>
<circle cx="288.444" cy="963.765" r="11.7713" transform="rotate(51.8714 288.444 963.765)" fill="#FFC56F"/>
<circle cx="201.895" cy="960.959" r="11.7713" transform="rotate(51.8714 201.895 960.959)" fill="#FFC56F"/>
<ellipse cx="631.075" cy="1031.22" rx="10.2387" ry="11.7014" fill="#E46171"/>
<path d="M564.878 992.689L595.287 998.004C603.225 999.391 609.973 1004.6 613.33 1011.92C617.068 1019.23 622.789 1033.86 615.768 1033.86C615.406 1033.86 615.049 1033.84 614.697 1033.81C605.502 1032.95 595.051 1027.98 587.091 1032.66C585.739 1033.46 584.287 1034.07 582.747 1034.37C573.198 1036.24 557.749 1036.33 557.749 1024.11C557.749 1021.91 558.123 1019.99 558.779 1018.31C562.749 1008.14 566.519 1014.04 557.749 1007.53C550.721 1002.32 550.16 998.28 551.913 995.492C554.442 991.468 560.196 991.871 564.878 992.689Z" fill="#E46171"/>
<path d="M511.254 1014.6C508.593 1015.01 506.771 1017.5 507.183 1020.16C507.596 1022.82 510.087 1024.65 512.748 1024.23L511.254 1014.6ZM580.384 1020.94L582.98 1016.82L580.384 1020.94ZM546.759 1014.03L546.012 1009.21L546.759 1014.03ZM512.748 1024.23L547.506 1018.85L546.012 1009.21L511.254 1014.6L512.748 1024.23ZM555.07 1018.92C559.168 1019.68 564.13 1020.72 568.533 1021.87C573.177 1023.08 576.475 1024.24 577.788 1025.07L582.98 1016.82C580.204 1015.07 575.458 1013.6 570.996 1012.44C566.295 1011.21 561.092 1010.12 556.863 1009.33L555.07 1018.92ZM577.788 1025.07C578.857 1025.74 579.739 1026.58 580.951 1027.72C581.894 1028.6 583.642 1030.3 585.857 1031.08C588.765 1032.1 591.579 1031.38 593.992 1029.59C596.11 1028.03 598.155 1025.5 600.337 1022.2L592.198 1016.83C590.161 1019.91 588.883 1021.24 588.196 1021.75C587.907 1021.97 587.924 1021.88 588.211 1021.82C588.553 1021.75 588.886 1021.8 589.093 1021.88C589.162 1021.9 588.907 1021.8 587.611 1020.59C586.585 1019.63 584.994 1018.08 582.98 1016.82L577.788 1025.07ZM547.506 1018.85C550.069 1018.45 552.622 1018.46 555.07 1018.92L556.863 1009.33C553.231 1008.65 549.562 1008.66 546.012 1009.21L547.506 1018.85Z" fill="#E46171"/>
<path d="M666.922 1049.32C667.75 1041.44 666.791 1031.57 661.747 1020.74C661.642 1020.52 661.558 1020.28 661.5 1020.04C660.718 1016.75 656.237 1016.28 654.784 1019.33L654.478 1019.97C654.342 1020.25 654.242 1020.56 654.18 1020.87L649.895 1042.29C649.265 1045.44 649.933 1048.71 651.747 1051.36C656.482 1058.28 666.047 1057.66 666.922 1049.32Z" fill="#E46171" stroke="#E46171" stroke-width="9.75117"/>
<path d="M599.643 1007.96C614.867 1009.71 624.084 1009.38 628.697 1008.69C630.813 1008.38 632.668 1007.27 634.538 1006.23C638.792 1003.87 644.355 1002.28 644.986 1007.96C645.011 1008.18 645.03 1008.41 645.043 1008.63C645.379 1014.51 645.877 1024.38 651.232 1026.83L653.669 1027.95C654.333 1028.25 655.106 1028.19 655.713 1027.78V1027.78C657.699 1026.46 660.009 1028.94 658.548 1030.82L654.737 1035.75" stroke="#E46171" stroke-width="9.75117"/>
<path d="M447.949 982.18C449.712 981.245 450.881 979.449 450.299 976.33C449.428 971.661 443.343 973.529 443.343 978.278C443.343 980.939 445.598 983.426 447.949 982.18Z" fill="#D05A69"/>
<path d="M450.299 976.33L455.092 975.436L455.092 975.436L450.299 976.33ZM447.949 982.18L445.666 977.872V977.872L447.949 982.18ZM419.401 1024.57L415.08 1026.83L419.401 1024.57ZM467.352 1002.2L464.264 998.425L464.264 998.425L467.352 1002.2ZM473.111 997.486L476.198 1001.26L476.198 1001.26L473.111 997.486ZM491.364 989.855L486.634 988.672V988.672L491.364 989.855ZM477.37 1045.83L482.1 1047.01L477.37 1045.83ZM471.621 1062.67C471.621 1065.36 473.804 1067.54 476.497 1067.54C479.19 1067.54 481.373 1065.36 481.373 1062.67H471.621ZM486.366 980.845L484.865 985.483H484.865L486.366 980.845ZM458.661 1016.76L463.445 1017.7V1017.7L458.661 1016.76ZM403.292 1025.21L398.807 1023.29H398.807L403.292 1025.21ZM445.506 977.224C445.583 977.635 445.579 977.882 445.569 977.997C445.559 978.104 445.544 978.102 445.574 978.036C445.606 977.969 445.652 977.906 445.694 977.863C445.731 977.826 445.734 977.836 445.666 977.872L450.232 986.488C451.883 985.613 453.469 984.206 454.433 982.112C455.388 980.037 455.522 977.741 455.092 975.436L445.506 977.224ZM426.211 1027.07L423.722 1022.31L415.08 1026.83L417.57 1031.59L426.211 1027.07ZM411.497 1042.5H426.766V1032.75H411.497V1042.5ZM426.766 1042.5H433.471V1032.75H426.766V1042.5ZM470.439 1005.97L476.198 1001.26L470.024 993.713L464.264 998.425L470.439 1005.97ZM481.373 990.341V988.024H471.621V990.341H481.373ZM486.634 988.672L472.64 1044.65L482.1 1047.01L496.094 991.037L486.634 988.672ZM471.621 1052.92V1055.01H481.373V1052.92H471.621ZM471.621 1055.01V1062.67H481.373V1055.01H471.621ZM484.865 985.483C486.202 985.916 486.975 987.309 486.634 988.672L496.094 991.037C497.679 984.699 494.083 978.217 487.867 976.206L484.865 985.483ZM481.373 988.024C481.373 986.211 483.14 984.925 484.865 985.483L487.867 976.206C479.844 973.61 471.621 979.592 471.621 988.024H481.373ZM476.198 1001.26C479.473 998.581 481.373 994.573 481.373 990.341H471.621C471.621 991.648 471.035 992.886 470.024 993.713L476.198 1001.26ZM463.445 1017.7C464.348 1013.11 466.84 1008.92 470.439 1005.97L464.264 998.425C458.886 1002.83 455.213 1009.03 453.877 1015.82L463.445 1017.7ZM398.807 1023.29C394.928 1032.39 401.605 1042.5 411.497 1042.5V1032.75C408.597 1032.75 406.64 1029.78 407.777 1027.12L398.807 1023.29ZM423.722 1022.31C418.329 1012 403.371 1012.59 398.807 1023.29L407.777 1027.12C409.115 1023.98 413.5 1023.81 415.08 1026.83L423.722 1022.31ZM433.471 1042.5C448.093 1042.5 460.638 1031.97 463.445 1017.7L453.877 1015.82C451.954 1025.59 443.352 1032.75 433.471 1032.75V1042.5ZM445.666 977.872C446.009 977.69 446.538 977.568 447.117 977.675C447.644 977.771 447.96 978.008 448.087 978.126C448.212 978.242 448.233 978.31 448.224 978.29C448.218 978.275 448.219 978.264 448.219 978.278H438.467C438.467 980.882 439.537 983.489 441.442 985.262C443.516 987.193 446.879 988.265 450.232 986.488L445.666 977.872ZM472.64 1044.65C471.964 1047.35 471.621 1050.13 471.621 1052.92H481.373C481.373 1050.93 481.617 1048.95 482.1 1047.01L472.64 1044.65ZM455.092 975.436C454.667 973.161 453.45 971.048 451.315 969.793C449.254 968.582 446.978 968.551 445.125 969.093C441.463 970.165 438.467 973.691 438.467 978.278H448.219C448.219 978.116 448.266 978.334 447.863 978.452C447.641 978.517 447.05 978.597 446.374 978.2C445.625 977.76 445.495 977.165 445.506 977.224L455.092 975.436Z" fill="#E46171"/>
</g>
<path d="M626 696.299L1181.95 696.321L1181 789.799H626V696.299Z" fill="#E8B466"/>
<rect x="626" y="510.938" width="555.015" height="93.9446" fill="#D05A69"/>
<rect x="626" y="602.411" width="555.015" height="93.9446" fill="#32A2A9"/>
<rect x="626" y="418.299" width="555" height="94" fill="#32A2A9"/>
<path d="M1239.5 709.799V352.299L1182.87 418.847V784.119L1239.5 709.799Z" fill="#D9D9D9" stroke="#D4D4D4" stroke-width="3.70834"/>
<path d="M1179 511.299L1243 429.299" stroke="#32A2A9" stroke-width="3.70834"/>
<path d="M698.931 345.299L1241.5 347.299L1181.01 418.23H626L698.931 345.299Z" fill="#3E787B"/>
<path d="M1179 601.299L1243 519.299" stroke="#D05A69" stroke-width="3.70834"/>
<path d="M1179 694.299L1242 613.299" stroke="#32A2A9" stroke-width="3.70834"/>
<path d="M1179.5 788.799L1243 708.299" stroke="#E8B466" stroke-width="3.70834"/>
<path d="M1127.73 565.587C1130.01 566.017 1137.81 564.664 1141.42 563.935C1140.32 563.771 1137.79 563.196 1136.48 562.199C1135.16 561.203 1134.86 560.12 1134.87 559.704L1132.3 556.424C1134.34 556.515 1138.68 556.858 1139.71 557.494C1140.73 558.13 1143.71 560.427 1145.07 561.496C1146.94 561.873 1150.89 562.649 1151.79 562.73C1152.68 562.811 1153.33 561.511 1153.54 560.851L1154.56 560.386L1157.66 562.808C1158.66 562.968 1160.91 563.321 1161.96 563.458C1163 563.594 1159.94 562.178 1158.27 561.453C1156.58 559.768 1153.2 556.21 1153.23 555.46C1153.25 554.71 1154.25 554.683 1154.75 554.762L1160.11 557.075C1159.32 554.879 1157.8 550.201 1158.14 549.062C1158.48 547.922 1159.13 548.199 1159.41 548.48C1161.14 550.25 1164.63 553.903 1164.71 554.357C1164.8 554.81 1165.57 557.244 1165.95 558.404C1165.73 556.248 1165.6 551.397 1166.83 549.238C1168.06 547.078 1169.04 553.402 1169.38 556.833C1169.15 558.014 1168.71 560.676 1168.77 561.88C1168.84 563.383 1170.34 565.312 1171.21 565.53C1171.9 565.704 1171.85 566.365 1171.73 566.674C1169.6 566.162 1165 565.077 1163.66 564.83C1161.98 564.522 1154.44 563.823 1153.06 563.837C1151.68 563.852 1147.91 562.658 1144.48 564.228C1141.73 565.484 1131.56 566.345 1126.81 566.619C1126.1 565.463 1124.96 563.812 1123.75 562.399C1123.28 561.923 1122.79 561.408 1122.28 560.864C1121.29 559.966 1120.34 559.417 1119.61 559.613C1117.64 560.145 1112.86 562.548 1110.71 563.683C1109.78 563.651 1107.74 563.505 1107.1 563.183C1106.46 562.861 1108.21 561.803 1109.17 561.315C1106.54 560.62 1101.88 559.236 1104.24 559.267C1106.59 559.299 1109.86 558.691 1111.21 558.383C1109.43 557.3 1105.7 554.876 1104.99 553.851C1104.09 552.569 1110.39 554.914 1111.61 554.205C1112.58 553.638 1110.1 547.772 1108.74 544.91C1111.03 546.219 1115.72 549.093 1116.19 550.11C1116.65 551.127 1116.88 547.131 1116.93 545.006C1118.21 547.031 1120.83 551.647 1121 553.905C1121.17 556.163 1121.32 558.832 1121.37 559.883C1121.68 560.219 1121.98 560.547 1122.28 560.864C1122.77 561.307 1123.26 561.834 1123.75 562.399C1125.54 564.206 1126.99 565.449 1127.73 565.587Z" fill="#E8B466"/>
<path d="M1111.74 548.454C1114.13 551.472 1117.99 556.169 1121.37 559.883M1121.37 559.883C1124.19 562.978 1126.69 565.392 1127.73 565.587C1130.01 566.017 1137.81 564.664 1141.42 563.935C1140.32 563.771 1137.79 563.196 1136.48 562.199C1135.16 561.203 1134.86 560.12 1134.87 559.704L1132.3 556.424C1134.34 556.515 1138.68 556.858 1139.71 557.494C1140.73 558.13 1143.71 560.427 1145.07 561.496C1146.94 561.873 1150.89 562.649 1151.79 562.73C1152.68 562.811 1153.33 561.511 1153.54 560.851L1154.56 560.386L1157.66 562.808C1158.66 562.968 1160.91 563.321 1161.96 563.458C1163 563.594 1159.94 562.178 1158.27 561.453C1156.58 559.768 1153.2 556.21 1153.23 555.46C1153.25 554.71 1154.25 554.683 1154.75 554.762L1160.11 557.075C1159.32 554.879 1157.8 550.201 1158.14 549.062C1158.48 547.922 1159.13 548.199 1159.41 548.48C1161.14 550.25 1164.63 553.903 1164.71 554.357C1164.8 554.81 1165.57 557.244 1165.95 558.404C1165.73 556.248 1165.6 551.397 1166.83 549.238C1168.06 547.078 1169.04 553.402 1169.38 556.833C1169.15 558.014 1168.71 560.676 1168.77 561.88C1168.84 563.383 1170.34 565.312 1171.21 565.53C1171.9 565.704 1171.85 566.365 1171.73 566.674C1169.6 566.162 1165 565.077 1163.66 564.83C1161.98 564.522 1154.44 563.823 1153.06 563.837C1151.68 563.852 1147.91 562.658 1144.48 564.228C1141.73 565.484 1131.56 566.345 1126.81 566.619C1125.24 564.062 1121.58 559.08 1119.61 559.613C1117.64 560.145 1112.86 562.548 1110.71 563.683C1109.78 563.651 1107.74 563.505 1107.1 563.183C1106.46 562.861 1108.21 561.803 1109.17 561.315C1106.54 560.62 1101.88 559.236 1104.24 559.267C1106.59 559.299 1109.86 558.691 1111.21 558.383C1109.43 557.3 1105.7 554.876 1104.99 553.851C1104.09 552.569 1110.39 554.914 1111.61 554.205C1112.58 553.638 1110.1 547.772 1108.74 544.91C1111.03 546.219 1115.72 549.093 1116.19 550.11C1116.65 551.127 1116.88 547.131 1116.93 545.006C1118.21 547.031 1120.83 551.647 1121 553.905C1121.17 556.163 1121.32 558.832 1121.37 559.883Z" stroke="#E8B466" stroke-width="0.279609"/>
<path d="M1130.73 751.588C1133.01 752.017 1140.81 750.665 1144.42 749.936C1143.32 749.772 1140.79 749.197 1139.48 748.2C1138.16 747.204 1137.86 746.121 1137.87 745.705L1135.3 742.425C1137.34 742.516 1141.68 742.859 1142.71 743.495C1143.73 744.131 1146.71 746.428 1148.07 747.497C1149.94 747.874 1153.89 748.65 1154.79 748.731C1155.68 748.812 1156.33 747.512 1156.54 746.852L1157.56 746.387L1160.66 748.809C1161.66 748.969 1163.91 749.322 1164.96 749.459C1166 749.595 1162.94 748.179 1161.27 747.454C1159.58 745.769 1156.2 742.211 1156.23 741.461C1156.25 740.711 1157.25 740.683 1157.75 740.763L1163.11 743.076C1162.32 740.88 1160.8 736.202 1161.14 735.063C1161.48 733.923 1162.13 734.2 1162.41 734.481C1164.14 736.251 1167.63 739.904 1167.71 740.358C1167.8 740.811 1168.57 743.245 1168.95 744.405C1168.73 742.249 1168.6 737.398 1169.83 735.239C1171.06 733.079 1172.04 739.403 1172.38 742.834C1172.15 744.015 1171.71 746.677 1171.77 747.88C1171.84 749.384 1173.34 751.313 1174.21 751.531C1174.9 751.705 1174.85 752.366 1174.73 752.675C1172.6 752.163 1168 751.078 1166.66 750.831C1164.98 750.523 1157.44 749.824 1156.06 749.838C1154.68 749.853 1150.91 748.659 1147.48 750.229C1144.73 751.485 1134.56 752.346 1129.81 752.62C1129.1 751.464 1127.96 749.813 1126.75 748.4C1126.28 747.924 1125.79 747.409 1125.28 746.865C1124.29 745.967 1123.34 745.418 1122.61 745.614C1120.64 746.146 1115.86 748.549 1113.71 749.684C1112.78 749.652 1110.74 749.506 1110.1 749.184C1109.46 748.861 1111.21 747.804 1112.17 747.316C1109.54 746.62 1104.88 745.237 1107.24 745.268C1109.59 745.3 1112.86 744.692 1114.21 744.384C1112.43 743.301 1108.7 740.877 1107.99 739.852C1107.09 738.57 1113.39 740.915 1114.61 740.206C1115.58 739.639 1113.1 733.773 1111.74 730.911C1114.03 732.22 1118.72 735.094 1119.19 736.111C1119.65 737.128 1119.88 733.132 1119.93 731.007C1121.21 733.032 1123.83 737.648 1124 739.906C1124.17 742.164 1124.32 744.833 1124.37 745.884C1124.68 746.22 1124.98 746.548 1125.28 746.865C1125.77 747.308 1126.26 747.835 1126.75 748.4C1128.54 750.207 1129.99 751.45 1130.73 751.588Z" fill="#32A2A9"/>
<path d="M1114.74 734.455C1117.13 737.473 1120.99 742.17 1124.37 745.884M1124.37 745.884C1127.19 748.979 1129.69 751.393 1130.73 751.588C1133.01 752.017 1140.81 750.665 1144.42 749.936C1143.32 749.772 1140.79 749.197 1139.48 748.2C1138.16 747.204 1137.86 746.121 1137.87 745.705L1135.3 742.425C1137.34 742.516 1141.68 742.859 1142.71 743.495C1143.73 744.131 1146.71 746.428 1148.07 747.497C1149.94 747.874 1153.89 748.65 1154.79 748.731C1155.68 748.812 1156.33 747.512 1156.54 746.852L1157.56 746.387L1160.66 748.809C1161.66 748.969 1163.91 749.322 1164.96 749.459C1166 749.595 1162.94 748.179 1161.27 747.454C1159.58 745.769 1156.2 742.211 1156.23 741.461C1156.25 740.711 1157.25 740.683 1157.75 740.763L1163.11 743.076C1162.32 740.88 1160.8 736.202 1161.14 735.063C1161.48 733.923 1162.13 734.2 1162.41 734.481C1164.14 736.251 1167.63 739.904 1167.71 740.358C1167.8 740.811 1168.57 743.245 1168.95 744.405C1168.73 742.249 1168.6 737.398 1169.83 735.239C1171.06 733.079 1172.04 739.403 1172.38 742.834C1172.15 744.015 1171.71 746.677 1171.77 747.88C1171.84 749.384 1173.34 751.313 1174.21 751.531C1174.9 751.705 1174.85 752.366 1174.73 752.675C1172.6 752.163 1168 751.078 1166.66 750.831C1164.98 750.523 1157.44 749.824 1156.06 749.838C1154.68 749.853 1150.91 748.659 1147.48 750.229C1144.73 751.485 1134.56 752.346 1129.81 752.62C1128.24 750.063 1124.58 745.081 1122.61 745.614C1120.64 746.146 1115.86 748.549 1113.71 749.684C1112.78 749.652 1110.74 749.506 1110.1 749.184C1109.46 748.861 1111.21 747.804 1112.17 747.316C1109.54 746.62 1104.88 745.237 1107.24 745.268C1109.59 745.3 1112.86 744.692 1114.21 744.384C1112.43 743.301 1108.7 740.877 1107.99 739.852C1107.09 738.57 1113.39 740.915 1114.61 740.206C1115.58 739.639 1113.1 733.773 1111.74 730.911C1114.03 732.22 1118.72 735.094 1119.19 736.111C1119.65 737.128 1119.88 733.132 1119.93 731.007C1121.21 733.032 1123.83 737.648 1124 739.906C1124.17 742.164 1124.32 744.833 1124.37 745.884Z" stroke="#32A2A9" stroke-width="0.279609"/>
<path d="M669.727 655.587C672.014 656.017 679.81 654.664 683.422 653.935C682.322 653.771 679.794 653.196 678.477 652.199C677.161 651.203 676.86 650.12 676.875 649.704L674.298 646.424C676.339 646.515 680.677 646.858 681.706 647.494C682.735 648.13 685.712 650.427 687.072 651.496C688.936 651.873 692.888 652.649 693.786 652.73C694.684 652.811 695.33 651.511 695.54 650.851L696.557 650.386L699.664 652.808C700.659 652.968 702.912 653.321 703.958 653.458C705.004 653.594 701.938 652.178 700.274 651.453C698.581 649.768 695.201 646.21 695.227 645.46C695.253 644.71 696.255 644.683 696.752 644.762L702.115 647.075C701.315 644.879 699.801 640.201 700.14 639.062C700.48 637.922 701.13 638.199 701.412 638.48C703.144 640.25 706.629 643.903 706.713 644.357C706.798 644.81 707.573 647.244 707.949 648.404C707.732 646.248 707.604 641.397 708.83 639.238C710.056 637.078 711.042 643.402 711.382 646.833C711.154 648.014 710.711 650.676 710.769 651.88C710.842 653.383 712.339 655.312 713.208 655.53C713.902 655.704 713.846 656.365 713.731 656.674C711.601 656.162 707.005 655.077 705.662 654.83C703.984 654.522 696.438 653.823 695.061 653.837C693.685 653.852 689.91 652.658 686.477 654.228C683.731 655.484 673.558 656.345 668.815 656.619C668.101 655.463 666.964 653.812 665.75 652.399C665.28 651.923 664.787 651.408 664.279 650.864C663.287 649.966 662.337 649.417 661.613 649.613C659.643 650.145 654.859 652.548 652.714 653.683C651.776 653.651 649.742 653.505 649.103 653.183C648.463 652.861 650.214 651.803 651.169 651.315C648.545 650.62 643.884 649.236 646.235 649.267C648.587 649.299 651.865 648.691 653.21 648.383C651.433 647.3 647.701 644.876 646.986 643.851C646.092 642.569 652.392 644.914 653.605 644.205C654.576 643.638 652.097 637.772 650.737 634.91C653.027 636.219 657.724 639.093 658.189 640.11C658.654 641.127 658.876 637.131 658.929 635.006C660.214 637.031 662.828 641.647 663 643.905C663.172 646.163 663.321 648.832 663.374 649.883C663.68 650.219 663.982 650.547 664.279 650.864C664.767 651.307 665.264 651.834 665.75 652.399C667.535 654.206 668.993 655.449 669.727 655.587Z" fill="white"/>
<path d="M653.742 638.454C656.129 641.472 659.988 646.169 663.374 649.883M663.374 649.883C666.195 652.978 668.687 655.392 669.727 655.587C672.014 656.017 679.81 654.664 683.422 653.935C682.322 653.771 679.794 653.196 678.477 652.199C677.161 651.203 676.86 650.12 676.875 649.704L674.298 646.424C676.339 646.515 680.677 646.858 681.706 647.494C682.735 648.13 685.712 650.427 687.072 651.496C688.936 651.873 692.888 652.649 693.786 652.73C694.684 652.811 695.33 651.511 695.54 650.851L696.557 650.386L699.664 652.808C700.659 652.968 702.912 653.321 703.958 653.458C705.004 653.594 701.938 652.178 700.274 651.453C698.581 649.768 695.201 646.21 695.227 645.46C695.253 644.71 696.255 644.683 696.752 644.762L702.115 647.075C701.315 644.879 699.801 640.201 700.14 639.062C700.48 637.922 701.13 638.199 701.412 638.48C703.144 640.25 706.629 643.903 706.713 644.357C706.798 644.81 707.573 647.244 707.949 648.404C707.732 646.248 707.604 641.397 708.83 639.238C710.056 637.078 711.042 643.402 711.382 646.833C711.154 648.014 710.711 650.676 710.769 651.88C710.842 653.383 712.339 655.312 713.208 655.53C713.902 655.704 713.846 656.365 713.731 656.674C711.601 656.162 707.005 655.077 705.662 654.83C703.984 654.522 696.438 653.823 695.061 653.837C693.685 653.852 689.91 652.658 686.477 654.228C683.731 655.484 673.558 656.345 668.815 656.619C667.235 654.062 663.583 649.08 661.613 649.613C659.643 650.145 654.859 652.548 652.714 653.683C651.776 653.651 649.742 653.505 649.103 653.183C648.463 652.861 650.214 651.803 651.169 651.315C648.545 650.62 643.884 649.236 646.235 649.267C648.587 649.299 651.865 648.691 653.21 648.383C651.433 647.3 647.701 644.876 646.986 643.851C646.092 642.569 652.392 644.914 653.605 644.205C654.576 643.638 652.097 637.772 650.737 634.91C653.027 636.219 657.724 639.093 658.189 640.11C658.654 641.127 658.876 637.131 658.929 635.006C660.214 637.031 662.828 641.647 663 643.905C663.172 646.163 663.321 648.832 663.374 649.883Z" stroke="white" stroke-width="0.279609"/>
<path d="M669.727 475.587C672.014 476.017 679.81 474.664 683.422 473.935C682.322 473.771 679.794 473.196 678.477 472.199C677.161 471.203 676.86 470.12 676.875 469.704L674.298 466.424C676.339 466.515 680.677 466.858 681.706 467.494C682.735 468.13 685.712 470.427 687.072 471.496C688.936 471.873 692.888 472.649 693.786 472.73C694.684 472.811 695.33 471.511 695.54 470.851L696.557 470.386L699.664 472.808C700.659 472.968 702.912 473.321 703.958 473.458C705.004 473.594 701.938 472.178 700.274 471.453C698.581 469.768 695.201 466.21 695.227 465.46C695.253 464.71 696.255 464.683 696.752 464.762L702.115 467.075C701.315 464.879 699.801 460.201 700.14 459.062C700.48 457.922 701.13 458.199 701.412 458.48C703.144 460.25 706.629 463.903 706.713 464.357C706.798 464.81 707.573 467.244 707.949 468.404C707.732 466.248 707.604 461.397 708.83 459.238C710.056 457.078 711.042 463.402 711.382 466.833C711.154 468.014 710.711 470.676 710.769 471.88C710.842 473.383 712.339 475.312 713.208 475.53C713.902 475.704 713.846 476.365 713.731 476.674C711.601 476.162 707.005 475.077 705.662 474.83C703.984 474.522 696.438 473.823 695.061 473.837C693.685 473.852 689.91 472.658 686.477 474.228C683.731 475.484 673.558 476.345 668.815 476.619C668.101 475.463 666.964 473.812 665.75 472.399C665.28 471.923 664.787 471.408 664.279 470.864C663.287 469.966 662.337 469.417 661.613 469.613C659.643 470.145 654.859 472.548 652.714 473.683C651.776 473.651 649.742 473.505 649.103 473.183C648.463 472.861 650.214 471.803 651.169 471.315C648.545 470.62 643.884 469.236 646.235 469.267C648.587 469.299 651.865 468.691 653.21 468.383C651.433 467.3 647.701 464.876 646.986 463.851C646.092 462.569 652.392 464.914 653.605 464.205C654.576 463.638 652.097 457.772 650.737 454.91C653.027 456.219 657.724 459.093 658.189 460.11C658.654 461.127 658.876 457.131 658.929 455.006C660.214 457.031 662.828 461.647 663 463.905C663.172 466.163 663.321 468.832 663.374 469.883C663.68 470.219 663.982 470.547 664.279 470.864C664.767 471.307 665.264 471.834 665.75 472.399C667.535 474.206 668.993 475.449 669.727 475.587Z" fill="white"/>
<path d="M653.742 458.454C656.129 461.472 659.988 466.169 663.374 469.883M663.374 469.883C666.195 472.978 668.687 475.392 669.727 475.587C672.014 476.017 679.81 474.664 683.422 473.935C682.322 473.771 679.794 473.196 678.477 472.199C677.161 471.203 676.86 470.12 676.875 469.704L674.298 466.424C676.339 466.515 680.677 466.858 681.706 467.494C682.735 468.13 685.712 470.427 687.072 471.496C688.936 471.873 692.888 472.649 693.786 472.73C694.684 472.811 695.33 471.511 695.54 470.851L696.557 470.386L699.664 472.808C700.659 472.968 702.912 473.321 703.958 473.458C705.004 473.594 701.938 472.178 700.274 471.453C698.581 469.768 695.201 466.21 695.227 465.46C695.253 464.71 696.255 464.683 696.752 464.762L702.115 467.075C701.315 464.879 699.801 460.201 700.14 459.062C700.48 457.922 701.13 458.199 701.412 458.48C703.144 460.25 706.629 463.903 706.713 464.357C706.798 464.81 707.573 467.244 707.949 468.404C707.732 466.248 707.604 461.397 708.83 459.238C710.056 457.078 711.042 463.402 711.382 466.833C711.154 468.014 710.711 470.676 710.769 471.88C710.842 473.383 712.339 475.312 713.208 475.53C713.902 475.704 713.846 476.365 713.731 476.674C711.601 476.162 707.005 475.077 705.662 474.831C703.984 474.522 696.438 473.823 695.061 473.837C693.685 473.852 689.91 472.658 686.477 474.228C683.731 475.484 673.558 476.345 668.815 476.619C667.235 474.062 663.583 469.08 661.613 469.613C659.643 470.145 654.859 472.548 652.714 473.683C651.776 473.651 649.742 473.505 649.103 473.183C648.463 472.861 650.214 471.803 651.169 471.315C648.545 470.62 643.884 469.236 646.235 469.267C648.587 469.299 651.865 468.691 653.21 468.383C651.433 467.3 647.701 464.876 646.986 463.851C646.092 462.569 652.392 464.914 653.605 464.205C654.576 463.638 652.097 457.772 650.737 454.91C653.027 456.219 657.724 459.093 658.189 460.11C658.654 461.127 658.876 457.131 658.929 455.006C660.214 457.031 662.828 461.647 663 463.905C663.172 466.163 663.321 468.832 663.374 469.883Z" stroke="white" stroke-width="0.279609"/>
<path d="M90 73.4434L511.99 0.29834V374.815H90V73.4434Z" fill="#759EA0"/>
<rect x="90" y="73.4438" width="458.563" height="661.118" fill="#34B1B9"/>
<path d="M98.4395 155.732V82.5869H171.584L98.4395 155.732Z" stroke="#FFC56F" stroke-width="12.1908"/>
<path d="M171.584 726.121H98.4395V652.976L171.584 726.121Z" stroke="#FFC56F" stroke-width="12.1908"/>
<path d="M466.978 81.8828H540.123V155.028L466.978 81.8828Z" stroke="#FFC56F" stroke-width="12.1908"/>
<path d="M540.123 652.976V726.121H466.978L540.123 652.976Z" stroke="#FFC56F" stroke-width="12.1908"/>
<path d="M382.217 327.552C378.771 328.683 366.449 328.188 360.718 327.799C362.384 327.322 366.173 325.916 368.004 324.107C369.834 322.297 370.077 320.564 369.97 319.923L373.28 314.328C370.146 314.887 363.513 316.303 362.053 317.496C360.593 318.69 356.462 322.848 354.579 324.777C351.777 325.742 345.829 327.747 344.458 328.056C343.087 328.365 341.823 326.489 341.363 325.512L339.696 325.001L335.392 329.38C333.886 329.83 330.478 330.836 328.889 331.261C327.3 331.685 331.749 328.871 334.172 327.41C336.444 324.46 340.939 318.272 340.745 317.118C340.552 315.965 338.998 316.127 338.245 316.352L330.432 321.022C331.219 317.465 332.603 309.927 331.845 308.236C331.087 306.545 330.14 307.106 329.761 307.598C327.447 310.687 322.809 317.044 322.771 317.762C322.734 318.48 322.034 322.398 321.689 324.267C321.584 320.893 320.79 313.371 318.454 310.285C316.118 307.199 315.887 317.171 316.064 322.543C316.658 324.321 317.887 328.344 318.042 330.215C318.237 332.554 316.318 335.84 315.021 336.354C313.983 336.765 314.205 337.775 314.446 338.229C317.633 337.003 324.513 334.386 326.537 333.73C329.067 332.911 340.583 330.287 342.714 330.029C344.844 329.77 350.432 327.153 356.057 328.877C360.557 330.257 376.452 329.507 383.837 328.96C384.704 327.028 386.124 324.244 387.711 321.812C388.339 320.982 388.995 320.086 389.669 319.141C391.017 317.55 392.374 316.508 393.532 316.662C396.686 317.082 404.568 319.817 408.116 321.133C409.557 320.891 412.671 320.25 413.593 319.621C414.515 318.992 411.594 317.717 410.018 317.157C413.93 315.546 420.849 312.455 417.223 312.985C413.596 313.514 408.406 313.245 406.265 313.044C408.789 311.007 414.06 306.5 414.955 304.769C416.074 302.605 406.82 307.517 404.8 306.67C403.185 305.992 405.815 296.421 407.332 291.72C404.061 294.212 397.391 299.612 396.88 301.279C396.37 302.946 395.21 296.816 394.693 293.543C393.122 296.936 390.027 304.602 390.223 308.127C390.419 311.651 390.734 315.804 390.867 317.44C390.463 318.022 390.063 318.59 389.669 319.141C389.006 319.924 388.345 320.84 387.711 321.812C385.321 324.97 383.323 327.189 382.217 327.552Z" fill="#E8B466"/>
<path d="M403.413 297.812C400.342 302.963 395.339 311.008 390.867 317.44M390.867 317.44C387.141 322.799 383.784 327.038 382.217 327.552C378.771 328.683 366.449 328.188 360.718 327.799C362.384 327.322 366.173 325.916 368.004 324.107C369.834 322.297 370.077 320.564 369.97 319.923L373.28 314.328C370.146 314.887 363.513 316.303 362.053 317.496C360.593 318.69 356.462 322.848 354.579 324.777C351.777 325.742 345.829 327.747 344.458 328.056C343.087 328.365 341.823 326.489 341.363 325.512L339.696 325.001L335.392 329.38C333.886 329.83 330.478 330.836 328.889 331.261C327.3 331.685 331.749 328.871 334.172 327.41C336.444 324.46 340.939 318.272 340.745 317.118C340.552 315.965 338.998 316.127 338.245 316.352L330.432 321.022C331.219 317.465 332.603 309.927 331.845 308.236C331.087 306.545 330.14 307.106 329.761 307.598C327.447 310.687 322.809 317.044 322.771 317.762C322.734 318.48 322.034 322.398 321.689 324.267C321.584 320.893 320.79 313.371 318.454 310.285C316.118 307.199 315.887 317.171 316.064 322.543C316.658 324.321 317.887 328.344 318.042 330.215C318.237 332.554 316.318 335.84 315.021 336.354C313.983 336.765 314.205 337.775 314.446 338.229C317.633 337.003 324.513 334.386 326.537 333.73C329.067 332.911 340.583 330.287 342.714 330.029C344.844 329.77 350.432 327.153 356.057 328.877C360.557 330.257 376.452 329.507 383.837 328.96C385.755 324.686 390.379 316.243 393.532 316.662C396.686 317.082 404.568 319.817 408.116 321.133C409.557 320.891 412.671 320.25 413.593 319.621C414.515 318.992 411.594 317.717 410.018 317.157C413.93 315.546 420.849 312.455 417.223 312.985C413.596 313.514 408.406 313.245 406.265 313.044C408.789 311.007 414.06 306.5 414.955 304.769C416.074 302.605 406.82 307.517 404.8 306.67C403.185 305.992 405.815 296.421 407.332 291.72C404.061 294.212 397.391 299.612 396.88 301.279C396.37 302.946 395.21 296.816 394.693 293.543C393.122 296.936 390.027 304.602 390.223 308.127C390.419 311.651 390.734 315.804 390.867 317.44Z" stroke="#E8B466" stroke-width="0.503776"/>
<path d="M241.781 329.287C245.333 330.343 257.902 329.483 263.743 328.921C262.029 328.481 258.119 327.154 256.197 325.36C254.275 323.565 253.978 321.801 254.069 321.144L250.527 315.526C253.744 316.006 260.559 317.261 262.084 318.438C263.609 319.615 267.947 323.742 269.926 325.659C272.815 326.563 278.947 328.44 280.356 328.716C281.765 328.992 283.001 327.04 283.443 326.029L285.131 325.459L289.653 329.806C291.203 330.223 294.713 331.153 296.347 331.54C297.982 331.928 293.358 329.182 290.842 327.76C288.437 324.813 283.668 318.622 283.833 317.439C283.997 316.256 285.588 316.376 286.364 316.584L294.477 321.129C293.571 317.519 291.941 309.861 292.667 308.112C293.392 306.364 294.375 306.909 294.776 307.4C297.228 310.488 302.148 316.847 302.207 317.579C302.266 318.311 303.093 322.292 303.5 324.192C303.51 320.742 304.104 313.038 306.401 309.819C308.697 306.6 309.22 316.778 309.194 322.269C308.638 324.101 307.5 328.245 307.394 330.16C307.263 332.554 309.317 335.855 310.657 336.343C311.728 336.733 311.53 337.771 311.297 338.241C308.008 337.08 300.907 334.606 298.821 333.995C296.213 333.231 284.377 330.883 282.194 330.68C280.011 330.477 274.229 327.965 268.534 329.888C263.978 331.426 247.725 331.118 240.167 330.772C239.226 328.824 237.696 326.022 236.006 323.584C235.34 322.753 234.644 321.857 233.929 320.912C232.506 319.326 231.091 318.301 229.912 318.492C226.704 319.011 218.733 322.031 215.148 323.476C213.669 323.271 210.471 322.706 209.511 322.09C208.551 321.474 211.498 320.088 213.091 319.472C209.049 317.938 201.895 314.981 205.613 315.417C209.332 315.854 214.624 315.43 216.806 315.163C214.17 313.155 208.657 308.704 207.693 306.962C206.487 304.784 216.08 309.534 218.118 308.611C219.748 307.873 216.787 298.174 215.103 293.417C218.515 295.868 225.481 301.191 226.051 302.878C226.62 304.566 227.629 298.273 228.061 294.916C229.764 298.335 233.145 306.075 233.046 309.68C232.947 313.285 232.745 317.535 232.657 319.21C233.086 319.792 233.511 320.36 233.929 320.912C234.628 321.693 235.33 322.609 236.006 323.584C238.537 326.74 240.641 328.948 241.781 329.287Z" fill="#E8B466"/>
<path d="M219.28 299.525C222.564 304.697 227.904 312.769 232.657 319.21M232.657 319.21C236.616 324.575 240.166 328.807 241.781 329.287C245.333 330.343 257.902 329.483 263.743 328.921C262.029 328.481 258.119 327.154 256.197 325.36C254.275 323.565 253.978 321.801 254.069 321.144L250.527 315.526C253.744 316.006 260.559 317.261 262.084 318.438C263.609 319.615 267.947 323.742 269.926 325.659C272.815 326.563 278.947 328.44 280.356 328.716C281.765 328.992 283.001 327.04 283.443 326.029L285.131 325.459L289.653 329.806C291.203 330.223 294.713 331.153 296.347 331.54C297.982 331.928 293.358 329.182 290.842 327.76C288.437 324.813 283.668 318.622 283.833 317.439C283.997 316.256 285.588 316.376 286.364 316.584L294.477 321.129C293.571 317.519 291.941 309.861 292.667 308.112C293.392 306.364 294.375 306.909 294.776 307.4C297.228 310.488 302.148 316.847 302.207 317.579C302.266 318.311 303.093 322.292 303.5 324.192C303.51 320.742 304.104 313.038 306.401 309.819C308.697 306.6 309.22 316.778 309.194 322.269C308.638 324.101 307.5 328.245 307.394 330.16C307.263 332.554 309.317 335.855 310.657 336.343C311.728 336.733 311.53 337.771 311.297 338.241C308.008 337.08 300.907 334.606 298.821 333.995C296.213 333.231 284.377 330.883 282.194 330.68C280.011 330.477 274.229 327.965 268.534 329.888C263.978 331.426 247.725 331.118 240.167 330.772C238.086 326.462 233.12 317.972 229.912 318.492C226.704 319.011 218.733 322.031 215.148 323.476C213.669 323.271 210.471 322.706 209.511 322.09C208.551 321.474 211.498 320.088 213.091 319.472C209.049 317.938 201.895 314.981 205.613 315.417C209.332 315.854 214.624 315.43 216.806 315.163C214.17 313.155 208.657 308.704 207.693 306.962C206.487 304.784 216.08 309.534 218.118 308.611C219.748 307.873 216.787 298.174 215.103 293.417C218.515 295.868 225.481 301.191 226.051 302.878C226.62 304.566 227.629 298.273 228.061 294.916C229.764 298.335 233.145 306.075 233.046 309.68C232.947 313.285 232.745 317.535 232.657 319.21Z" stroke="#E8B466" stroke-width="0.445228"/>
<path d="M44.27 844.716C53.996 766.268 79.2799 627.433 91.6879 562.866V552.325L90.0607 539.308C89.6411 535.951 88.8457 532.652 87.6896 529.473L86.4503 526.065C86.4287 526.006 86.4103 525.956 86.3888 525.896C85.9756 524.755 81.3793 511.837 86.4179 515.436C91.6879 519.2 108.401 528.687 118.037 530.493C130.083 532.752 145.14 537.269 160.197 537.269C175.254 537.269 193.322 535.011 208.379 525.976C220.425 518.749 222.503 504.143 231.717 510.167C239.886 515.506 237.129 511.059 230.585 531.138C229.271 535.171 228.766 539.42 229.229 543.636C229.894 549.685 231.036 558.1 231.717 562.866C249.033 660.736 282.61 858.132 278.394 864.757C273.124 873.038 228.706 912.187 212.896 912.187C197.086 912.187 124.06 914.445 103.733 912.187C91.7868 910.859 71.5242 894.01 56.1395 879.192C46.8754 870.269 42.6874 857.481 44.27 844.716Z" fill="#34B1B9"/>
<path d="M91.6879 562.866C79.2799 627.433 53.996 766.268 44.27 844.716C42.6874 857.481 46.8754 870.269 56.1395 879.192C71.5242 894.01 91.7868 910.859 103.733 912.187C124.06 914.445 197.086 912.187 212.896 912.187C228.706 912.187 273.124 873.038 278.394 864.757C282.61 858.132 249.033 660.736 231.717 562.866M91.6879 562.866V562.866C91.6879 561.22 93.7271 560.368 94.9321 561.489C99.406 565.649 107.744 572.797 115.026 575.664C122.718 578.693 134.077 579.867 136.938 580.124C137.391 580.164 137.833 580.204 138.285 580.25C141.21 580.545 152.987 581.687 160.197 581.687C168.478 581.687 182.609 582.829 196.333 579.428C211.143 575.759 231.717 562.866 231.717 562.866M91.6879 562.866V552.325L90.0607 539.308C89.6411 535.951 88.8457 532.652 87.6896 529.473L86.4503 526.065C86.4287 526.006 86.4103 525.956 86.3888 525.896C85.9756 524.755 81.3793 511.837 86.4179 515.436C91.6879 519.2 108.401 528.687 118.037 530.493C130.083 532.752 145.14 537.269 160.197 537.269C175.254 537.269 193.322 535.011 208.379 525.976C220.425 518.749 222.503 504.143 231.717 510.167C239.886 515.506 237.129 511.059 230.585 531.138C229.271 535.171 228.766 539.42 229.229 543.636C229.894 549.685 231.036 558.1 231.717 562.866" stroke="#89C3C7" stroke-width="7.52846"/>
<ellipse cx="160.197" cy="513.177" rx="80.5545" ry="33.8781" fill="#89C3C7"/>
<ellipse cx="6.02277" cy="3.01138" rx="6.02277" ry="3.01138" transform="matrix(-1 0 0 1 135.354 519.952)" fill="black"/>
<ellipse cx="6.02277" cy="3.01138" rx="6.02277" ry="3.01138" transform="matrix(-1 0 0 1 157.938 519.952)" fill="black"/>
<ellipse cx="6.02277" cy="3.01138" rx="6.02277" ry="3.01138" transform="matrix(-1 0 0 1 144.387 507.908)" fill="black"/>
<ellipse cx="6.02277" cy="3.01138" rx="6.02277" ry="3.01138" transform="matrix(-1 0 0 1 165.467 504.897)" fill="black"/>
<ellipse cx="6.02277" cy="3.01138" rx="6.02277" ry="3.01138" transform="matrix(-1 0 0 1 186.547 509.413)" fill="black"/>
<ellipse cx="6.02277" cy="3.01138" rx="6.02277" ry="3.01138" transform="matrix(-1 0 0 1 177.512 522.963)" fill="black"/>
<ellipse cx="6.02277" cy="3.01138" rx="6.02277" ry="3.01138" transform="matrix(-1 0 0 1 198.592 519.952)" fill="black"/>
<ellipse cx="10.5398" cy="5.26992" rx="10.5398" ry="5.26992" transform="matrix(-1 0 0 1 168.479 489.838)" fill="black"/>
<ellipse cx="6.02277" cy="3.01138" rx="6.02277" ry="3.01138" transform="matrix(-1 0 0 1 136.859 494.355)" fill="black"/>
<ellipse cx="6.02277" cy="3.01138" rx="6.02277" ry="3.01138" transform="matrix(-1 0 0 1 121.801 504.897)" fill="black"/>
<ellipse cx="6.02277" cy="3.01138" rx="6.02277" ry="3.01138" transform="matrix(-1 0 0 1 192.57 495.861)" fill="black"/>
<ellipse cx="6.02277" cy="3.01138" rx="6.02277" ry="3.01138" transform="matrix(-1 0 0 1 210.637 504.897)" fill="black"/>
<path d="M194.516 758.944C192.499 759.578 190.822 759.627 189.485 759.089C188.14 758.524 187.205 757.41 186.682 755.748L184.175 747.776C183.867 746.795 183.529 746.198 183.162 745.984C182.823 745.761 182.217 745.787 181.345 746.061L180.575 745.899L179.989 742.894C180.971 742.016 181.899 741.11 182.773 740.176C183.675 739.234 184.466 738.371 185.148 737.587C185.83 736.804 186.365 736.172 186.753 735.69C187.159 735.173 187.362 734.914 187.362 734.914L189.199 735.325C189.199 735.325 189.246 735.715 189.341 736.493C189.428 737.245 189.604 738.282 189.871 739.606L193.266 738.403L193.561 738.625L194.204 742.241L190.65 743.224C190.921 744.277 191.218 745.412 191.541 746.628C191.882 747.808 192.28 749.121 192.734 750.565C193.017 751.464 193.395 752.094 193.867 752.455C194.332 752.788 194.891 752.852 195.545 752.646C196.008 752.5 196.441 752.304 196.842 752.058C197.235 751.785 197.432 751.648 197.432 751.648L198.6 753.077C198.6 753.077 198.465 753.36 198.193 753.924C197.913 754.462 197.559 755.097 197.13 755.831C196.73 756.556 196.298 757.231 195.836 757.855C195.365 758.453 194.925 758.815 194.516 758.944Z" fill="black"/>
<path d="M169.982 764.01L169.886 760.296C170.358 760.165 170.709 760.01 170.942 759.829C171.17 759.621 171.304 759.369 171.346 759.073C171.411 758.745 171.404 758.327 171.325 757.819L168.503 739.523C168.386 738.761 168.23 738.221 168.037 737.904C167.867 737.554 167.55 737.372 167.085 737.357C166.644 737.31 165.958 737.358 165.026 737.501L164.769 737.237L164.618 734.009C166.475 733.491 168.329 732.959 170.182 732.413C172.034 731.868 173.885 731.308 175.733 730.733L176.284 731.776C176.182 732.427 176.123 733.26 176.106 734.275C176.089 735.289 176.133 736.511 176.237 737.94C176.342 739.369 176.498 741.036 176.705 742.941C176.908 744.817 177.182 746.972 177.529 749.404C177.871 751.809 178.272 754.507 178.734 757.5C178.812 758.008 178.938 758.35 179.109 758.526C179.281 758.702 179.55 758.762 179.917 758.705L181.266 758.454L181.439 758.731L181.411 762.204C180.301 762.317 179.193 762.445 178.088 762.586C176.982 762.728 176.048 762.857 175.286 762.975C174.608 763.08 173.778 763.222 172.794 763.403C171.814 763.612 170.877 763.814 169.982 764.01Z" fill="black"/>
<path d="M158.823 764.895C157.425 764.826 156.311 764.499 155.482 763.914C154.681 763.331 154.235 762.536 154.142 761.531L153.639 761.291C153.188 761.726 152.665 762.172 152.07 762.629C151.476 763.086 150.885 763.471 150.297 763.785C149.709 764.099 149.187 764.245 148.731 764.222C147.561 764.164 146.506 763.797 145.567 763.121C144.658 762.418 143.946 761.496 143.431 760.355C142.944 759.215 142.734 757.975 142.8 756.634C142.847 755.692 143.144 754.891 143.692 754.232C144.24 753.573 144.917 753.178 145.725 753.046L154.19 751.922L154.192 751.879C154.24 750.909 153.964 750.137 153.363 749.564C152.762 748.991 151.92 748.677 150.836 748.623C150.037 748.584 149.142 748.754 148.15 749.133C147.189 749.486 146.413 749.848 145.822 750.219L145.321 749.937L144.422 746.46C145.417 745.994 146.513 745.52 147.71 745.036C148.908 744.523 150.03 744.107 151.076 743.787C152.15 743.468 152.958 743.323 153.5 743.35C155.669 743.457 157.352 743.841 158.549 744.501C159.775 745.163 160.621 745.977 161.088 746.945C161.555 747.912 161.762 748.923 161.709 749.979C161.692 750.321 161.609 750.846 161.459 751.554C161.338 752.263 161.201 753.014 161.047 753.807C160.893 754.601 160.742 755.337 160.594 756.016C160.474 756.697 160.407 757.194 160.391 757.508C160.37 757.936 160.466 758.298 160.68 758.595C160.896 758.863 161.189 759.006 161.56 759.024C161.817 759.037 162.076 759.007 162.337 758.934C162.626 758.863 162.858 758.803 163.032 758.754L163.702 759.946C163.298 760.612 162.805 761.317 162.224 762.061C161.644 762.804 161.054 763.447 160.455 763.989C159.858 764.503 159.314 764.805 158.823 764.895ZM151.614 758.873C151.927 758.889 152.285 758.878 152.688 758.841C153.09 758.804 153.435 758.764 153.723 758.721L153.949 755.042L150.834 755.574C150.314 755.662 150.042 755.964 150.016 756.477C149.984 757.133 150.099 757.697 150.361 758.168C150.654 758.611 151.071 758.847 151.614 758.873Z" fill="black"/>
<path d="M118.758 757.703C117.191 757.162 115.851 756.534 114.738 755.818C113.653 755.111 112.818 754.507 112.236 754.004C111.664 753.474 111.377 753.209 111.377 753.209L111.143 752.312C111.143 752.312 111.258 752.11 111.488 751.706C111.718 751.302 111.989 750.776 112.303 750.128C112.653 749.464 112.999 748.767 113.341 748.039C113.719 747.293 114.038 746.587 114.298 745.921L119.528 747.316C119.193 748.288 119.053 749.132 119.109 749.846C119.174 750.533 119.426 751.119 119.864 751.602C120.311 752.058 120.912 752.417 121.669 752.678C122.506 752.966 123.205 753.041 123.767 752.902C124.355 752.773 124.738 752.452 124.915 751.938C125.12 751.344 125.009 750.747 124.581 750.146C124.19 749.528 123.614 748.876 122.853 748.19C122.092 747.505 121.3 746.779 120.477 746.011C119.609 745.198 118.809 744.318 118.078 743.371C117.356 742.397 116.848 741.33 116.552 740.171C116.284 739.021 116.392 737.743 116.876 736.339C117.482 734.583 118.521 733.234 119.994 732.292C121.494 731.359 123.297 730.862 125.403 730.802C127.518 730.716 129.831 731.105 132.343 731.971C133.829 732.484 135.12 733.034 136.216 733.624C137.312 734.213 138.165 734.719 138.775 735.141C139.385 735.563 139.69 735.774 139.69 735.774L139.869 736.832C139.869 736.832 139.685 737.147 139.317 737.775C138.959 738.377 138.499 739.185 137.937 740.201C137.402 741.225 136.872 742.326 136.345 743.504L131.533 742.208L131.159 741.717C131.159 741.717 131.187 741.636 131.243 741.474C131.299 741.311 131.345 741.176 131.383 741.068C131.708 740.123 131.694 739.332 131.339 738.696C130.994 738.033 130.348 737.539 129.403 737.213C128.647 736.952 127.965 736.914 127.358 737.097C126.787 737.263 126.408 737.616 126.222 738.156C126.036 738.696 126.116 739.253 126.462 739.825C126.809 740.398 127.3 740.99 127.935 741.602C128.606 742.196 129.323 742.836 130.083 743.522C131.033 744.362 131.927 745.275 132.766 746.259C133.605 747.244 134.208 748.343 134.575 749.558C134.951 750.745 134.879 752.095 134.357 753.607C133.752 755.363 132.717 756.698 131.253 757.614C129.789 758.529 127.996 758.999 125.872 759.022C123.749 759.046 121.377 758.606 118.758 757.703Z" fill="black"/>
<path d="M207.741 702.558C205.439 703.314 197.206 702.983 193.378 702.723C194.491 702.404 197.022 701.465 198.245 700.256C199.469 699.048 199.631 697.889 199.559 697.461L201.771 693.724C199.677 694.097 195.245 695.043 194.27 695.84C193.295 696.637 190.535 699.415 189.277 700.705C187.404 701.349 183.431 702.689 182.515 702.895C181.599 703.102 180.755 701.848 180.447 701.195L179.334 700.854L176.458 703.779C175.452 704.08 173.175 704.752 172.113 705.036C171.052 705.32 174.024 703.439 175.643 702.463C177.161 700.493 180.164 696.358 180.035 695.587C179.905 694.817 178.867 694.925 178.364 695.076L173.144 698.196C173.67 695.819 174.594 690.783 174.088 689.654C173.582 688.524 172.949 688.898 172.696 689.227C171.15 691.291 168.051 695.538 168.026 696.018C168.001 696.497 167.533 699.115 167.303 700.364C167.233 698.109 166.702 693.084 165.142 691.022C163.581 688.96 163.427 695.623 163.545 699.212C163.942 700.399 164.763 703.087 164.867 704.337C164.997 705.9 163.715 708.095 162.848 708.439C162.155 708.713 162.303 709.388 162.464 709.691C164.593 708.872 169.189 707.124 170.542 706.686C172.232 706.138 179.926 704.386 181.349 704.213C182.773 704.04 186.506 702.292 190.264 703.443C193.271 704.365 203.89 703.864 208.823 703.499C209.403 702.208 210.351 700.348 211.411 698.724C211.831 698.169 212.27 697.57 212.72 696.939C213.621 695.876 214.527 695.18 215.301 695.283C217.407 695.563 222.674 697.391 225.044 698.269C226.007 698.108 228.087 697.68 228.703 697.259C229.319 696.839 227.367 695.987 226.315 695.614C228.929 694.537 233.551 692.472 231.128 692.826C228.705 693.179 225.238 693 223.807 692.866C225.493 691.505 229.015 688.493 229.613 687.337C230.361 685.891 224.178 689.173 222.829 688.607C221.749 688.154 223.507 681.76 224.52 678.619C222.335 680.284 217.879 683.892 217.538 685.006C217.196 686.119 216.421 682.024 216.077 679.837C215.026 682.104 212.959 687.226 213.09 689.58C213.221 691.935 213.431 694.71 213.52 695.803C213.25 696.191 212.983 696.571 212.72 696.939C212.277 697.462 211.835 698.074 211.411 698.724C209.815 700.833 208.48 702.316 207.741 702.558Z" fill="#E8B466"/>
<path d="M221.902 682.689C219.85 686.13 216.508 691.505 213.52 695.803M213.52 695.803C211.031 699.383 208.788 702.215 207.741 702.558C205.439 703.314 197.206 702.983 193.378 702.723C194.491 702.404 197.022 701.465 198.245 700.256C199.469 699.048 199.631 697.889 199.559 697.461L201.771 693.724C199.677 694.097 195.245 695.043 194.27 695.84C193.295 696.637 190.535 699.415 189.277 700.705C187.404 701.349 183.431 702.689 182.515 702.895C181.599 703.102 180.755 701.848 180.447 701.195L179.334 700.854L176.458 703.779C175.452 704.08 173.175 704.752 172.113 705.036C171.052 705.32 174.024 703.439 175.643 702.463C177.161 700.493 180.164 696.358 180.035 695.587C179.905 694.817 178.867 694.925 178.364 695.076L173.144 698.196C173.67 695.819 174.594 690.783 174.088 689.654C173.582 688.524 172.949 688.898 172.696 689.227C171.15 691.291 168.051 695.538 168.026 696.018C168.001 696.497 167.533 699.115 167.303 700.364C167.233 698.109 166.702 693.084 165.142 691.022C163.581 688.96 163.427 695.623 163.545 699.212C163.942 700.399 164.763 703.087 164.867 704.337C164.997 705.9 163.715 708.095 162.848 708.439C162.155 708.713 162.303 709.388 162.464 709.691C164.593 708.872 169.189 707.124 170.542 706.686C172.232 706.138 179.926 704.386 181.349 704.213C182.773 704.04 186.506 702.292 190.264 703.443C193.271 704.365 203.89 703.864 208.823 703.499C210.105 700.643 213.194 695.002 215.301 695.283C217.407 695.563 222.674 697.391 225.044 698.269C226.007 698.108 228.087 697.68 228.703 697.259C229.319 696.839 227.367 695.987 226.315 695.614C228.929 694.537 233.551 692.472 231.128 692.826C228.705 693.179 225.238 693 223.807 692.866C225.493 691.505 229.015 688.493 229.613 687.337C230.361 685.891 224.178 689.173 222.829 688.607C221.749 688.154 223.507 681.76 224.52 678.619C222.335 680.284 217.879 683.892 217.538 685.006C217.196 686.119 216.421 682.024 216.077 679.837C215.026 682.104 212.959 687.226 213.09 689.58C213.221 691.935 213.431 694.71 213.52 695.803Z" stroke="#E8B466" stroke-width="0.336567"/>
<path d="M113.916 703.717C116.289 704.423 124.687 703.848 128.589 703.473C127.443 703.179 124.831 702.293 123.547 701.093C122.264 699.894 122.065 698.716 122.126 698.277L119.76 694.524C121.909 694.845 126.461 695.683 127.48 696.469C128.499 697.255 131.398 700.013 132.719 701.293C134.65 701.897 138.747 703.151 139.688 703.336C140.629 703.52 141.455 702.216 141.75 701.541L142.878 701.16L145.899 704.064C146.935 704.343 149.279 704.964 150.371 705.223C151.464 705.482 148.374 703.647 146.693 702.697C145.087 700.728 141.901 696.592 142.01 695.802C142.12 695.011 143.184 695.092 143.701 695.231L149.122 698.267C148.517 695.855 147.428 690.739 147.912 689.571C148.397 688.403 149.054 688.767 149.322 689.095C150.96 691.158 154.247 695.407 154.286 695.896C154.326 696.384 154.878 699.044 155.15 700.313C155.156 698.009 155.554 692.862 157.088 690.711C158.622 688.561 158.972 695.36 158.954 699.029C158.583 700.253 157.822 703.021 157.752 704.301C157.664 705.9 159.036 708.105 159.931 708.431C160.647 708.692 160.515 709.385 160.359 709.699C158.162 708.924 153.418 707.271 152.024 706.863C150.282 706.352 142.374 704.783 140.916 704.648C139.457 704.512 135.594 702.834 131.79 704.119C128.746 705.146 117.887 704.941 112.838 704.709C112.21 703.408 111.187 701.536 110.058 699.907C109.613 699.352 109.148 698.754 108.67 698.122C107.72 697.062 106.774 696.378 105.987 696.505C103.844 696.852 98.518 698.87 96.1231 699.835C95.1349 699.698 92.9982 699.321 92.357 698.909C91.7158 698.498 93.6844 697.572 94.7489 697.16C92.0484 696.136 87.2687 694.16 89.7531 694.451C92.2375 694.743 95.7731 694.459 97.2304 694.281C95.4694 692.94 91.7863 689.966 91.1422 688.802C90.337 687.347 96.7456 690.521 98.1071 689.904C99.1963 689.411 97.218 682.931 96.0926 679.753C98.3721 681.39 103.026 684.947 103.407 686.074C103.788 687.201 104.461 682.997 104.75 680.754C105.888 683.039 108.147 688.21 108.081 690.618C108.015 693.026 107.88 695.866 107.82 696.985C108.107 697.374 108.391 697.753 108.67 698.122C109.138 698.644 109.606 699.256 110.058 699.907C111.749 702.016 113.155 703.491 113.916 703.717Z" fill="#E8B466"/>
<path d="M98.8833 683.834C101.078 687.289 104.645 692.682 107.82 696.985M107.82 696.985C110.465 700.569 112.838 703.397 113.916 703.717C116.289 704.423 124.687 703.848 128.589 703.473C127.443 703.179 124.831 702.293 123.547 701.093C122.264 699.894 122.065 698.716 122.126 698.277L119.76 694.524C121.909 694.845 126.461 695.683 127.48 696.469C128.499 697.255 131.398 700.013 132.719 701.293C134.65 701.897 138.747 703.151 139.688 703.336C140.629 703.52 141.455 702.216 141.75 701.541L142.878 701.16L145.899 704.064C146.935 704.343 149.279 704.964 150.371 705.223C151.464 705.482 148.374 703.647 146.693 702.697C145.087 700.728 141.901 696.592 142.01 695.802C142.12 695.011 143.184 695.092 143.701 695.231L149.122 698.267C148.517 695.855 147.428 690.739 147.912 689.571C148.397 688.403 149.054 688.767 149.322 689.095C150.96 691.158 154.247 695.407 154.286 695.896C154.326 696.384 154.878 699.044 155.15 700.313C155.156 698.009 155.554 692.862 157.088 690.711C158.622 688.561 158.972 695.36 158.954 699.029C158.583 700.253 157.822 703.021 157.752 704.301C157.664 705.9 159.036 708.105 159.931 708.431C160.647 708.692 160.515 709.385 160.359 709.699C158.162 708.924 153.418 707.271 152.024 706.863C150.282 706.352 142.374 704.783 140.916 704.648C139.457 704.512 135.594 702.834 131.79 704.119C128.746 705.146 117.887 704.941 112.838 704.709C111.447 701.83 108.13 696.158 105.987 696.505C103.844 696.852 98.518 698.87 96.1231 699.835C95.1349 699.698 92.9982 699.321 92.357 698.909C91.7158 698.498 93.6844 697.572 94.7489 697.16C92.0484 696.136 87.2687 694.16 89.7531 694.451C92.2375 694.743 95.7731 694.459 97.2304 694.281C95.4694 692.94 91.7863 689.966 91.1422 688.802C90.337 687.347 96.7456 690.521 98.1071 689.904C99.1963 689.411 97.218 682.931 96.0926 679.753C98.3721 681.39 103.026 684.947 103.407 686.074C103.788 687.201 104.461 682.997 104.75 680.754C105.888 683.039 108.147 688.21 108.081 690.618C108.015 693.026 107.88 695.866 107.82 696.985Z" stroke="#E8B466" stroke-width="0.297452"/>
<path d="M303.335 845.727C312.432 764.902 330.446 622.568 344.11 556.288V545.442L342.336 532.218C341.858 528.652 340.956 525.156 339.648 521.805L338.329 518.422C338.305 518.36 338.284 518.308 338.26 518.246C337.8 517.063 332.733 503.782 338.292 507.484C344.11 511.357 362.559 521.118 373.196 522.978C386.493 525.302 403.114 529.95 419.735 529.95C436.356 529.95 456.301 527.626 472.922 518.329C486.218 510.893 488.512 495.864 498.684 502.061C507.672 507.538 504.678 503.009 497.505 523.44C496.003 527.717 495.432 532.253 495.967 536.755C496.705 542.959 497.942 551.45 498.684 556.288C517.798 656.996 538.09 860.115 533.436 866.932C527.619 875.453 493.698 903.199 472.922 915.736C458.271 924.577 395.215 926.836 357.818 915.736C345.487 912.077 329.48 896.561 315.791 882.359C306.401 872.618 301.822 859.171 303.335 845.727Z" fill="#D9E6E7"/>
<path d="M344.11 556.288C330.446 622.568 312.432 764.902 303.335 845.727C301.822 859.171 306.401 872.618 315.791 882.359C329.48 896.561 345.487 912.077 357.818 915.736C395.215 926.836 458.271 924.577 472.922 915.736C493.698 903.199 527.619 875.453 533.436 866.932C538.09 860.115 517.798 656.996 498.684 556.288M344.11 556.288V556.288C344.11 554.543 346.236 553.607 347.553 554.752C352.457 559.014 361.758 566.48 369.872 569.458C378.469 572.613 391.214 573.812 394.174 574.056C394.596 574.091 395.008 574.125 395.43 574.165C398.448 574.45 411.675 575.655 419.735 575.655C428.876 575.655 444.475 576.83 459.625 573.331C475.972 569.555 498.684 556.288 498.684 556.288M344.11 556.288V545.442L342.336 532.218C341.858 528.652 340.956 525.156 339.648 521.805L338.329 518.422C338.305 518.36 338.284 518.308 338.26 518.246C337.8 517.063 332.733 503.782 338.292 507.484C344.11 511.357 362.559 521.118 373.196 522.978C386.493 525.302 403.114 529.95 419.735 529.95C436.356 529.95 456.301 527.626 472.922 518.329C486.218 510.893 488.512 495.864 498.684 502.061C507.672 507.538 504.678 503.009 497.505 523.44C496.003 527.717 495.432 532.253 495.967 536.755C496.705 542.959 497.942 551.45 498.684 556.288" stroke="white" stroke-width="7.52846"/>
<ellipse cx="419.734" cy="505.159" rx="88.9217" ry="34.8603" fill="white"/>
<ellipse cx="6.64835" cy="3.09869" rx="6.64835" ry="3.09869" transform="matrix(-1 0 0 1 392.311 512.131)" fill="black"/>
<ellipse cx="6.64835" cy="3.09869" rx="6.64835" ry="3.09869" transform="matrix(-1 0 0 1 417.242 512.131)" fill="black"/>
<ellipse cx="6.64835" cy="3.09869" rx="6.64835" ry="3.09869" transform="matrix(-1 0 0 1 402.283 499.737)" fill="black"/>
<ellipse cx="6.64835" cy="3.09869" rx="6.64835" ry="3.09869" transform="matrix(-1 0 0 1 425.551 496.641)" fill="black"/>
<ellipse cx="6.64835" cy="3.09869" rx="6.64835" ry="3.09869" transform="matrix(-1 0 0 1 448.82 501.287)" fill="black"/>
<ellipse cx="6.64835" cy="3.09869" rx="6.64835" ry="3.09869" transform="matrix(-1 0 0 1 438.85 515.229)" fill="black"/>
<ellipse cx="6.64835" cy="3.09869" rx="6.64835" ry="3.09869" transform="matrix(-1 0 0 1 462.117 512.131)" fill="black"/>
<ellipse cx="11.6346" cy="5.42271" rx="11.6346" ry="5.42271" transform="matrix(-1 0 0 1 428.877 481.143)" fill="black"/>
<ellipse cx="6.64835" cy="3.09869" rx="6.64835" ry="3.09869" transform="matrix(-1 0 0 1 393.973 485.792)" fill="black"/>
<ellipse cx="6.64835" cy="3.09869" rx="6.64835" ry="3.09869" transform="matrix(-1 0 0 1 377.352 496.641)" fill="black"/>
<ellipse cx="6.64835" cy="3.09869" rx="6.64835" ry="3.09869" transform="matrix(-1 0 0 1 455.471 487.342)" fill="black"/>
<ellipse cx="6.64835" cy="3.09869" rx="6.64835" ry="3.09869" transform="matrix(-1 0 0 1 475.414 496.641)" fill="black"/>
<path d="M472.672 756.404C473.357 755.905 473.75 755.435 473.851 754.993C473.953 754.55 473.786 753.984 473.352 753.292L469.331 746.884C468.773 745.995 468.297 745.484 467.905 745.352C467.512 745.22 466.945 745.386 466.204 745.851C466.106 745.913 465.982 745.99 465.834 746.083C465.686 746.176 465.612 746.223 465.612 746.223L465.264 746.08L463.817 743.116C465.125 742.019 466.384 740.954 467.593 739.919C468.788 738.86 469.77 737.985 470.542 737.295C471.313 736.604 471.699 736.259 471.699 736.259L472.422 736.424C472.422 736.424 472.486 736.608 472.613 736.976C472.75 737.303 472.928 737.725 473.149 738.24C473.394 738.74 473.647 739.253 473.907 739.778L474.296 739.74C474.398 738.093 474.707 736.746 475.221 735.701C475.72 734.631 476.45 733.793 477.414 733.189C477.735 732.987 478.071 732.811 478.423 732.658C478.76 732.482 478.928 732.393 478.928 732.393L479.392 732.722C479.392 732.722 479.518 733.004 479.769 733.569C480.005 734.11 480.325 734.838 480.728 735.756C481.141 736.633 481.615 737.608 482.152 738.683C482.673 739.733 483.211 740.755 483.766 741.749L480.4 744.119C479.533 742.736 478.885 741.869 478.458 741.517C478.031 741.166 477.595 741.129 477.15 741.408C476.928 741.548 476.725 741.745 476.54 741.998C476.379 742.237 476.25 742.524 476.152 742.861C476.152 742.861 476.271 743.079 476.51 743.514C476.749 743.95 477.045 744.504 477.398 745.177C477.761 745.81 478.119 746.463 478.473 747.136C478.826 747.809 479.146 748.4 479.431 748.91C479.701 749.394 479.867 749.686 479.929 749.785C480.177 750.18 480.449 750.422 480.746 750.511C481.043 750.6 481.376 750.528 481.747 750.296C482.167 750.033 482.608 749.721 483.071 749.362C483.518 748.978 483.742 748.786 483.742 748.786L484.15 748.943L485.794 752.713C485.794 752.713 485.576 752.832 485.141 753.071C484.705 753.31 484.159 753.619 483.501 753.997C482.868 754.36 482.198 754.745 481.491 755.155C480.784 755.564 480.172 755.931 479.653 756.257C478.888 756.737 478.08 757.261 477.231 757.828C476.383 758.395 475.67 758.877 475.092 759.274C474.531 759.695 474.25 759.906 474.25 759.906L472.672 756.404Z" fill="black"/>
<path d="M459.145 766.909C457.786 767.35 456.606 767.443 455.603 767.186C454.627 766.92 453.913 766.324 453.459 765.399L452.892 765.353C452.621 765.932 452.284 766.547 451.882 767.198C451.481 767.85 451.057 768.432 450.61 768.945C450.163 769.457 449.718 769.786 449.275 769.93C448.138 770.299 446.999 770.332 445.858 770.028C444.736 769.687 443.722 769.066 442.816 768.164C441.938 767.254 441.287 766.147 440.864 764.844C440.567 763.928 440.56 763.057 440.843 762.229C441.126 761.402 441.629 760.779 442.352 760.36L450.018 756.216L450.005 756.175C449.699 755.232 449.155 754.596 448.374 754.267C447.593 753.938 446.675 753.945 445.622 754.287C444.845 754.539 444.053 755.026 443.245 755.748C442.456 756.433 441.847 757.06 441.419 757.629L440.839 757.541L438.718 754.551C439.499 753.746 440.372 752.895 441.338 751.999C442.295 751.075 443.214 750.271 444.096 749.587C445.005 748.893 445.723 748.461 446.249 748.29C448.357 747.605 450.102 747.361 451.483 747.556C452.892 747.742 453.995 748.212 454.791 748.965C455.587 749.718 456.152 750.608 456.485 751.634C456.593 751.967 456.704 752.498 456.818 753.227C456.96 753.947 457.102 754.714 457.243 755.526C457.384 756.338 457.507 757.095 457.612 757.797C457.745 758.49 457.861 758.988 457.96 759.293C458.095 759.709 458.319 760.02 458.631 760.225C458.934 760.403 459.265 760.433 459.626 760.316C459.875 760.235 460.111 760.112 460.334 759.948C460.584 759.775 460.784 759.634 460.932 759.524L462.004 760.418C461.859 761.2 461.645 762.051 461.361 762.971C461.078 763.891 460.748 764.718 460.374 765.453C459.99 766.16 459.581 766.645 459.145 766.909ZM450.083 763.782C450.388 763.683 450.726 763.542 451.096 763.361C451.467 763.179 451.781 763.016 452.041 762.87L450.921 759.28L448.142 760.918C447.679 761.191 447.528 761.577 447.69 762.076C447.897 762.714 448.212 763.209 448.633 763.563C449.073 763.88 449.557 763.953 450.083 763.782Z" fill="black"/>
<path d="M418.43 785.142C416.683 785.224 415.111 785.021 413.716 784.533C412.351 784.043 411.251 783.321 410.418 782.368C409.614 781.414 409.182 780.296 409.121 779.015C409.43 778.767 409.982 778.39 410.775 777.886C411.599 777.409 412.481 776.929 413.422 776.447L413.407 776.141C412.173 775.966 411.173 775.488 410.406 774.707C409.668 773.925 409.197 772.911 408.992 771.665C409.489 771.058 410.017 770.493 410.576 769.971C411.134 769.419 411.722 768.895 412.34 768.399L412.287 767.263L416.22 768.04C415.859 768.436 415.598 768.77 415.436 769.04C415.273 769.311 415.197 769.548 415.206 769.752C415.229 770.218 415.608 770.535 416.346 770.705C417.082 770.845 418.021 770.946 419.163 771.009C420.302 771.043 421.517 771.102 422.805 771.187C424.092 771.243 425.311 771.419 426.464 771.715C427.616 772.01 428.573 772.491 429.334 773.155C430.094 773.791 430.502 774.705 430.558 775.899C430.612 777.035 430.314 778.129 429.663 779.182C429.043 780.262 428.155 781.238 426.999 782.11C425.873 782.98 424.563 783.684 423.071 784.222C421.608 784.758 420.061 785.065 418.43 785.142ZM420.094 780.51C420.822 780.475 421.415 780.374 421.874 780.207C422.362 780.038 422.716 779.802 422.935 779.5C423.184 779.196 423.298 778.84 423.279 778.433C423.262 778.083 423.118 777.813 422.847 777.621C422.576 777.459 422.015 777.31 421.162 777.176C420.31 777.07 418.991 776.943 417.203 776.794C417.101 777.09 417.013 777.401 416.941 777.725C416.869 778.05 416.839 778.358 416.853 778.649C416.885 779.319 417.156 779.802 417.666 780.099C418.207 780.424 419.016 780.561 420.094 780.51ZM418.792 765.029C419.52 764.994 420.031 764.693 420.326 764.124C420.618 763.527 420.736 762.616 420.678 761.393C420.616 760.083 420.396 759.144 420.019 758.578C419.641 757.983 419.073 757.704 418.316 757.739C417.617 757.773 417.121 758.073 416.826 758.642C416.561 759.209 416.458 760.119 416.518 761.371C416.578 762.652 416.783 763.591 417.132 764.188C417.511 764.783 418.064 765.063 418.792 765.029ZM418.504 769.114C416.553 769.206 414.849 768.98 413.393 768.436C411.937 767.892 410.804 767.07 409.993 765.97C409.182 764.87 408.739 763.534 408.665 761.961C408.586 760.301 408.926 758.84 409.683 757.579C410.469 756.286 411.603 755.27 413.085 754.528C414.568 753.787 416.329 753.368 418.367 753.271C419.445 753.22 420.308 753.252 420.955 753.368C421.63 753.453 422.361 753.476 423.148 753.439C423.756 753.352 424.636 753.135 425.788 752.789C426.937 752.414 428.128 751.978 429.36 751.482L429.722 751.727L429.319 756.168C428.883 756.218 428.433 756.269 427.969 756.32C427.533 756.37 427.112 756.404 426.704 756.423L426.541 756.694C427.732 757.805 428.367 759.191 428.446 760.851C428.519 762.394 428.146 763.769 427.327 764.975C426.538 766.18 425.387 767.154 423.875 767.897C422.362 768.61 420.571 769.016 418.504 769.114Z" fill="black"/>
<path d="M377.234 755.122C377.395 754.441 377.42 753.953 377.311 753.657C377.201 753.362 376.905 753.157 376.423 753.043C376.139 752.976 375.88 752.929 375.646 752.904C375.419 752.85 375.306 752.823 375.306 752.823L376.483 749.372C377.68 749.505 378.866 749.621 380.041 749.72C381.216 749.818 382.288 749.907 383.258 749.987C384.235 750.039 385.017 750.089 385.604 750.138C386.199 750.159 386.496 750.169 386.496 750.169L386.827 751.237C386.577 751.537 386.293 752.039 385.976 752.743C385.667 753.419 385.331 754.268 384.969 755.291C384.613 756.285 384.263 757.386 383.917 758.592C383.578 759.77 383.258 760.998 382.956 762.275C382.539 764.034 382.941 765.058 384.161 765.346C384.388 765.4 384.685 765.411 385.052 765.378C385.455 765.323 385.864 765.24 386.28 765.129L388.023 757.767C388.211 756.972 388.243 756.456 388.12 756.217C387.997 755.978 387.598 755.764 386.924 755.574C386.867 755.561 386.796 755.544 386.711 755.524C386.655 755.51 386.598 755.497 386.541 755.483L387.92 752.125C389.061 752.245 390.201 752.365 391.341 752.485C392.487 752.577 393.546 752.662 394.516 752.742C395.485 752.822 396.264 752.887 396.852 752.936C397.439 752.985 397.733 753.01 397.733 753.01L398.107 754.087C397.751 754.452 397.312 755.232 396.789 756.427C396.302 757.6 395.779 759.049 395.221 760.774C394.697 762.478 394.201 764.323 393.73 766.309C393.623 766.763 393.649 767.158 393.809 767.496C393.975 767.805 394.243 768.003 394.612 768.09C394.839 768.144 395.058 768.166 395.27 768.157C395.511 768.154 395.709 768.14 395.864 768.117C396.019 768.094 396.097 768.083 396.097 768.083L396.558 769.36C396.558 769.36 396.366 769.54 395.982 769.898C395.597 770.256 395.076 770.687 394.417 771.19C393.787 771.7 393.093 772.165 392.334 772.585C391.583 772.976 390.836 773.219 390.095 773.313C387.144 772.614 385.73 771.186 385.851 769.027L385.443 768.661C384.414 769.466 383.517 770.093 382.751 770.541C382.014 770.995 381.504 771.189 381.22 771.122C378.695 770.524 376.88 769.585 375.775 768.305C374.705 767.003 374.395 765.401 374.845 763.5L377.234 755.122Z" fill="black"/>
<path d="M346.616 756.869C345.148 756.029 343.925 755.144 342.945 754.214C341.991 753.299 341.27 752.533 340.783 751.918C340.309 751.278 340.073 750.958 340.073 750.958L340.008 750.014C340.008 750.014 340.162 749.833 340.47 749.471C340.777 749.11 341.15 748.635 341.588 748.046C342.066 747.446 342.545 746.813 343.027 746.148C343.548 745.472 344.002 744.825 344.39 744.207L349.368 746.602C348.846 747.513 348.546 748.332 348.465 749.059C348.4 749.761 348.541 750.395 348.887 750.963C349.249 751.506 349.783 751.98 350.492 752.386C351.276 752.835 351.963 753.043 352.553 753.011C353.168 752.993 353.613 752.744 353.888 752.263C354.206 751.707 354.209 751.086 353.894 750.403C353.62 749.708 353.167 748.945 352.534 748.113C351.902 747.28 351.246 746.401 350.567 745.475C349.852 744.495 349.218 743.46 348.665 742.371C348.127 741.257 347.821 740.09 347.745 738.872C347.696 737.667 348.047 736.407 348.8 735.091C349.742 733.447 351.041 732.292 352.697 731.628C354.379 730.978 356.282 730.824 358.404 731.165C360.541 731.481 362.786 732.313 365.14 733.659C366.532 734.456 367.721 735.254 368.707 736.054C369.694 736.854 370.453 737.523 370.984 738.063C371.516 738.602 371.781 738.871 371.781 738.871L371.759 739.967C371.759 739.967 371.514 740.247 371.026 740.807C370.552 741.342 369.937 742.065 369.18 742.976C368.449 743.901 367.707 744.904 366.954 745.985L362.377 743.769L362.096 743.204C362.096 743.204 362.139 743.129 362.226 742.977C362.313 742.825 362.385 742.698 362.443 742.597C362.95 741.712 363.086 740.916 362.852 740.211C362.632 739.48 362.079 738.861 361.193 738.354C360.484 737.949 359.808 737.78 359.165 737.849C358.561 737.906 358.114 738.188 357.824 738.694C357.535 739.2 357.509 739.773 357.747 740.413C357.985 741.054 358.365 741.741 358.885 742.475C359.445 743.199 360.041 743.977 360.673 744.809C361.465 745.833 362.187 746.918 362.841 748.065C363.495 749.212 363.89 750.429 364.026 751.717C364.177 752.979 363.848 754.319 363.036 755.736C362.095 757.38 360.803 758.522 359.161 759.161C357.519 759.8 355.631 759.929 353.498 759.548C351.364 759.167 349.07 758.274 346.616 756.869Z" fill="black"/>
<path d="M461.848 714.496C459.766 715.179 452.325 714.88 448.865 714.645C449.871 714.357 452.159 713.508 453.264 712.415C454.37 711.323 454.516 710.276 454.452 709.889L456.451 706.511C454.558 706.848 450.552 707.703 449.671 708.424C448.789 709.144 446.295 711.655 445.158 712.821C443.465 713.403 439.873 714.614 439.046 714.801C438.218 714.987 437.455 713.854 437.177 713.264L436.17 712.956L433.571 715.6C432.662 715.871 430.604 716.479 429.644 716.736C428.685 716.992 431.371 715.292 432.834 714.41C434.206 712.629 436.921 708.892 436.804 708.195C436.687 707.499 435.749 707.597 435.294 707.733L430.576 710.553C431.051 708.405 431.887 703.853 431.429 702.832C430.971 701.811 430.4 702.149 430.171 702.446C428.773 704.312 425.972 708.151 425.95 708.584C425.927 709.018 425.504 711.384 425.296 712.513C425.233 710.475 424.753 705.933 423.343 704.069C421.932 702.205 421.793 708.227 421.899 711.471C422.258 712.545 423 714.974 423.094 716.104C423.212 717.516 422.053 719.501 421.27 719.811C420.643 720.06 420.777 720.67 420.922 720.943C422.847 720.203 427.001 718.623 428.224 718.227C429.752 717.732 436.706 716.148 437.992 715.992C439.279 715.835 442.654 714.255 446.05 715.296C448.768 716.129 458.366 715.677 462.826 715.346C463.349 714.18 464.206 712.499 465.165 711.03C465.544 710.528 465.941 709.987 466.348 709.417C467.162 708.456 467.981 707.827 468.68 707.92C470.585 708.173 475.345 709.825 477.487 710.619C478.357 710.473 480.238 710.086 480.794 709.707C481.351 709.327 479.587 708.557 478.635 708.219C480.998 707.246 485.176 705.38 482.986 705.699C480.796 706.019 477.662 705.856 476.369 705.735C477.893 704.505 481.076 701.783 481.617 700.738C482.293 699.431 476.704 702.397 475.485 701.886C474.509 701.477 476.097 695.697 477.013 692.858C475.038 694.363 471.011 697.624 470.702 698.631C470.394 699.637 469.693 695.936 469.382 693.959C468.432 696.008 466.564 700.637 466.682 702.766C466.8 704.894 466.99 707.402 467.071 708.39C466.827 708.741 466.585 709.084 466.348 709.417C465.947 709.89 465.548 710.443 465.165 711.03C463.722 712.937 462.515 714.277 461.848 714.496Z" fill="#E8B466"/>
<path d="M474.647 696.537C472.793 699.647 469.771 704.506 467.071 708.39M467.071 708.39C464.821 711.626 462.793 714.185 461.848 714.496C459.766 715.179 452.325 714.88 448.865 714.645C449.871 714.357 452.159 713.508 453.264 712.415C454.37 711.323 454.516 710.276 454.452 709.889L456.451 706.511C454.558 706.848 450.552 707.703 449.671 708.424C448.789 709.144 446.295 711.655 445.158 712.821C443.465 713.403 439.873 714.614 439.046 714.801C438.218 714.987 437.455 713.854 437.177 713.264L436.17 712.956L433.571 715.6C432.662 715.871 430.604 716.479 429.644 716.736C428.685 716.992 431.371 715.292 432.834 714.41C434.206 712.629 436.921 708.892 436.804 708.195C436.687 707.499 435.749 707.597 435.294 707.733L430.576 710.553C431.051 708.405 431.887 703.853 431.429 702.832C430.971 701.811 430.4 702.149 430.171 702.446C428.773 704.312 425.972 708.151 425.95 708.584C425.927 709.018 425.504 711.384 425.296 712.513C425.233 710.475 424.753 705.933 423.343 704.069C421.932 702.205 421.793 708.227 421.899 711.471C422.258 712.545 423 714.974 423.094 716.104C423.212 717.516 422.053 719.501 421.27 719.811C420.643 720.06 420.777 720.67 420.922 720.943C422.847 720.203 427.001 718.623 428.224 718.227C429.752 717.732 436.706 716.148 437.992 715.992C439.279 715.835 442.654 714.255 446.05 715.296C448.768 716.129 458.366 715.677 462.826 715.346C463.984 712.765 466.776 707.667 468.68 707.92C470.585 708.173 475.345 709.825 477.487 710.619C478.357 710.473 480.238 710.086 480.794 709.707C481.351 709.327 479.587 708.557 478.635 708.219C480.998 707.246 485.176 705.38 482.986 705.699C480.796 706.019 477.662 705.856 476.369 705.735C477.893 704.505 481.076 701.783 481.617 700.738C482.293 699.431 476.704 702.397 475.485 701.886C474.509 701.477 476.097 695.697 477.013 692.858C475.038 694.363 471.011 697.624 470.702 698.631C470.394 699.637 469.693 695.936 469.382 693.959C468.432 696.008 466.564 700.637 466.682 702.766C466.8 704.894 466.99 707.402 467.071 708.39Z" stroke="#E8B466" stroke-width="0.304216"/>
<path d="M377.042 715.543C379.187 716.181 386.778 715.662 390.305 715.322C389.27 715.057 386.909 714.256 385.748 713.172C384.588 712.088 384.408 711.023 384.463 710.626L382.324 707.233C384.267 707.523 388.382 708.281 389.303 708.992C390.224 709.703 392.844 712.195 394.038 713.352C395.783 713.898 399.486 715.032 400.337 715.198C401.188 715.365 401.934 714.186 402.201 713.576L403.22 713.232L405.951 715.857C406.887 716.108 409.007 716.67 409.994 716.904C410.981 717.138 408.189 715.48 406.669 714.621C405.217 712.842 402.337 709.103 402.436 708.389C402.536 707.674 403.497 707.747 403.965 707.873L408.864 710.617C408.317 708.437 407.333 703.813 407.771 702.757C408.209 701.701 408.803 702.03 409.045 702.327C410.526 704.191 413.496 708.031 413.532 708.473C413.568 708.915 414.067 711.32 414.313 712.466C414.319 710.383 414.678 705.731 416.065 703.787C417.452 701.844 417.767 707.989 417.752 711.305C417.416 712.412 416.728 714.914 416.665 716.071C416.585 717.516 417.826 719.51 418.635 719.804C419.282 720.04 419.162 720.666 419.022 720.95C417.035 720.25 412.747 718.756 411.487 718.386C409.913 717.925 402.765 716.507 401.447 716.385C400.129 716.262 396.637 714.745 393.198 715.906C390.447 716.835 380.632 716.649 376.068 716.44C375.5 715.264 374.576 713.572 373.555 712.099C373.153 711.598 372.733 711.057 372.301 710.486C371.442 709.528 370.587 708.909 369.875 709.024C367.938 709.338 363.124 711.162 360.96 712.034C360.067 711.91 358.135 711.569 357.556 711.197C356.976 710.826 358.756 709.988 359.718 709.616C357.277 708.69 352.956 706.905 355.202 707.168C357.448 707.431 360.643 707.175 361.961 707.014C360.369 705.802 357.04 703.114 356.458 702.062C355.73 700.747 361.522 703.615 362.753 703.058C363.738 702.612 361.949 696.755 360.932 693.882C362.993 695.362 367.199 698.577 367.543 699.596C367.888 700.615 368.496 696.815 368.758 694.787C369.786 696.852 371.828 701.526 371.768 703.703C371.708 705.88 371.586 708.447 371.533 709.458C371.792 709.809 372.049 710.153 372.301 710.486C372.723 710.957 373.147 711.511 373.555 712.099C375.084 714.005 376.354 715.339 377.042 715.543Z" fill="#E8B466"/>
<path d="M363.455 697.571C365.438 700.694 368.663 705.569 371.533 709.458M371.533 709.458C373.923 712.698 376.068 715.253 377.042 715.543C379.187 716.181 386.778 715.662 390.305 715.322C389.27 715.057 386.909 714.256 385.748 713.172C384.588 712.088 384.408 711.023 384.463 710.626L382.324 707.233C384.267 707.523 388.382 708.281 389.303 708.992C390.224 709.703 392.844 712.195 394.038 713.352C395.783 713.898 399.486 715.032 400.337 715.198C401.188 715.365 401.934 714.186 402.201 713.576L403.22 713.232L405.951 715.857C406.887 716.108 409.007 716.67 409.994 716.904C410.981 717.138 408.189 715.48 406.669 714.621C405.217 712.842 402.337 709.103 402.436 708.389C402.536 707.674 403.497 707.747 403.965 707.873L408.864 710.617C408.317 708.437 407.333 703.813 407.771 702.757C408.209 701.701 408.803 702.03 409.045 702.327C410.526 704.191 413.496 708.031 413.532 708.473C413.568 708.915 414.067 711.32 414.313 712.466C414.319 710.383 414.678 705.731 416.065 703.787C417.452 701.844 417.767 707.989 417.752 711.305C417.416 712.412 416.728 714.914 416.665 716.071C416.585 717.516 417.826 719.51 418.635 719.804C419.282 720.04 419.162 720.666 419.022 720.95C417.035 720.25 412.747 718.756 411.487 718.386C409.913 717.925 402.765 716.507 401.447 716.385C400.129 716.262 396.637 714.745 393.198 715.906C390.447 716.835 380.632 716.649 376.068 716.44C374.811 713.837 371.813 708.711 369.875 709.024C367.938 709.338 363.124 711.162 360.96 712.034C360.067 711.91 358.135 711.569 357.556 711.197C356.976 710.826 358.756 709.988 359.718 709.616C357.277 708.69 352.956 706.905 355.202 707.168C357.448 707.431 360.643 707.175 361.961 707.014C360.369 705.802 357.04 703.114 356.458 702.062C355.73 700.747 361.522 703.615 362.753 703.058C363.738 702.612 361.949 696.755 360.932 693.882C362.993 695.362 367.199 698.577 367.543 699.596C367.888 700.615 368.496 696.815 368.758 694.787C369.786 696.852 371.828 701.526 371.768 703.703C371.708 705.88 371.586 708.447 371.533 709.458Z" stroke="#E8B466" stroke-width="0.268861"/>
<defs>
<linearGradient id="paint0_linear_318_290" x1="603.457" y1="787.933" x2="450.126" y2="1209.62" gradientUnits="userSpaceOnUse">
<stop offset="0.145833" stop-color="white"/>
<stop offset="1" stop-color="#807F7F"/>
</linearGradient>
<clipPath id="clip0_318_290">
<rect width="786" height="143" fill="white" transform="translate(3 923)"/>
</clipPath>
</defs>
</svg>
