<svg width="640" height="402" viewBox="0 0 640 402" fill="none" xmlns="http://www.w3.org/2000/svg">
<g filter="url(#filter0_d_123_317)">
<path d="M35.916 72.7172C48.33 73.493 66.3044 43.7297 73.7399 28.751L567.066 28.751V33.6002C567.584 45.4969 577.842 53.6436 582.907 56.2298L592.282 63.9886C592.799 71.2301 599.61 77.1353 602.95 79.1828V101.489C600.687 102.136 597.131 106.985 594.868 110.541C592.605 114.097 592.7 118.365 594.868 122.502C596.745 126.082 600.256 127.567 602.95 128.968V152.891C601.442 153.322 597.713 154.637 594.868 156.447C592.024 158.257 592.39 164.744 592.929 167.762C592.929 175.262 599.61 178.538 602.95 177.137V205.909C601.55 206.124 598.23 207.008 596.162 208.818C593.575 211.081 592.929 213.668 592.929 220.78C592.929 226.469 599.61 230.263 602.95 231.448C603.274 237.806 603.726 250.522 602.95 250.522C602.175 250.522 598.101 252.892 596.162 254.078C593.899 255.694 592.929 259.897 592.929 264.746C592.929 268.625 599.61 273.043 602.95 273.151V287.052C601.118 287.699 597.002 293.647 595.192 299.337C593.381 305.027 599.61 308.173 602.95 309.035V329.725C605.213 329.941 606.377 330.243 592.929 329.725C579.48 329.208 566.851 348.907 562.217 358.821H75.6795C76.3261 353.325 63.7181 342.657 54.343 338.131C46.8429 334.51 38.9333 338.777 35.916 341.363V320.35L40.4419 318.411C44.0627 317.117 46.692 312.484 47.5541 310.329C54.0197 301.277 42.7049 288.238 35.916 285.436L35.916 257.957C38.5023 256.405 42.3817 251.491 43.998 249.228C50.4637 240.177 41.304 227.784 35.916 224.336L35.916 198.473C40.3127 197.956 43.136 187.913 43.998 182.956C43.998 180.046 41.5196 169.27 35.916 166.145V143.516C38.0712 142.654 42.7049 139.507 43.998 133.817C44.9679 126.058 39.4721 124.119 35.916 123.149V103.609C35.886 103.559 35.8888 103.497 35.916 103.429V103.609C36.1236 103.951 37.8981 103.682 43.998 100.519C50.9809 96.8986 41.7351 86.8338 35.916 86.6182V72.7172Z" fill="white"/>
<path d="M562.195 62.0498L71.4551 62.0498L71.4551 328.433H562.195V62.0498Z" stroke="black" stroke-width="2.58625"/>
</g>
<defs>
<filter id="filter0_d_123_317" x="0.335232" y="0.303537" width="639.57" height="401.188" filterUnits="userSpaceOnUse" color-interpolation-filters="sRGB">
<feFlood flood-opacity="0" result="BackgroundImageFix"/>
<feColorMatrix in="SourceAlpha" type="matrix" values="0 0 0 0 0 0 0 0 0 0 0 0 0 0 0 0 0 0 127 0" result="hardAlpha"/>
<feOffset dy="7.11186"/>
<feGaussianBlur stdDeviation="17.7796"/>
<feComposite in2="hardAlpha" operator="out"/>
<feColorMatrix type="matrix" values="0 0 0 0 0 0 0 0 0 0 0 0 0 0 0 0 0 0 0.4 0"/>
<feBlend mode="normal" in2="BackgroundImageFix" result="effect1_dropShadow_123_317"/>
<feBlend mode="normal" in="SourceGraphic" in2="effect1_dropShadow_123_317" result="shape"/>
</filter>
</defs>
</svg>
