<svg width="320" height="187" viewBox="0 0 320 187" fill="none" xmlns="http://www.w3.org/2000/svg">
<path d="M0.0121003 24.7641C7.00033 25.2011 17.1187 8.43678 21.3044 0L299.014 0V2.73133C299.305 9.4322 305.08 14.0208 307.931 15.4776L313.209 19.8477C313.5 23.9265 317.334 27.2526 319.214 28.4059V40.97C317.94 41.3342 315.938 44.0655 314.664 46.0685C313.391 48.0715 313.444 50.4753 314.664 52.8058C315.721 54.8223 317.698 55.6585 319.214 56.4475V69.9221C318.365 70.1649 316.266 70.9054 314.664 71.9251C313.063 72.9448 313.269 76.5987 313.573 78.2982C313.573 82.5227 317.334 84.3678 319.214 83.5788V99.7847C318.425 99.9061 316.557 100.404 315.392 101.424C313.936 102.698 313.573 104.155 313.573 108.161C313.573 111.366 317.334 113.502 319.214 114.17C319.396 117.751 319.651 124.913 319.214 124.913C318.777 124.913 316.484 126.248 315.392 126.916C314.118 127.826 313.573 130.194 313.573 132.925C313.573 135.11 317.334 137.598 319.214 137.659V145.489C318.183 145.853 315.866 149.204 314.846 152.408C313.827 155.613 317.334 157.385 319.214 157.871V169.525C320.488 169.646 321.143 169.816 313.573 169.525C306.002 169.233 298.892 180.329 296.284 185.913L22.3963 185.913C22.7602 182.817 15.6628 176.808 10.3852 174.259C6.16318 172.22 1.71062 174.623 0.0121003 176.08L0.0121003 164.244L2.55988 163.152C4.5981 162.423 6.07825 159.813 6.56355 158.599C10.2033 153.501 3.83378 146.157 0.0121003 144.579L0.0121003 129.101C1.46799 128.227 3.65181 125.459 4.56173 124.185C8.20143 119.086 3.04519 112.106 0.0121003 110.164L0.0121003 95.5967C2.48711 95.3053 4.07644 89.6484 4.56173 86.8564C4.56173 85.2176 3.1665 79.148 0.0121003 77.3878L0.0121003 64.6416C1.22533 64.156 3.83378 62.3836 4.56173 59.1789C5.10767 54.8088 2.01394 53.7162 0.0121003 53.1699L0.0121003 42.1638C-0.00480861 42.136 -0.00323922 42.1009 0.0121003 42.0625L0.0121003 42.1638C0.128927 42.3564 1.12785 42.2053 4.56173 40.4237C8.49261 38.3843 3.28783 32.7153 0.0121003 32.5939L0.0121003 24.7641Z" fill="#E8E8E8"/>
<path d="M296.272 18.7551L20.0186 18.7551L20.0186 168.796L296.272 168.796V18.7551Z" stroke="black" stroke-width="1.45461"/>
</svg>
