<svg width="1440" height="1721" viewBox="0 0 1440 1721" fill="none" xmlns="http://www.w3.org/2000/svg">
<g clip-path="url(#clip0_343_457)">
<mask id="mask0_343_457" style="mask-type:luminance" maskUnits="userSpaceOnUse" x="-186" y="-79" width="1697" height="1111">
<path d="M1510.21 -79H-185.277V1031.78H1510.21V-79Z" fill="white"/>
</mask>
<g mask="url(#mask0_343_457)">
<path d="M201.294 247.075C204.145 232.997 203.835 218.462 200.387 204.518C196.939 190.574 190.439 177.57 181.356 166.443C172.273 155.315 160.833 146.343 147.861 140.174C134.89 134.004 120.711 130.79 106.347 130.765C102.956 130.765 99.7686 130.765 96.5472 131.24V130.765C96.6076 98.7501 84.5802 67.8925 62.8703 44.3632C41.1604 20.8338 11.3685 6.36723 -20.5478 3.85643C-52.464 1.34564 -84.1517 10.9758 -109.274 30.8209C-134.396 50.6661 -151.1 79.2634 -156.047 110.894C-160.47 110.365 -164.919 110.094 -169.373 110.08C-199.014 110.593 -227.267 122.728 -248.047 143.871C-268.827 165.014 -280.471 193.473 -280.471 223.118C-280.471 252.763 -268.827 281.222 -248.047 302.365C-227.267 323.508 -199.014 335.643 -169.373 336.156C-160.672 336.158 -152.001 335.146 -143.534 333.138C-135.151 346.231 -123.485 356.901 -109.698 364.087C-95.911 371.272 -80.483 374.723 -64.9486 374.095C-49.4142 373.468 -34.3148 368.784 -21.1523 360.51C-7.98979 352.236 2.77705 340.66 10.0772 326.933C32.1525 348.296 81.9659 363.25 139.918 363.25C218.351 363.25 281.932 335.919 281.932 302.213C281.932 277.866 249.073 256.909 201.294 247.075Z" fill="#F0F0F0"/>
<path d="M1650.97 622.154C1660.96 602.416 1666.89 580.881 1668.44 558.816C1669.98 536.75 1667.09 514.599 1659.95 493.663C1652.82 472.728 1641.56 453.431 1626.86 436.905C1612.16 420.38 1594.3 406.96 1574.34 397.434C1587.77 373.977 1595.33 347.62 1596.38 320.61C1597.43 293.599 1591.93 266.736 1580.35 242.31C1568.77 217.884 1551.46 196.62 1529.89 180.33C1508.32 164.04 1483.13 153.208 1456.46 148.757C1429.8 144.305 1402.46 146.367 1376.77 154.765C1351.07 163.164 1327.79 177.651 1308.91 196.99C1290.02 216.33 1276.09 239.95 1268.31 265.836C1260.52 291.721 1259.11 319.105 1264.2 345.654C1233.89 351.423 1206.55 367.58 1186.88 391.343C1167.21 415.106 1156.44 444.985 1156.43 475.833C1156.43 478.58 1156.43 481.327 1156.7 484.04C1131.32 493.327 1108.52 508.528 1090.19 528.383C1071.86 548.238 1058.52 572.176 1051.28 598.214C1021.71 600.18 993.372 610.78 969.773 628.701C946.174 646.621 928.354 671.074 918.522 699.028C914.92 698.608 911.297 698.393 907.67 698.383C893.576 698.379 879.663 701.564 866.974 707.701C854.286 713.838 843.151 722.768 834.405 733.821C825.659 744.873 819.528 757.762 816.472 771.522C813.416 785.281 813.513 799.554 816.758 813.27C768.945 839.584 739.512 866.746 739.512 893.467C739.512 1023.61 1393.33 974.85 1523.47 974.85C1554.42 974.85 1585.07 968.754 1613.66 956.91C1642.25 945.067 1668.23 927.707 1690.12 905.823C1712 883.939 1729.36 857.958 1741.21 829.365C1753.05 800.772 1759.15 770.126 1759.15 739.177C1759.15 641.076 1723.85 624.392 1650.97 622.154Z" fill="#F0F0F0"/>
</g>
<path d="M1568.57 1667.16H440.891H-590C-590 1667.16 140.631 304.27 217.491 276.436C275.127 255.552 320.896 168.842 349.24 142.545C358.733 133.724 366.192 131.685 371.616 141.242C421.454 230.324 522.453 260.831 599.38 425.663C676.308 590.495 875.22 802.141 875.22 802.141L1113.7 1040.99L1568.57 1667.16Z" fill="#368E94"/>
<path d="M1114.28 1031.69C1071.33 1025.41 1028.45 1028.92 989.917 1004.48C964 987.941 947.581 960.426 922.24 943.03C865.826 904.303 724.027 945.94 685.626 886.18C674.16 868.321 674.059 836.573 678.028 805.089C679.02 797.127 677.899 789.051 674.772 781.634C671.644 774.216 666.615 767.706 660.166 762.727C653.717 757.748 646.065 754.467 637.942 753.198C629.82 751.929 621.499 752.715 613.777 755.481C588.369 764.411 567.574 765.8 569.508 745.196C571.068 728.66 575.851 702.864 581.211 676.969C590.167 633.58 543.896 626.833 499.795 615.291C463.396 605.7 415.598 487.172 413.732 452.546C412.206 424.435 441.108 427.841 466.042 414.282C479.611 406.841 434.426 367.982 434.426 367.982C421.263 361.368 402.606 346.816 394.091 342.385C358.641 323.997 421.67 266.32 363.56 257.92C341.205 254.613 340.628 187.941 349.177 142.467C358.675 133.736 366.138 131.719 371.566 141.177C421.433 229.346 522.49 259.54 599.462 422.682C676.433 585.824 875.46 795.299 875.46 795.299L1114.28 1031.69Z" fill="#32A2A9"/>
<path d="M-24.5039 1416.11L1440 1415.01" stroke="black" stroke-width="16.2389"/>
<path d="M1378.7 1201.44C1378.7 1203.42 1377.92 1205.33 1376.51 1206.73C1375.11 1208.13 1373.21 1208.92 1371.22 1208.92C1369.24 1208.92 1367.33 1208.13 1365.92 1206.73C1364.51 1205.33 1363.71 1203.43 1363.7 1201.44V1046.97C1363.7 1044.97 1364.49 1043.05 1365.9 1041.64C1367.31 1040.23 1369.23 1039.44 1371.22 1039.44C1372.21 1039.44 1373.19 1039.63 1374.1 1040.01C1375.01 1040.39 1375.83 1040.95 1376.53 1041.65C1377.23 1042.35 1377.78 1043.18 1378.15 1044.09C1378.52 1045 1378.71 1045.98 1378.7 1046.97V1201.44Z" fill="#231F20"/>
<path d="M1455.22 1316.6C1455.23 1313.97 1454.46 1311.39 1453 1309.19C1451.54 1306.99 1449.46 1305.27 1447.03 1304.26C1444.59 1303.24 1441.91 1302.97 1439.32 1303.48C1436.73 1303.99 1434.35 1305.25 1432.49 1307.12C1430.62 1308.98 1429.34 1311.35 1428.82 1313.94C1428.31 1316.53 1428.57 1319.21 1429.57 1321.65C1430.58 1324.08 1432.29 1326.17 1434.48 1327.64C1436.68 1329.1 1439.25 1329.89 1441.89 1329.89C1445.42 1329.89 1448.8 1328.49 1451.3 1326C1453.8 1323.51 1455.21 1320.13 1455.22 1316.6Z" fill="#E46171"/>
<path d="M1160 1140.03H-47.4316V1231.11H1160V1140.03Z" fill="#414042"/>
<path d="M1117.1 1185.6H-2.97852V1263.61H1117.1V1185.6Z" fill="#231F20"/>
<path d="M144.214 1209.14C124.016 1209.13 104.267 1215.1 87.4648 1226.31C70.6623 1237.51 57.5614 1253.45 49.8196 1272.11C42.0778 1290.76 40.043 1311.3 43.9724 1331.11C47.9017 1350.92 57.6186 1369.12 71.8942 1383.41C86.1698 1397.7 104.363 1407.43 124.171 1411.38C143.979 1415.33 164.513 1413.31 183.175 1405.58C201.837 1397.86 217.788 1384.77 229.012 1367.98C240.235 1351.19 246.225 1331.44 246.225 1311.25C246.225 1284.18 235.481 1258.23 216.352 1239.08C197.224 1219.94 171.277 1209.17 144.214 1209.14ZM144.214 1402.98C126.045 1403 108.278 1397.63 93.1631 1387.54C78.0481 1377.46 66.2642 1363.12 59.3027 1346.34C52.3412 1329.55 50.515 1311.08 54.0553 1293.26C57.5956 1275.44 66.3433 1259.07 79.1912 1246.22C92.039 1233.37 108.41 1224.63 126.231 1221.09C144.052 1217.55 162.523 1219.37 179.306 1226.33C196.09 1233.3 210.43 1245.08 220.513 1260.19C230.597 1275.31 235.969 1293.08 235.951 1311.25C235.927 1335.57 226.255 1358.89 209.056 1376.09C191.857 1393.29 168.537 1402.96 144.214 1402.98Z" fill="#231F20"/>
<path d="M144.214 1209.14C124.016 1209.13 104.267 1215.1 87.4648 1226.31C70.6623 1237.51 57.5614 1253.45 49.8196 1272.11C42.0778 1290.76 40.043 1311.3 43.9724 1331.11C47.9017 1350.92 57.6186 1369.12 71.8942 1383.41C86.1698 1397.7 104.363 1407.43 124.171 1411.38C143.979 1415.33 164.513 1413.31 183.175 1405.58C201.837 1397.86 217.788 1384.77 229.012 1367.98C240.235 1351.19 246.225 1331.44 246.225 1311.25C246.225 1284.18 235.481 1258.23 216.352 1239.08C197.224 1219.94 171.277 1209.17 144.214 1209.14ZM144.214 1402.98C126.045 1403 108.278 1397.63 93.1631 1387.54C78.0481 1377.46 66.2642 1363.12 59.3027 1346.34C52.3412 1329.55 50.515 1311.08 54.0553 1293.26C57.5956 1275.44 66.3433 1259.07 79.1912 1246.22C92.039 1233.37 108.41 1224.63 126.231 1221.09C144.052 1217.55 162.523 1219.37 179.306 1226.33C196.09 1233.3 210.43 1245.08 220.513 1260.19C230.597 1275.31 235.969 1293.08 235.951 1311.25C235.927 1335.57 226.255 1358.89 209.056 1376.09C191.857 1393.29 168.537 1402.96 144.214 1402.98Z" fill="#231F20"/>
<path d="M144.204 1219.42C126.038 1219.4 108.275 1224.77 93.1624 1234.85C78.0494 1244.93 66.2656 1259.26 59.3014 1276.04C52.3372 1292.82 50.5056 1311.28 54.0385 1329.1C57.5715 1346.92 66.3101 1363.29 79.1489 1376.14C91.9876 1389 108.35 1397.75 126.165 1401.3C143.98 1404.85 162.448 1403.04 179.233 1396.09C196.018 1389.14 210.365 1377.37 220.459 1362.27C230.553 1347.17 235.941 1329.41 235.941 1311.24C235.941 1286.91 226.279 1263.56 209.077 1246.34C191.876 1229.13 168.543 1219.44 144.204 1219.42ZM144.204 1391.34C128.336 1391.36 112.82 1386.67 99.6186 1377.87C86.4175 1369.06 76.1252 1356.54 70.0445 1341.88C63.9638 1327.23 62.3679 1311.09 65.4592 1295.53C68.5504 1279.97 76.1897 1265.67 87.41 1254.45C98.6303 1243.23 112.927 1235.59 128.491 1232.5C144.055 1229.41 160.186 1231 174.843 1237.08C189.499 1243.16 202.022 1253.46 210.827 1266.66C219.631 1279.86 224.321 1295.38 224.303 1311.24C224.303 1332.49 215.865 1352.86 200.843 1367.88C185.821 1382.9 165.448 1391.34 144.204 1391.34Z" fill="#E46171"/>
<path d="M144.197 1231.05V1391.34" stroke="#E46171" stroke-width="27.2757" stroke-miterlimit="10"/>
<path d="M144.197 1225.24V1397.17" stroke="#E46171" stroke-width="18.1838" stroke-miterlimit="10"/>
<path d="M83.3789 1250.42L205.028 1371.98" stroke="#E46171" stroke-width="18.1838" stroke-miterlimit="10"/>
<path d="M58.1992 1311.25H230.218" stroke="#E46171" stroke-width="18.1838" stroke-miterlimit="10"/>
<path d="M83.3789 1371.98L205.028 1250.42" stroke="#E46171" stroke-width="18.1838" stroke-miterlimit="10"/>
<path d="M170.022 1311.24C170.04 1306.13 168.541 1301.13 165.715 1296.87C162.889 1292.61 158.863 1289.29 154.146 1287.32C149.43 1285.35 144.235 1284.83 139.22 1285.82C134.206 1286.8 129.596 1289.25 125.976 1292.86C122.356 1296.47 119.887 1301.07 118.884 1306.08C117.88 1311.09 118.386 1316.29 120.338 1321.01C122.289 1325.73 125.599 1329.77 129.847 1332.61C134.095 1335.46 139.091 1336.97 144.202 1336.97C151.034 1336.97 157.588 1334.26 162.428 1329.44C167.268 1324.62 169.998 1318.07 170.022 1311.24Z" fill="#414042"/>
<path d="M156.759 1311.24C156.777 1308.74 156.049 1306.28 154.668 1304.19C153.286 1302.1 151.313 1300.46 149 1299.49C146.687 1298.53 144.139 1298.27 141.679 1298.75C139.219 1299.24 136.959 1300.44 135.186 1302.22C133.413 1303.99 132.208 1306.25 131.723 1308.71C131.238 1311.17 131.496 1313.72 132.464 1316.03C133.431 1318.34 135.065 1320.32 137.158 1321.7C139.25 1323.08 141.705 1323.81 144.213 1323.79C147.54 1323.79 150.732 1322.47 153.085 1320.12C155.438 1317.76 156.759 1314.57 156.759 1311.24Z" fill="#E46171"/>
<path d="M366.961 1209.14C346.767 1209.14 327.027 1215.13 310.237 1226.35C293.446 1237.57 280.359 1253.52 272.632 1272.17C264.904 1290.83 262.882 1311.36 266.821 1331.16C270.761 1350.97 280.485 1369.16 294.764 1383.44C309.044 1397.72 327.236 1407.45 347.042 1411.39C366.848 1415.32 387.377 1413.3 406.034 1405.58C424.691 1397.85 440.637 1384.76 451.856 1367.97C463.075 1351.18 469.063 1331.44 469.063 1311.25C469.075 1297.83 466.442 1284.55 461.316 1272.16C456.189 1259.77 448.668 1248.51 439.185 1239.02C429.701 1229.54 418.441 1222.02 406.048 1216.89C393.655 1211.76 380.373 1209.13 366.961 1209.14ZM366.961 1402.98C348.795 1402.98 331.038 1397.59 315.935 1387.5C300.832 1377.41 289.062 1363.06 282.115 1346.27C275.167 1329.49 273.354 1311.02 276.904 1293.21C280.455 1275.39 289.21 1259.03 302.061 1246.19C314.913 1233.35 331.283 1224.61 349.102 1221.08C366.921 1217.55 385.388 1219.38 402.165 1226.34C418.943 1233.31 433.278 1245.09 443.358 1260.2C453.437 1275.32 458.807 1293.08 458.789 1311.25C458.789 1323.3 456.413 1335.24 451.797 1346.37C447.182 1357.51 440.416 1367.63 431.888 1376.15C423.36 1384.67 413.236 1391.42 402.095 1396.03C390.955 1400.63 379.016 1402.99 366.961 1402.98Z" fill="#231F20"/>
<path d="M366.961 1209.14C346.767 1209.14 327.027 1215.13 310.237 1226.35C293.446 1237.57 280.359 1253.52 272.632 1272.17C264.904 1290.83 262.882 1311.36 266.821 1331.16C270.761 1350.97 280.485 1369.16 294.764 1383.44C309.044 1397.72 327.236 1407.45 347.042 1411.39C366.848 1415.32 387.377 1413.3 406.034 1405.58C424.691 1397.85 440.637 1384.76 451.856 1367.97C463.075 1351.18 469.063 1331.44 469.063 1311.25C469.075 1297.83 466.442 1284.55 461.316 1272.16C456.189 1259.77 448.668 1248.51 439.185 1239.02C429.701 1229.54 418.441 1222.02 406.048 1216.89C393.655 1211.76 380.373 1209.13 366.961 1209.14ZM366.961 1402.98C348.795 1402.98 331.038 1397.59 315.935 1387.5C300.832 1377.41 289.062 1363.06 282.115 1346.27C275.167 1329.49 273.354 1311.02 276.904 1293.21C280.455 1275.39 289.21 1259.03 302.061 1246.19C314.913 1233.35 331.283 1224.61 349.102 1221.08C366.921 1217.55 385.388 1219.38 402.165 1226.34C418.943 1233.31 433.278 1245.09 443.358 1260.2C453.437 1275.32 458.807 1293.08 458.789 1311.25C458.789 1323.3 456.413 1335.24 451.797 1346.37C447.182 1357.51 440.416 1367.63 431.888 1376.15C423.36 1384.67 413.236 1391.42 402.095 1396.03C390.955 1400.63 379.016 1402.99 366.961 1402.98Z" fill="#231F20"/>
<path d="M366.955 1219.42C348.793 1219.42 331.039 1224.8 315.938 1234.89C300.837 1244.98 289.067 1259.32 282.117 1276.1C275.167 1292.88 273.348 1311.35 276.891 1329.16C280.435 1346.97 289.18 1363.33 302.023 1376.18C314.865 1389.02 331.227 1397.76 349.04 1401.31C366.853 1404.85 385.317 1403.03 402.096 1396.08C418.875 1389.13 433.217 1377.36 443.307 1362.26C453.397 1347.16 458.783 1329.41 458.783 1311.24C458.783 1286.89 449.108 1263.53 431.887 1246.31C414.666 1229.09 391.309 1219.42 366.955 1219.42ZM366.955 1391.34C351.091 1391.34 335.583 1386.64 322.394 1377.82C309.205 1369.01 298.927 1356.48 292.86 1341.82C286.793 1327.16 285.211 1311.03 288.312 1295.48C291.414 1279.92 299.06 1265.63 310.284 1254.42C321.508 1243.21 335.805 1235.58 351.366 1232.49C366.928 1229.41 383.054 1231.01 397.705 1237.09C412.357 1243.18 424.875 1253.47 433.675 1266.67C442.476 1279.87 447.163 1295.38 447.145 1311.24C447.157 1321.77 445.091 1332.2 441.064 1341.93C437.037 1351.66 431.129 1360.5 423.679 1367.94C416.229 1375.38 407.384 1381.28 397.65 1385.3C387.916 1389.31 377.485 1391.37 366.955 1391.34Z" fill="#E46171"/>
<path d="M366.949 1231.05V1391.34" stroke="#E46171" stroke-width="27.2757" stroke-miterlimit="10"/>
<path d="M366.949 1225.24V1397.17" stroke="#E46171" stroke-width="18.1838" stroke-miterlimit="10"/>
<path d="M306.133 1250.42L427.782 1371.98" stroke="#E46171" stroke-width="18.1838" stroke-miterlimit="10"/>
<path d="M280.949 1311.25H452.968" stroke="#E46171" stroke-width="18.1838" stroke-miterlimit="10"/>
<path d="M306.133 1371.98L427.782 1250.42" stroke="#E46171" stroke-width="18.1838" stroke-miterlimit="10"/>
<path d="M392.772 1311.24C392.79 1306.13 391.291 1301.13 388.465 1296.87C385.639 1292.61 381.613 1289.29 376.896 1287.32C372.18 1285.35 366.985 1284.83 361.97 1285.82C356.956 1286.8 352.346 1289.25 348.726 1292.86C345.106 1296.47 342.637 1301.07 341.634 1306.08C340.63 1311.09 341.136 1316.29 343.088 1321.01C345.039 1325.73 348.349 1329.77 352.597 1332.61C356.845 1335.46 361.841 1336.97 366.952 1336.97C373.784 1336.97 380.338 1334.26 385.178 1329.44C390.018 1324.62 392.748 1318.07 392.772 1311.24Z" fill="#414042"/>
<path d="M366.962 1323.88C373.941 1323.88 379.6 1318.22 379.6 1311.24C379.6 1304.26 373.941 1298.61 366.962 1298.61C359.982 1298.61 354.324 1304.26 354.324 1311.24C354.324 1318.22 359.982 1323.88 366.962 1323.88Z" fill="#E46171"/>
<path d="M865.828 1311.25C865.828 1331.44 871.819 1351.19 883.042 1367.98C894.265 1384.77 910.216 1397.86 928.878 1405.58C947.54 1413.31 968.074 1415.33 987.883 1411.38C1007.69 1407.43 1025.88 1397.7 1040.16 1383.41C1054.43 1369.12 1064.15 1350.92 1068.08 1331.11C1072.01 1311.3 1069.98 1290.76 1062.23 1272.11C1054.49 1253.45 1041.39 1237.51 1024.59 1226.31C1007.79 1215.1 988.037 1209.13 967.839 1209.14C954.435 1209.14 941.163 1211.79 928.78 1216.92C916.398 1222.05 905.148 1229.57 895.674 1239.05C886.201 1248.54 878.689 1259.79 873.567 1272.18C868.446 1284.57 865.816 1297.84 865.828 1311.25ZM876.102 1311.25C876.084 1293.08 881.457 1275.31 891.54 1260.19C901.623 1245.08 915.964 1233.3 932.747 1226.33C949.53 1219.37 968.001 1217.55 985.823 1221.09C1003.64 1224.63 1020.01 1233.37 1032.86 1246.22C1045.71 1259.07 1054.46 1275.44 1058 1293.26C1061.54 1311.08 1059.71 1329.55 1052.75 1346.34C1045.79 1363.12 1034.01 1377.46 1018.89 1387.54C1003.78 1397.63 986.009 1403 967.839 1402.98C943.516 1402.96 920.197 1393.29 902.998 1376.09C885.799 1358.89 876.126 1335.57 876.102 1311.25Z" fill="#231F20"/>
<path d="M865.828 1311.25C865.828 1331.44 871.819 1351.19 883.042 1367.98C894.265 1384.77 910.216 1397.86 928.878 1405.58C947.54 1413.31 968.074 1415.33 987.883 1411.38C1007.69 1407.43 1025.88 1397.7 1040.16 1383.41C1054.43 1369.12 1064.15 1350.92 1068.08 1331.11C1072.01 1311.3 1069.98 1290.76 1062.23 1272.11C1054.49 1253.45 1041.39 1237.51 1024.59 1226.31C1007.79 1215.1 988.037 1209.13 967.839 1209.14C954.435 1209.14 941.163 1211.79 928.78 1216.92C916.398 1222.05 905.148 1229.57 895.674 1239.05C886.201 1248.54 878.689 1259.79 873.567 1272.18C868.446 1284.57 865.816 1297.84 865.828 1311.25ZM876.102 1311.25C876.084 1293.08 881.457 1275.31 891.54 1260.19C901.623 1245.08 915.964 1233.3 932.747 1226.33C949.53 1219.37 968.001 1217.55 985.823 1221.09C1003.64 1224.63 1020.01 1233.37 1032.86 1246.22C1045.71 1259.07 1054.46 1275.44 1058 1293.26C1061.54 1311.08 1059.71 1329.55 1052.75 1346.34C1045.79 1363.12 1034.01 1377.46 1018.89 1387.54C1003.78 1397.63 986.009 1403 967.839 1402.98C943.516 1402.96 920.197 1393.29 902.998 1376.09C885.799 1358.89 876.126 1335.57 876.102 1311.25Z" fill="#231F20"/>
<path d="M876.096 1311.24C876.096 1329.41 881.484 1347.17 891.578 1362.27C901.672 1377.37 916.019 1389.14 932.804 1396.09C949.588 1403.04 968.057 1404.85 985.872 1401.3C1003.69 1397.75 1020.05 1389 1032.89 1376.14C1045.73 1363.29 1054.47 1346.92 1058 1329.1C1061.53 1311.28 1059.7 1292.82 1052.74 1276.04C1045.77 1259.26 1033.99 1244.93 1018.87 1234.85C1003.76 1224.77 985.999 1219.4 967.833 1219.42C955.778 1219.42 943.842 1221.79 932.706 1226.41C921.57 1231.02 911.452 1237.79 902.933 1246.32C894.413 1254.85 887.658 1264.97 883.053 1276.11C878.448 1287.25 876.084 1299.19 876.096 1311.24ZM887.733 1311.24C887.715 1295.38 892.405 1279.86 901.21 1266.66C910.014 1253.46 922.538 1243.16 937.194 1237.08C951.851 1231 967.982 1229.41 983.546 1232.5C999.11 1235.59 1013.41 1243.23 1024.63 1254.45C1035.85 1265.67 1043.49 1279.97 1046.58 1295.53C1049.67 1311.09 1048.07 1327.23 1041.99 1341.88C1035.91 1356.54 1025.62 1369.06 1012.42 1377.87C999.217 1386.67 983.701 1391.36 967.833 1391.34C946.612 1391.3 926.276 1382.84 911.279 1367.82C896.283 1352.81 887.848 1332.46 887.824 1311.24H887.733Z" fill="#E46171"/>
<path d="M967.83 1231.05V1391.34" stroke="#E46171" stroke-width="27.2757" stroke-miterlimit="10"/>
<path d="M967.83 1225.24V1397.17" stroke="#E46171" stroke-width="18.1838" stroke-miterlimit="10"/>
<path d="M1028.66 1250.42L907.1 1371.98" stroke="#E46171" stroke-width="18.1838" stroke-miterlimit="10"/>
<path d="M1053.85 1311.25H881.92" stroke="#E46171" stroke-width="18.1838" stroke-miterlimit="10"/>
<path d="M1028.66 1371.98L907.1 1250.42" stroke="#E46171" stroke-width="18.1838" stroke-miterlimit="10"/>
<path d="M942.387 1311.24C942.369 1306.13 943.87 1301.12 946.701 1296.86C949.531 1292.6 953.563 1289.28 958.285 1287.31C963.006 1285.35 968.206 1284.83 973.223 1285.82C978.24 1286.82 982.849 1289.28 986.466 1292.89C990.083 1296.51 992.543 1301.12 993.537 1306.14C994.53 1311.15 994.011 1316.35 992.046 1321.07C990.08 1325.8 986.756 1329.83 982.496 1332.66C978.236 1335.49 973.231 1336.99 968.117 1336.97C961.3 1336.95 954.77 1334.23 949.949 1329.41C945.129 1324.59 942.411 1318.06 942.387 1311.24Z" fill="#414042"/>
<path d="M967.841 1323.88C974.82 1323.88 980.479 1318.22 980.479 1311.24C980.479 1304.26 974.82 1298.61 967.841 1298.61C960.861 1298.61 955.203 1304.26 955.203 1311.24C955.203 1318.22 960.861 1323.88 967.841 1323.88Z" fill="#E46171"/>
<path d="M642.99 1311.25C642.99 1331.44 648.978 1351.18 660.197 1367.97C671.416 1384.76 687.363 1397.85 706.019 1405.58C724.676 1413.3 745.205 1415.32 765.011 1411.39C784.817 1407.45 803.01 1397.72 817.289 1383.44C831.568 1369.16 841.292 1350.97 845.232 1331.16C849.172 1311.36 847.15 1290.83 839.422 1272.17C831.694 1253.52 818.607 1237.57 801.817 1226.35C785.026 1215.13 765.286 1209.14 745.092 1209.14C731.68 1209.13 718.398 1211.76 706.005 1216.89C693.612 1222.02 682.352 1229.54 672.869 1239.02C663.385 1248.51 655.865 1259.77 650.738 1272.16C645.611 1284.55 642.978 1297.83 642.99 1311.25ZM653.355 1311.25C653.337 1293.08 658.71 1275.31 668.793 1260.19C678.876 1245.08 693.217 1233.3 710 1226.33C726.783 1219.37 745.254 1217.55 763.075 1221.09C780.897 1224.63 797.267 1233.37 810.115 1246.22C822.963 1259.07 831.71 1275.44 835.251 1293.26C838.791 1311.08 836.965 1329.55 830.003 1346.34C823.042 1363.12 811.258 1377.46 796.143 1387.54C781.028 1397.63 763.262 1403 745.092 1402.98C720.769 1402.96 697.449 1393.29 680.251 1376.09C663.052 1358.89 653.379 1335.57 653.355 1311.25Z" fill="#231F20"/>
<path d="M642.99 1311.25C642.99 1331.44 648.978 1351.18 660.197 1367.97C671.416 1384.76 687.363 1397.85 706.019 1405.58C724.676 1413.3 745.205 1415.32 765.011 1411.39C784.817 1407.45 803.01 1397.72 817.289 1383.44C831.568 1369.16 841.292 1350.97 845.232 1331.16C849.172 1311.36 847.15 1290.83 839.422 1272.17C831.694 1253.52 818.607 1237.57 801.817 1226.35C785.026 1215.13 765.286 1209.14 745.092 1209.14C731.68 1209.13 718.398 1211.76 706.005 1216.89C693.612 1222.02 682.352 1229.54 672.869 1239.02C663.385 1248.51 655.865 1259.77 650.738 1272.16C645.611 1284.55 642.978 1297.83 642.99 1311.25ZM653.355 1311.25C653.337 1293.08 658.71 1275.31 668.793 1260.19C678.876 1245.08 693.217 1233.3 710 1226.33C726.783 1219.37 745.254 1217.55 763.075 1221.09C780.897 1224.63 797.267 1233.37 810.115 1246.22C822.963 1259.07 831.71 1275.44 835.251 1293.26C838.791 1311.08 836.965 1329.55 830.003 1346.34C823.042 1363.12 811.258 1377.46 796.143 1387.54C781.028 1397.63 763.262 1403 745.092 1402.98C720.769 1402.96 697.449 1393.29 680.251 1376.09C663.052 1358.89 653.379 1335.57 653.355 1311.25Z" fill="#231F20"/>
<path d="M653.344 1311.24C653.344 1329.41 658.732 1347.17 668.826 1362.27C678.92 1377.37 693.267 1389.14 710.052 1396.09C726.836 1403.04 745.305 1404.85 763.12 1401.3C780.935 1397.75 797.298 1389 810.136 1376.14C822.975 1363.29 831.714 1346.92 835.247 1329.1C838.78 1311.28 836.948 1292.82 829.984 1276.04C823.02 1259.26 811.235 1244.93 796.123 1234.85C781.01 1224.77 763.247 1219.4 745.081 1219.42C733.026 1219.42 721.09 1221.79 709.954 1226.41C698.818 1231.02 688.701 1237.79 680.181 1246.32C671.661 1254.85 664.906 1264.97 660.301 1276.11C655.696 1287.25 653.332 1299.19 653.344 1311.24ZM664.981 1311.24C664.963 1295.38 669.653 1279.86 678.458 1266.66C687.263 1253.46 699.786 1243.16 714.442 1237.08C729.099 1231 745.23 1229.41 760.794 1232.5C776.358 1235.59 790.655 1243.23 801.875 1254.45C813.095 1265.67 820.734 1279.97 823.826 1295.53C826.917 1311.09 825.321 1327.23 819.241 1341.88C813.16 1356.54 802.868 1369.06 789.667 1377.87C776.465 1386.67 760.949 1391.36 745.081 1391.34C723.837 1391.34 703.464 1382.9 688.442 1367.88C673.421 1352.86 664.981 1332.49 664.981 1311.24Z" fill="#E46171"/>
<path d="M745.08 1231.05V1391.34" stroke="#E46171" stroke-width="27.2757" stroke-miterlimit="10"/>
<path d="M745.08 1225.24V1397.17" stroke="#E46171" stroke-width="18.1838" stroke-miterlimit="10"/>
<path d="M805.911 1250.42L684.262 1371.98" stroke="#E46171" stroke-width="18.1838" stroke-miterlimit="10"/>
<path d="M831.099 1311.25H659.08" stroke="#E46171" stroke-width="18.1838" stroke-miterlimit="10"/>
<path d="M805.911 1371.98L684.262 1250.42" stroke="#E46171" stroke-width="18.1838" stroke-miterlimit="10"/>
<path d="M719.258 1311.24C719.24 1306.13 720.739 1301.13 723.565 1296.87C726.392 1292.61 730.418 1289.29 735.135 1287.32C739.851 1285.35 745.046 1284.83 750.06 1285.82C755.075 1286.8 759.685 1289.25 763.305 1292.86C766.925 1296.47 769.393 1301.07 770.397 1306.08C771.401 1311.09 770.895 1316.29 768.943 1321.01C766.992 1325.73 763.682 1329.77 759.434 1332.61C755.185 1335.46 750.19 1336.97 745.079 1336.97C738.246 1336.97 731.693 1334.26 726.853 1329.44C722.013 1324.62 719.282 1318.07 719.258 1311.24Z" fill="#414042"/>
<path d="M745.091 1323.88C752.07 1323.88 757.729 1318.22 757.729 1311.24C757.729 1304.26 752.07 1298.61 745.091 1298.61C738.111 1298.61 732.453 1304.26 732.453 1311.24C732.453 1318.22 738.111 1323.88 745.091 1323.88Z" fill="#E46171"/>
<path d="M1136.03 665.727H-23.3945V1140.02H1136.03V665.727Z" fill="#E46171"/>
<path d="M1136.41 551.401H-23.0625V779.279H1136.41V551.401Z" fill="#E46171"/>
<path d="M1136 670H-23V698H1136V670Z" fill="#E8B466"/>
<path d="M1136.03 1096.22H-23.3945V1140.02H1136.03V1096.22Z" fill="#E46171"/>
<path d="M1213.65 1152.77H1160.01V1192.3H1213.65V1152.77Z" fill="#231F20"/>
<path d="M169.607 776.961H67.3165C54.5179 776.961 44.1426 787.336 44.1426 800.135V976.926C44.1426 989.725 54.5179 1000.1 67.3165 1000.1H169.607C182.406 1000.1 192.781 989.725 192.781 976.926V800.135C192.781 787.336 182.406 776.961 169.607 776.961Z" fill="white"/>
<path d="M387.443 776.961H285.152C272.354 776.961 261.979 787.336 261.979 800.135V976.926C261.979 989.725 272.354 1000.1 285.152 1000.1H387.443C400.242 1000.1 410.617 989.725 410.617 976.926V800.135C410.617 787.336 400.242 776.961 387.443 776.961Z" fill="white"/>
<path d="M605.277 776.961H502.986C490.188 776.961 479.812 787.336 479.812 800.135V976.926C479.812 989.725 490.188 1000.1 502.986 1000.1H605.277C618.076 1000.1 628.451 989.725 628.451 976.926V800.135C628.451 787.336 618.076 776.961 605.277 776.961Z" fill="white"/>
<path d="M823.885 776.961H721.594C708.795 776.961 698.42 787.336 698.42 800.135V976.926C698.42 989.725 708.795 1000.1 721.594 1000.1H823.885C836.683 1000.1 847.059 989.725 847.059 976.926V800.135C847.059 787.336 836.683 776.961 823.885 776.961Z" fill="white"/>
<path d="M1041.72 776.961H939.43C926.631 776.961 916.256 787.336 916.256 800.135V976.926C916.256 989.725 926.631 1000.1 939.43 1000.1H1041.72C1054.52 1000.1 1064.89 989.725 1064.89 976.926V800.135C1064.89 787.336 1054.52 776.961 1041.72 776.961Z" fill="white"/>
<rect y="1423" width="1440" height="298" fill="#225054"/>
<path d="M2428.7 1141.64H1221.27V1232.72H2428.7V1141.64Z" fill="#414042"/>
<path d="M2385.8 1187.2H1265.72V1265.22H2385.8V1187.2Z" fill="#231F20"/>
<path d="M1412.92 1210.75C1392.72 1210.73 1372.97 1216.71 1356.17 1227.91C1339.36 1239.12 1326.26 1255.06 1318.52 1273.72C1310.78 1292.37 1308.74 1312.91 1312.67 1332.72C1316.6 1352.53 1326.32 1370.73 1340.6 1385.02C1354.87 1399.31 1373.06 1409.04 1392.87 1412.99C1412.68 1416.93 1433.21 1414.92 1451.88 1407.19C1470.54 1399.47 1486.49 1386.38 1497.71 1369.59C1508.94 1352.8 1514.93 1333.05 1514.93 1312.85C1514.93 1285.79 1504.18 1259.83 1485.05 1240.69C1465.93 1221.54 1439.98 1210.78 1412.92 1210.75ZM1412.92 1404.59C1394.75 1404.61 1376.98 1399.24 1361.86 1389.15C1346.75 1379.07 1334.97 1364.73 1328 1347.95C1321.04 1331.16 1319.22 1312.69 1322.76 1294.87C1326.3 1277.05 1335.04 1260.68 1347.89 1247.83C1360.74 1234.98 1377.11 1226.24 1394.93 1222.69C1412.75 1219.15 1431.22 1220.98 1448.01 1227.94C1464.79 1234.9 1479.13 1246.69 1489.21 1261.8C1499.3 1276.92 1504.67 1294.68 1504.65 1312.85C1504.63 1337.18 1494.96 1360.5 1477.76 1377.7C1460.56 1394.89 1437.24 1404.57 1412.92 1404.59Z" fill="#231F20"/>
<path d="M1412.92 1210.75C1392.72 1210.73 1372.97 1216.71 1356.17 1227.91C1339.36 1239.12 1326.26 1255.06 1318.52 1273.72C1310.78 1292.37 1308.74 1312.91 1312.67 1332.72C1316.6 1352.53 1326.32 1370.73 1340.6 1385.02C1354.87 1399.31 1373.06 1409.04 1392.87 1412.99C1412.68 1416.93 1433.21 1414.92 1451.88 1407.19C1470.54 1399.47 1486.49 1386.38 1497.71 1369.59C1508.94 1352.8 1514.93 1333.05 1514.93 1312.85C1514.93 1285.79 1504.18 1259.83 1485.05 1240.69C1465.93 1221.54 1439.98 1210.78 1412.92 1210.75ZM1412.92 1404.59C1394.75 1404.61 1376.98 1399.24 1361.86 1389.15C1346.75 1379.07 1334.97 1364.73 1328 1347.95C1321.04 1331.16 1319.22 1312.69 1322.76 1294.87C1326.3 1277.05 1335.04 1260.68 1347.89 1247.83C1360.74 1234.98 1377.11 1226.24 1394.93 1222.69C1412.75 1219.15 1431.22 1220.98 1448.01 1227.94C1464.79 1234.9 1479.13 1246.69 1489.21 1261.8C1499.3 1276.92 1504.67 1294.68 1504.65 1312.85C1504.63 1337.18 1494.96 1360.5 1477.76 1377.7C1460.56 1394.89 1437.24 1404.57 1412.92 1404.59Z" fill="#231F20"/>
<path d="M1412.91 1221.02C1394.74 1221.01 1376.98 1226.38 1361.86 1236.46C1346.75 1246.54 1334.97 1260.87 1328 1277.65C1321.04 1294.43 1319.21 1312.89 1322.74 1330.71C1326.27 1348.53 1335.01 1364.9 1347.85 1377.75C1360.69 1390.6 1377.05 1399.36 1394.87 1402.91C1412.68 1406.46 1431.15 1404.65 1447.93 1397.7C1464.72 1390.75 1479.07 1378.98 1489.16 1363.88C1499.25 1348.78 1504.64 1331.02 1504.64 1312.85C1504.64 1288.51 1494.98 1265.17 1477.78 1247.95C1460.58 1230.73 1437.24 1221.05 1412.91 1221.02ZM1412.91 1392.95C1397.04 1392.97 1381.52 1388.28 1368.32 1379.48C1355.12 1370.67 1344.83 1358.15 1338.75 1343.49C1332.66 1328.83 1331.07 1312.7 1334.16 1297.14C1337.25 1281.58 1344.89 1267.28 1356.11 1256.06C1367.33 1244.84 1381.63 1237.2 1397.19 1234.11C1412.76 1231.02 1428.89 1232.61 1443.54 1238.69C1458.2 1244.77 1470.72 1255.07 1479.53 1268.27C1488.33 1281.47 1493.02 1296.98 1493 1312.85C1493 1334.1 1484.57 1354.47 1469.54 1369.49C1454.52 1384.51 1434.15 1392.95 1412.91 1392.95Z" fill="#E46171"/>
<path d="M1412.9 1232.66V1392.95" stroke="#E46171" stroke-width="27.2757" stroke-miterlimit="10"/>
<path d="M1412.9 1226.85V1398.78" stroke="#E46171" stroke-width="18.1838" stroke-miterlimit="10"/>
<path d="M1352.08 1252.03L1473.73 1373.59" stroke="#E46171" stroke-width="18.1838" stroke-miterlimit="10"/>
<path d="M1326.9 1312.86H1498.92" stroke="#E46171" stroke-width="18.1838" stroke-miterlimit="10"/>
<path d="M1352.08 1373.59L1473.73 1252.03" stroke="#E46171" stroke-width="18.1838" stroke-miterlimit="10"/>
<path d="M1438.72 1312.85C1438.74 1307.74 1437.24 1302.74 1434.42 1298.48C1431.59 1294.22 1427.56 1290.9 1422.85 1288.93C1418.13 1286.96 1412.94 1286.44 1407.92 1287.42C1402.91 1288.41 1398.3 1290.86 1394.68 1294.47C1391.06 1298.08 1388.59 1302.68 1387.58 1307.69C1386.58 1312.7 1387.09 1317.9 1389.04 1322.62C1390.99 1327.34 1394.3 1331.38 1398.55 1334.22C1402.8 1337.06 1407.79 1338.58 1412.9 1338.58C1419.74 1338.58 1426.29 1335.87 1431.13 1331.05C1435.97 1326.23 1438.7 1319.68 1438.72 1312.85Z" fill="#414042"/>
<path d="M1425.46 1312.85C1425.48 1310.34 1424.75 1307.89 1423.37 1305.8C1421.99 1303.7 1420.02 1302.07 1417.7 1301.1C1415.39 1300.13 1412.84 1299.88 1410.38 1300.36C1407.92 1300.85 1405.66 1302.05 1403.89 1303.82C1402.12 1305.6 1400.91 1307.86 1400.43 1310.32C1399.94 1312.78 1400.2 1315.33 1401.17 1317.64C1402.13 1319.95 1403.77 1321.92 1405.86 1323.31C1407.95 1324.69 1410.41 1325.42 1412.92 1325.4C1416.24 1325.4 1419.43 1324.08 1421.79 1321.72C1424.14 1319.37 1425.46 1316.18 1425.46 1312.85Z" fill="#E46171"/>
<path d="M2404.73 667.335H1245.31V1141.63H2404.73V667.335Z" fill="#E46171"/>
<path d="M2405.11 553.01H1245.64V780.887H2405.11V553.01Z" fill="#E46171"/>
<path d="M2404 670H1245V698H2404V670Z" fill="#E8B466"/>
<path d="M2404.73 1097.83H1245.31V1141.63H2404.73V1097.83Z" fill="#E46171"/>
<path d="M1221.27 1154.38H1167.62V1193.91H1221.27V1154.38Z" fill="#231F20"/>
<path d="M1438.31 778.569H1336.02C1323.22 778.569 1312.84 788.945 1312.84 801.743V978.534C1312.84 991.333 1323.22 1001.71 1336.02 1001.71H1438.31C1451.11 1001.71 1461.48 991.333 1461.48 978.534V801.743C1461.48 788.945 1451.11 778.569 1438.31 778.569Z" fill="white"/>
<path d="M629.74 756.555C626.005 757.781 612.65 757.244 606.44 756.822C608.245 756.305 612.351 754.781 614.335 752.82C616.32 750.86 616.583 748.981 616.466 748.286L620.054 742.223C616.657 742.828 609.468 744.363 607.886 745.656C606.304 746.95 601.827 751.456 599.786 753.548C596.749 754.593 590.302 756.766 588.816 757.101C587.33 757.436 585.961 755.403 585.462 754.344L583.656 753.79L578.99 758.535C577.359 759.023 573.665 760.114 571.943 760.574C570.221 761.034 575.043 757.984 577.669 756.401C580.131 753.204 585.003 746.496 584.793 745.247C584.583 743.997 582.899 744.172 582.084 744.416L573.616 749.477C574.468 745.622 575.968 737.453 575.146 735.62C574.325 733.788 573.299 734.395 572.889 734.928C570.38 738.276 565.353 745.166 565.312 745.944C565.272 746.722 564.513 750.969 564.139 752.995C564.025 749.337 563.165 741.186 560.633 737.841C558.102 734.496 557.851 745.304 558.043 751.126C558.687 753.053 560.018 757.413 560.187 759.441C560.398 761.975 558.318 765.537 556.913 766.094C555.788 766.54 556.029 767.635 556.29 768.126C559.744 766.797 567.2 763.962 569.394 763.251C572.136 762.362 584.617 759.519 586.926 759.239C589.235 758.959 595.292 756.122 601.388 757.991C606.265 759.486 623.492 758.674 631.496 758.081C632.435 755.987 633.974 752.97 635.694 750.334C636.375 749.434 637.086 748.463 637.817 747.439C639.278 745.714 640.748 744.585 642.004 744.752C645.421 745.207 653.964 748.172 657.809 749.597C659.371 749.335 662.746 748.641 663.745 747.959C664.745 747.277 661.579 745.895 659.871 745.289C664.111 743.542 671.61 740.193 667.679 740.766C663.749 741.34 658.124 741.049 655.803 740.831C658.538 738.623 664.251 733.738 665.222 731.862C666.435 729.517 656.405 734.84 654.216 733.922C652.465 733.188 655.315 722.815 656.959 717.72C653.414 720.42 646.186 726.274 645.632 728.08C645.079 729.886 643.821 723.243 643.262 719.696C641.559 723.373 638.205 731.682 638.417 735.502C638.63 739.321 638.971 743.823 639.115 745.596C638.677 746.226 638.243 746.841 637.817 747.439C637.098 748.288 636.382 749.28 635.694 750.334C633.104 753.757 630.938 756.161 629.74 756.555Z" fill="#E8B466"/>
<path d="M652.712 724.322C649.384 729.905 643.962 738.624 639.115 745.596M639.115 745.596C635.077 751.403 631.438 755.997 629.74 756.555C626.005 757.781 612.65 757.244 606.44 756.822C608.245 756.305 612.351 754.781 614.335 752.82C616.32 750.86 616.583 748.981 616.466 748.286L620.054 742.223C616.657 742.828 609.468 744.363 607.886 745.656C606.304 746.95 601.827 751.456 599.786 753.548C596.749 754.593 590.302 756.766 588.816 757.101C587.33 757.436 585.961 755.403 585.462 754.344L583.656 753.79L578.99 758.535C577.359 759.023 573.665 760.114 571.943 760.574C570.221 761.034 575.043 757.984 577.669 756.401C580.131 753.204 585.003 746.496 584.793 745.247C584.583 743.997 582.899 744.172 582.084 744.416L573.616 749.477C574.468 745.622 575.968 737.453 575.146 735.62C574.325 733.788 573.299 734.395 572.889 734.928C570.38 738.276 565.353 745.166 565.312 745.944C565.272 746.722 564.513 750.969 564.139 752.995C564.025 749.337 563.165 741.186 560.633 737.841C558.102 734.496 557.851 745.304 558.043 751.126C558.687 753.053 560.018 757.413 560.187 759.441C560.398 761.975 558.318 765.537 556.913 766.094C555.788 766.54 556.029 767.635 556.29 768.126C559.744 766.797 567.2 763.962 569.394 763.251C572.136 762.362 584.617 759.519 586.926 759.239C589.235 758.959 595.292 756.122 601.388 757.991C606.265 759.486 623.492 758.674 631.496 758.081C633.574 753.448 638.586 744.297 642.004 744.752C645.421 745.207 653.964 748.172 657.809 749.597C659.371 749.335 662.746 748.641 663.745 747.959C664.745 747.277 661.579 745.895 659.871 745.289C664.111 743.542 671.61 740.193 667.679 740.766C663.749 741.34 658.124 741.049 655.803 740.831C658.538 738.623 664.251 733.738 665.222 731.862C666.435 729.517 656.405 734.84 654.216 733.922C652.465 733.188 655.315 722.815 656.959 717.72C653.414 720.42 646.186 726.274 645.632 728.08C645.079 729.886 643.821 723.243 643.262 719.696C641.559 723.373 638.205 731.682 638.417 735.502C638.63 739.321 638.971 743.823 639.115 745.596Z" stroke="#E8B466" stroke-width="0.545994"/>
<path d="M477.534 758.435C481.384 759.58 495.007 758.647 501.337 758.038C499.479 757.562 495.241 756.124 493.159 754.179C491.076 752.233 490.753 750.322 490.852 749.61L487.014 743.521C490.5 744.041 497.886 745.401 499.539 746.677C501.192 747.952 505.893 752.425 508.038 754.503C511.17 755.482 517.815 757.517 519.343 757.816C520.87 758.115 522.209 755.999 522.688 754.904L524.517 754.287L529.418 758.998C531.099 759.449 534.902 760.457 536.674 760.877C538.445 761.298 533.434 758.321 530.707 756.78C528.1 753.586 522.932 746.877 523.11 745.594C523.288 744.312 525.013 744.442 525.853 744.668L534.646 749.593C533.665 745.681 531.898 737.381 532.685 735.486C533.471 733.591 534.536 734.182 534.971 734.714C537.628 738.061 542.96 744.953 543.024 745.746C543.088 746.539 543.985 750.854 544.425 752.913C544.436 749.174 545.081 740.825 547.57 737.336C550.059 733.847 550.625 744.878 550.597 750.829C549.995 752.815 548.761 757.306 548.647 759.382C548.504 761.976 550.73 765.554 552.182 766.082C553.343 766.505 553.129 767.63 552.877 768.139C549.311 766.882 541.615 764.2 539.354 763.538C536.528 762.709 523.7 760.165 521.334 759.945C518.968 759.725 512.702 757.002 506.53 759.086C501.592 760.753 483.976 760.419 475.786 760.044C474.766 757.933 473.108 754.896 471.275 752.254C470.553 751.354 469.8 750.383 469.024 749.358C467.482 747.639 465.948 746.528 464.671 746.735C461.194 747.298 452.555 750.571 448.67 752.137C447.067 751.915 443.6 751.303 442.56 750.635C441.52 749.968 444.714 748.465 446.44 747.797C442.06 746.136 434.306 742.93 438.336 743.403C442.366 743.876 448.102 743.416 450.466 743.128C447.609 740.951 441.634 736.127 440.589 734.239C439.283 731.879 449.68 737.027 451.888 736.026C453.655 735.226 450.446 724.715 448.62 719.559C452.318 722.215 459.868 727.985 460.486 729.813C461.103 731.642 462.196 724.822 462.665 721.183C464.511 724.889 468.175 733.278 468.068 737.185C467.961 741.092 467.742 745.698 467.646 747.513C468.111 748.144 468.571 748.76 469.024 749.358C469.783 750.204 470.543 751.198 471.275 752.254C474.019 755.675 476.299 758.068 477.534 758.435Z" fill="#E8B466"/>
<path d="M453.147 726.179C456.707 731.785 462.495 740.533 467.646 747.513M467.646 747.513C471.936 753.328 475.785 757.915 477.534 758.435C481.384 759.58 495.007 758.647 501.337 758.038C499.479 757.562 495.241 756.124 493.159 754.179C491.076 752.233 490.753 750.322 490.852 749.61L487.014 743.521C490.5 744.041 497.886 745.401 499.539 746.677C501.192 747.952 505.893 752.425 508.038 754.503C511.17 755.482 517.815 757.517 519.343 757.816C520.87 758.115 522.209 755.999 522.688 754.904L524.517 754.287L529.418 758.998C531.099 759.449 534.902 760.457 536.674 760.877C538.445 761.298 533.434 758.321 530.707 756.78C528.1 753.586 522.932 746.877 523.11 745.594C523.288 744.312 525.013 744.442 525.853 744.668L534.646 749.593C533.665 745.681 531.898 737.381 532.685 735.486C533.471 733.591 534.536 734.182 534.971 734.714C537.628 738.061 542.96 744.953 543.024 745.746C543.088 746.539 543.985 750.854 544.425 752.913C544.436 749.174 545.081 740.825 547.57 737.336C550.059 733.847 550.625 744.878 550.597 750.829C549.995 752.815 548.761 757.306 548.647 759.382C548.504 761.976 550.73 765.554 552.182 766.082C553.343 766.505 553.129 767.63 552.877 768.139C549.311 766.882 541.615 764.2 539.354 763.538C536.528 762.709 523.7 760.165 521.334 759.945C518.968 759.725 512.702 757.002 506.53 759.086C501.592 760.753 483.976 760.419 475.786 760.044C473.53 755.373 468.148 746.172 464.671 746.735C461.194 747.298 452.555 750.571 448.67 752.137C447.067 751.915 443.6 751.303 442.56 750.635C441.52 749.968 444.714 748.465 446.44 747.797C442.06 746.136 434.306 742.93 438.336 743.403C442.366 743.876 448.102 743.416 450.466 743.128C447.609 740.951 441.634 736.127 440.589 734.239C439.283 731.879 449.68 737.027 451.888 736.026C453.655 735.226 450.446 724.715 448.62 719.559C452.318 722.215 459.868 727.985 460.486 729.813C461.103 731.642 462.196 724.822 462.665 721.183C464.511 724.889 468.175 733.278 468.068 737.185C467.961 741.092 467.742 745.698 467.646 747.513Z" stroke="#E8B466" stroke-width="0.48254"/>
<path d="M1019.92 667.47C1012.13 667.47 1005.27 665.739 999.341 662.279C993.409 658.818 988.959 653.936 985.993 647.633C981.173 652.7 976.476 656.964 971.903 660.425C967.33 663.762 963.437 665.863 960.224 666.728C955.651 666.728 951.572 665.739 947.988 663.762C944.403 661.784 941.561 659.065 939.46 655.605C937.482 652.144 936.493 648.189 936.493 643.74C936.493 640.155 937.359 637.066 939.089 634.47C940.943 631.751 943.353 629.959 946.319 629.094L981.729 619.453L981.914 610.184C981.914 604.004 980.555 599.246 977.836 595.909C975.117 592.572 971.162 590.903 965.971 590.903C962.016 590.903 958.246 591.706 954.662 593.313C951.201 594.92 948.42 596.588 946.319 598.319C944.218 599.925 943.167 600.729 943.167 600.729L942.241 600.173L940.016 592.201C940.016 592.201 940.757 591.768 942.241 590.903C943.847 590.038 945.887 588.987 948.358 587.751C950.83 586.392 953.426 585.094 956.145 583.858C958.988 582.499 961.645 581.386 964.117 580.521C966.589 579.656 968.628 579.223 970.235 579.223C982.347 579.223 990.01 584.167 993.223 594.055C996.807 589.358 1001.07 585.712 1006.02 583.117C1010.96 580.521 1016.09 579.223 1021.4 579.223C1029.31 579.223 1035.49 581.572 1039.94 586.268C1044.51 590.841 1046.8 597.268 1046.8 605.549C1046.8 606.414 1046.74 607.218 1046.62 607.959C1046.49 608.701 1046.43 609.071 1046.43 609.071L1044.76 611.667L994.706 623.532C995.324 633.049 998.167 640.773 1003.23 646.706C1008.43 652.638 1014.79 655.605 1022.33 655.605C1026.04 655.605 1029.62 655.049 1033.08 653.936C1036.67 652.824 1039.57 651.773 1041.8 650.785C1044.02 649.672 1045.13 649.116 1045.13 649.116L1046.25 649.487L1048.28 654.863C1048.28 654.863 1047.36 655.543 1045.5 656.902C1043.65 658.138 1041.24 659.56 1038.27 661.167C1035.43 662.773 1032.34 664.195 1029 665.431C1025.79 666.79 1022.76 667.47 1019.92 667.47ZM962.448 654.678C965.044 654.678 968.134 653.627 971.718 651.526C975.426 649.301 979.442 646.15 983.768 642.071C982.285 637.375 981.544 632.122 981.544 626.313L955.96 633.914C953.982 634.408 952.499 635.397 951.51 636.88C950.521 638.363 950.027 639.97 950.027 641.7C950.027 645.161 951.263 648.189 953.735 650.785C956.207 653.38 959.111 654.678 962.448 654.678ZM994.521 616.672L1026.96 607.403C1029.44 606.661 1030.67 605.549 1030.67 604.066C1030.67 599.987 1029.37 596.588 1026.78 593.869C1024.31 591.027 1021.09 589.605 1017.14 589.605C1010.34 589.605 1004.84 592.015 1000.64 596.836C996.56 601.532 994.521 607.712 994.521 615.375V616.672Z" fill="black"/>
<path d="M531.042 989.341L525.11 986.745L575.166 891.083L581.283 893.679L531.042 989.341ZM515.84 1017.89L510.835 1016.78L510.464 1014.92L525.11 986.745L531.042 989.341L515.84 1017.89ZM581.283 893.679L575.166 891.083L587.031 868.465L592.407 869.763L592.963 871.988L581.283 893.679ZM549.396 1001.95C539.261 1001.95 530.301 999.537 522.514 994.717C514.851 989.897 508.857 983.161 504.531 974.509C500.206 965.858 498.043 955.908 498.043 944.661C498.043 935.515 499.588 926.987 502.677 919.077C505.767 911.167 510.093 904.246 515.655 898.313C521.217 892.381 527.705 887.746 535.121 884.409C542.537 881.072 550.508 879.403 559.036 879.403C569.418 879.403 578.503 881.814 586.289 886.634C594.199 891.454 600.379 898.19 604.828 906.841C609.278 915.369 611.502 925.257 611.502 936.504C611.502 945.774 609.896 954.363 606.682 962.274C603.592 970.184 599.205 977.105 593.519 983.037C587.958 988.97 581.407 993.605 573.868 996.942C566.329 1000.28 558.171 1001.95 549.396 1001.95ZM555.143 992.492C563.053 992.492 569.975 990.453 575.907 986.374C581.84 982.296 586.474 976.672 589.811 969.504C593.272 962.212 595.002 953.807 595.002 944.291C595.002 933.661 593.21 924.33 589.626 916.296C586.042 908.263 581.098 901.959 574.795 897.386C568.491 892.813 561.138 890.527 552.733 890.527C545.07 890.527 538.334 892.566 532.525 896.645C526.717 900.724 522.144 906.409 518.806 913.701C515.593 920.869 513.986 929.212 513.986 938.729C513.986 949.234 515.717 958.566 519.177 966.723C522.638 974.757 527.458 981.06 533.638 985.633C539.941 990.206 547.11 992.492 555.143 992.492Z" fill="black"/>
<path d="M116.569 1001.95C116.569 1001.95 115.642 1001.82 113.788 1001.58C111.934 1001.33 109.586 1001.08 106.743 1000.84C103.9 1000.59 100.934 1000.34 97.8443 1000.09C94.878 999.846 92.2207 999.723 89.8725 999.723C86.7826 999.723 83.5691 999.908 80.2321 1000.28C77.0186 1000.65 74.2378 1001.02 71.8895 1001.39C69.6648 1001.76 68.5524 1001.95 68.5524 1001.95L69.6648 993.419C73.9906 992.554 77.1422 991.504 79.1197 990.268C81.2208 989.032 82.5804 986.931 83.1984 983.964C83.8163 980.998 84.1253 976.549 84.1253 970.616V943.364H59.4682L58.1705 942.066L59.4682 936.133H84.1253L84.3107 899.611C84.3107 895.656 83.8781 892.999 83.013 891.639C82.1478 890.28 80.2939 889.6 77.4512 889.6C76.3389 889.6 74.9793 889.662 73.3726 889.785C71.8895 889.909 71.1479 889.971 71.1479 889.971L70.7771 889.229L72.0749 881.072C72.0749 881.072 72.7546 881.134 74.1142 881.257C75.4737 881.257 77.1422 881.319 79.1197 881.443C81.2208 881.443 83.3837 881.505 85.6084 881.628C87.8331 881.628 89.8107 881.628 91.541 881.628C93.6421 881.628 96.2376 881.628 99.3274 881.628C102.541 881.505 105.693 881.381 108.782 881.257C111.872 881.134 114.468 881.072 116.569 881.072C118.67 880.948 119.721 880.887 119.721 880.887C131.586 880.887 142.091 883.297 151.237 888.117C160.507 892.813 167.737 899.364 172.928 907.768C178.119 916.049 180.714 925.566 180.714 936.319C180.714 945.588 179.046 954.178 175.709 962.088C172.495 969.998 167.922 976.981 161.99 983.037C156.181 988.97 149.383 993.605 141.597 996.942C133.934 1000.28 125.591 1001.95 116.569 1001.95ZM98.5859 936.133H130.102L131.029 937.431L129.917 943.364H98.4005L97.4735 975.436C97.4735 979.886 98.0915 983.346 99.3274 985.818C100.687 988.29 103.035 990.02 106.372 991.009C109.833 991.998 114.653 992.492 120.833 992.492C134.181 992.492 144.687 987.919 152.349 978.773C160.012 969.504 163.844 956.835 163.844 940.768C163.844 929.892 161.619 920.684 157.17 913.145C152.844 905.605 146.417 899.858 137.889 895.903C129.484 891.948 119.164 889.971 106.928 889.971C104.333 889.971 102.603 890.218 101.738 890.712C100.872 891.207 100.378 892.319 100.254 894.049L98.5859 936.133Z" fill="black"/>
<path d="M357.732 1005.04C351.676 1005.04 346.547 1004.11 342.345 1002.26C338.266 1000.28 336.227 997.93 336.227 995.21C336.227 993.975 336.598 992.368 337.339 990.39C338.081 988.289 339.008 986.188 340.12 984.087C341.232 981.986 342.283 980.379 343.272 979.267H345.867C345.867 984.829 347.412 989.154 350.502 992.244C353.592 995.334 357.918 996.879 363.479 996.879C367.187 996.879 370.462 995.334 373.305 992.244C376.148 989.031 377.569 985.447 377.569 981.491C377.569 977.536 376.21 974.138 373.491 971.295C370.771 968.452 367.373 965.795 363.294 963.323C359.215 960.728 355.137 958.07 351.058 955.351C346.98 952.509 343.581 949.295 340.862 945.711C338.142 942.127 336.783 937.801 336.783 932.733C336.783 929.273 337.586 926.183 339.193 923.464C340.8 920.621 342.777 918.026 345.126 915.677C347.597 913.206 350.069 910.857 352.541 908.633C355.013 906.284 357.052 903.936 358.659 901.588C360.266 899.116 361.069 896.52 361.069 893.801C361.069 888.363 358.968 884.099 354.766 881.009C350.564 877.796 344.817 876.189 337.525 876.189C332.828 876.189 328.935 877.425 325.845 879.897C322.755 882.369 320.468 886.138 318.985 891.206C317.502 896.15 316.699 902.576 316.575 910.486L315.463 984.643C315.216 991.441 317.626 994.84 322.693 994.84C325.412 994.84 327.513 994.84 328.997 994.84C330.603 994.716 331.407 994.654 331.407 994.654L331.777 995.396L330.48 1003.18C330.48 1003.18 329.8 1003.12 328.44 1003C327.081 1003 325.35 1003 323.249 1003C321.272 1003 319.233 1002.94 317.131 1002.81C315.154 1002.81 313.485 1002.81 312.126 1002.81C309.53 1002.81 306.997 1002.81 304.525 1002.81C302.053 1002.94 299.828 1003.06 297.851 1003.18C295.873 1003.31 294.266 1003.37 293.031 1003.37C291.918 1003.49 291.362 1003.55 291.362 1003.55L292.289 996.323C296.615 995.705 299.457 994.469 300.817 992.615C302.177 990.637 302.856 987.362 302.856 982.789V935.329C302.733 932.486 301.806 930.571 300.075 929.582C298.469 928.469 295.502 927.851 291.177 927.728L290.435 926.616L291.733 920.312L302.856 918.273C302.856 901.588 306.626 888.61 314.165 879.341C321.704 869.947 332.21 865.251 345.682 865.251C350.626 865.251 355.199 866.363 359.401 868.588C363.727 870.689 367.187 873.47 369.783 876.931C372.502 880.268 373.861 883.914 373.861 887.869C373.861 892.071 373.058 895.779 371.451 898.992C369.968 902.082 368.052 904.925 365.704 907.52C363.356 909.992 361.007 912.34 358.659 914.565C356.311 916.79 354.333 919.076 352.727 921.425C351.244 923.773 350.502 926.368 350.502 929.211C350.502 932.424 351.861 935.329 354.581 937.924C357.3 940.396 360.637 942.868 364.592 945.34C368.67 947.688 372.687 950.222 376.642 952.941C380.597 955.66 383.934 958.874 386.653 962.582C389.372 966.166 390.732 970.492 390.732 975.559C390.732 980.75 389.187 985.632 386.097 990.205C383.131 994.654 379.114 998.239 374.047 1000.96C369.103 1003.68 363.665 1005.04 357.732 1005.04Z" fill="black"/>
<path d="M768.715 999.877C764.513 999.877 760.496 999.259 756.665 998.023C752.833 996.787 749.743 994.872 747.395 992.276C745.047 989.681 743.873 986.405 743.873 982.45C743.873 979.979 744.552 977.136 745.912 973.922C747.395 970.709 749.064 968.052 750.917 965.951H753.698C753.698 974.231 755.305 980.473 758.519 984.675C761.856 989.001 766.181 991.164 771.496 991.164C776.687 991.164 780.642 989.99 783.361 987.641C786.08 985.293 787.872 981.523 788.737 976.333C789.726 971.142 790.221 964.22 790.221 955.569V873.255C790.097 872.019 789.85 871.277 789.479 871.03C789.108 870.783 787.687 870.659 785.215 870.659C779.035 870.659 774.462 873.193 771.496 878.26C768.53 883.328 767.047 889.878 767.047 897.912C767.047 907.058 768.097 914.597 770.198 920.53C772.299 926.462 775.513 932.395 779.839 938.327V941.108C771.929 940.367 764.513 938.389 757.592 935.176C750.794 931.962 745.294 927.266 741.092 921.086C736.89 914.906 734.788 907.181 734.788 897.912C734.788 891.238 736.333 885.182 739.423 879.743C742.637 874.182 747.148 869.794 752.957 866.581C758.889 863.244 765.872 861.575 773.906 861.575C778.603 861.575 783.176 861.699 787.625 861.946C792.074 862.193 795.473 862.317 797.822 862.317C799.552 862.317 801.715 862.317 804.31 862.317C806.906 862.193 809.439 862.131 811.911 862.131C814.507 862.008 816.67 861.946 818.4 861.946C820.13 861.822 820.996 861.76 820.996 861.76L819.883 869.547L819.512 870.288C813.827 870.041 809.996 870.536 808.018 871.772C806.041 873.008 804.928 875.294 804.681 878.631C804.31 880.856 804.001 884.316 803.754 889.013C803.507 893.71 803.322 899.024 803.198 904.957C803.074 910.889 802.951 916.945 802.827 923.125C802.827 929.181 802.765 934.805 802.642 939.996C802.642 945.063 802.642 949.018 802.642 951.861C802.642 959.4 802.209 966.136 801.344 972.069C800.479 978.001 798.872 983.007 796.524 987.085C794.176 991.287 790.777 994.439 786.327 996.54C781.878 998.765 776.007 999.877 768.715 999.877Z" fill="black"/>
<path d="M989.701 1001.95C979.566 1001.95 970.605 999.537 962.819 994.717C955.156 989.897 949.162 983.161 944.836 974.509C940.51 965.858 938.347 955.908 938.347 944.661C938.347 935.515 939.892 926.987 942.982 919.077C946.072 911.167 950.398 904.246 955.96 898.313C961.521 892.381 968.01 887.746 975.426 884.409C982.841 881.072 990.813 879.403 999.341 879.403C1009.72 879.403 1018.81 881.814 1026.59 886.634C1034.5 891.454 1040.68 898.19 1045.13 906.841C1049.58 915.369 1051.81 925.257 1051.81 936.504C1051.81 945.774 1050.2 954.363 1046.99 962.274C1043.9 970.184 1039.51 977.105 1033.82 983.037C1028.26 988.97 1021.71 993.605 1014.17 996.942C1006.63 1000.28 998.476 1001.95 989.701 1001.95ZM995.448 992.492C1003.36 992.492 1010.28 990.453 1016.21 986.374C1022.14 982.296 1026.78 976.672 1030.12 969.504C1033.58 962.212 1035.31 953.807 1035.31 944.291C1035.31 933.661 1033.52 924.33 1029.93 916.296C1026.35 908.263 1021.4 901.959 1015.1 897.386C1008.8 892.813 1001.44 890.527 993.038 890.527C985.375 890.527 978.639 892.566 972.83 896.645C967.021 900.724 962.448 906.409 959.111 913.701C955.898 920.869 954.291 929.212 954.291 938.729C954.291 949.234 956.021 958.566 959.482 966.723C962.943 974.757 967.763 981.06 973.943 985.633C980.246 990.206 987.414 992.492 995.448 992.492ZM1008.8 867.168C1006.32 867.168 1004.41 866.364 1003.05 864.758C1001.81 863.027 1001.2 861.173 1001.2 859.196C1001.2 856.724 1002.06 854.561 1003.79 852.707C1005.52 850.853 1007.75 849.926 1010.46 849.926C1012.94 849.926 1014.79 850.73 1016.03 852.336C1017.39 853.943 1018.07 855.797 1018.07 857.898C1018.07 860.37 1017.2 862.533 1015.47 864.387C1013.74 866.241 1011.52 867.168 1008.8 867.168ZM978.021 867.168C975.549 867.168 973.634 866.364 972.274 864.758C971.038 863.027 970.42 861.173 970.42 859.196C970.42 856.724 971.285 854.561 973.016 852.707C974.746 850.853 976.971 849.926 979.69 849.926C982.162 849.926 984.015 850.73 985.251 852.336C986.611 853.943 987.291 855.797 987.291 857.898C987.291 860.37 986.426 862.533 984.695 864.387C982.965 866.241 980.74 867.168 978.021 867.168Z" fill="black"/>
<path d="M124.788 642.009C124.911 645.717 123.614 649.672 120.895 653.875C118.299 658.2 114.653 661.846 109.957 664.813C105.26 667.779 99.9454 669.262 94.0129 669.262C89.9342 669.262 86.2264 668.582 82.8894 667.223C79.6759 665.987 77.0804 664.256 75.1029 662.032C73.249 659.807 72.322 657.273 72.322 654.431C72.322 651.588 72.631 648.498 73.249 645.161C73.867 641.7 74.4849 639.538 75.1029 638.672H77.8838C79.1197 645.223 81.7152 650.476 85.6702 654.431C89.6253 658.509 94.3218 660.549 99.76 660.549C103.715 660.549 107.052 659.251 109.771 656.655C112.614 654.184 114.035 651.032 114.035 647.2C114.035 643.369 112.799 639.908 110.327 636.818C107.979 633.605 104.951 630.577 101.243 627.734C97.5353 624.892 93.5185 621.987 89.1927 619.021C84.9905 616.055 81.0354 612.965 77.3276 609.751C73.6198 606.414 70.5299 602.706 68.058 598.628C65.7097 594.549 64.5356 589.976 64.5356 584.909C64.5356 581.201 65.4625 577.493 67.3165 573.785C69.1704 569.954 71.8277 566.308 75.2883 562.847C78.8725 559.387 83.013 556.358 87.7095 553.763L88.4511 560.066C83.6309 562.785 80.1703 565.628 78.0692 568.594C75.9681 571.437 74.9175 574.836 74.9175 578.791C74.9175 582.499 76.0917 586.021 78.44 589.358C80.9118 592.572 84.0017 595.785 87.7095 598.999C91.541 602.088 95.5578 605.24 99.76 608.454C104.086 611.543 108.103 614.819 111.81 618.279C115.642 621.74 118.732 625.448 121.08 629.403C123.552 633.234 124.788 637.436 124.788 642.009ZM122.563 637.189C126.889 634.717 130.164 631.875 132.389 628.661C134.614 625.448 135.726 621.802 135.726 617.723C135.726 614.262 134.49 610.987 132.018 607.897C129.67 604.684 126.58 601.532 122.749 598.442C119.041 595.229 115.086 592.077 110.884 588.987C106.681 585.774 102.664 582.499 98.833 579.162C95.1252 575.701 92.0353 572.117 89.5635 568.409C87.2152 564.578 86.041 560.561 86.041 556.358C86.041 551.538 87.277 547.089 89.7489 543.01C92.2207 538.932 95.496 535.656 99.5746 533.185C103.777 530.713 108.35 529.477 113.294 529.477C116.507 529.477 119.473 529.909 122.192 530.774C125.035 531.64 127.322 532.752 129.052 534.111C130.782 535.471 131.647 536.954 131.647 538.561C131.647 540.044 131.462 541.836 131.091 543.937C130.72 545.915 130.226 547.769 129.608 549.499C129.114 551.229 128.619 552.403 128.125 553.021H125.529C123.799 548.696 121.142 545.235 117.558 542.64C113.973 539.92 110.327 538.561 106.619 538.561C103.653 538.561 101.181 539.673 99.2038 541.898C97.2263 543.999 96.2376 546.718 96.2376 550.055C96.2376 553.887 97.4117 557.409 99.76 560.623C102.232 563.836 105.384 566.864 109.215 569.707C113.046 572.549 117.063 575.454 121.265 578.42C125.591 581.263 129.67 584.291 133.501 587.504C137.333 590.718 140.423 594.302 142.771 598.257C145.243 602.088 146.479 606.414 146.479 611.234C146.479 615.56 145.428 619.886 143.327 624.212C141.35 628.414 138.63 632.245 135.17 635.706C131.709 639.167 127.692 641.948 123.119 644.049L122.563 637.189Z" fill="black"/>
<path d="M332.302 672.105C324.515 672.105 317.161 670.621 310.24 667.655C303.442 664.689 297.448 660.672 292.257 655.605C287.19 650.414 283.173 644.419 280.207 637.622C277.364 630.7 275.943 623.347 275.943 615.56C275.943 607.774 277.364 600.482 280.207 593.684C283.173 586.763 287.19 580.768 292.257 575.701C297.448 570.51 303.442 566.431 310.24 563.465C317.161 560.499 324.515 559.016 332.302 559.016C340.088 559.016 347.38 560.499 354.178 563.465C361.099 566.431 367.155 570.51 372.346 575.701C377.537 580.768 381.554 586.763 384.397 593.684C387.363 600.482 388.846 607.774 388.846 615.56C388.846 623.347 387.363 630.7 384.397 637.622C381.554 644.419 377.537 650.414 372.346 655.605C367.155 660.672 361.099 664.689 354.178 667.655C347.38 670.621 340.088 672.105 332.302 672.105ZM331.004 645.594C324.701 645.594 319.51 644.296 315.431 641.7C311.353 638.981 308.263 635.459 306.162 631.133C304.184 626.684 303.195 621.863 303.195 616.672C303.195 610.493 304.493 604.931 307.089 599.987C309.808 595.043 313.577 591.15 318.397 588.308C323.218 585.465 328.841 584.044 335.268 584.044C338.111 584.044 340.892 584.229 343.611 584.6C346.33 584.97 348.554 585.341 350.285 585.712C352.139 586.083 353.066 586.268 353.066 586.268L353.436 587.01C353.436 587.01 353.066 588.617 352.324 591.83C351.706 595.043 351.274 598.998 351.026 603.695L344.908 604.066C344.908 604.066 344.908 603.571 344.908 602.583C345.032 601.594 345.094 600.605 345.094 599.616C345.094 597.268 344.229 595.352 342.498 593.869C340.768 592.263 337.678 591.459 333.229 591.459C327.791 591.459 323.465 593.313 320.251 597.021C317.038 600.729 315.431 606.229 315.431 613.521C315.431 621.06 316.914 627.178 319.881 631.875C322.847 636.571 327.42 638.919 333.6 638.919C337.925 638.919 341.201 637.807 343.425 635.582C345.774 633.358 347.38 629.835 348.245 625.015L354.178 624.644C354.178 624.644 353.993 625.509 353.622 627.24C353.251 628.97 352.88 631.071 352.509 633.543C352.139 636.015 351.891 638.425 351.768 640.773L351.026 642.071C351.026 642.071 350.161 642.38 348.431 642.998C346.701 643.492 344.352 644.049 341.386 644.667C338.42 645.285 334.959 645.594 331.004 645.594ZM332.302 664.689C338.976 664.689 345.279 663.453 351.212 660.981C357.144 658.386 362.335 654.863 366.785 650.414C371.234 645.841 374.695 640.588 377.167 634.655C379.762 628.723 381.06 622.358 381.06 615.56C381.06 608.762 379.762 602.397 377.167 596.465C374.695 590.532 371.234 585.341 366.785 580.892C362.335 576.319 357.144 572.796 351.212 570.325C345.279 567.729 338.976 566.431 332.302 566.431C325.628 566.431 319.324 567.729 313.392 570.325C307.583 572.796 302.454 576.319 298.004 580.892C293.555 585.341 290.032 590.532 287.437 596.465C284.965 602.397 283.729 608.762 283.729 615.56C283.729 622.358 284.965 628.723 287.437 634.655C290.032 640.588 293.555 645.841 298.004 650.414C302.454 654.863 307.583 658.386 313.392 660.981C319.324 663.453 325.628 664.689 332.302 664.689Z" fill="black"/>
<path d="M548.748 663.206C556.04 662.588 560.86 661.723 563.209 660.61C565.557 659.374 566.731 657.088 566.731 653.751C566.731 651.65 566.546 649.61 566.175 647.633C565.928 645.532 565.681 643.492 565.433 641.515L562.096 618.712L543.743 620.195L526.872 622.049L513.709 647.633C512.597 649.734 511.793 651.464 511.299 652.824C510.928 654.06 510.743 655.172 510.743 656.161C510.743 658.262 511.546 659.869 513.153 660.981C514.883 661.97 517.479 662.464 520.939 662.464H531.507L530.58 671.178C530.58 671.178 529.776 671.116 528.17 670.992C526.687 670.869 524.709 670.683 522.237 670.436C519.765 670.312 516.984 670.189 513.895 670.065C510.928 669.942 507.962 669.88 504.996 669.88C503.636 669.88 501.968 669.942 499.99 670.065C498.013 670.189 496.221 670.312 494.614 670.436C493.131 670.56 492.389 670.621 492.389 670.621L491.091 664.133C491.091 664.133 492.327 662.65 494.799 659.683C497.395 656.593 500.052 652.515 502.771 647.447L548.563 562.724C548.316 561.611 547.821 560.87 547.08 560.499C546.338 560.004 545.288 559.757 543.928 559.757C542.816 559.757 541.456 559.819 539.849 559.943C538.366 560.066 537.625 560.128 537.625 560.128L537.254 559.386L538.552 551.229C538.552 551.229 539.231 551.229 540.591 551.229C542.074 551.229 544.113 551.291 546.709 551.415C549.304 551.538 552.394 551.662 555.978 551.785C559.563 551.785 563.58 551.785 568.029 551.785C575.321 551.785 581.81 551.785 587.495 551.785C593.18 551.662 598.186 551.538 602.512 551.415C606.838 551.167 610.669 550.92 614.006 550.673C617.467 550.302 620.557 549.931 623.276 549.561L623.832 550.673C623.832 550.673 623.523 552.094 622.905 554.937C622.41 557.656 621.793 561.364 621.051 566.061C620.433 570.634 619.939 575.763 619.568 581.448L610.669 582.19C610.669 582.19 610.731 581.201 610.854 579.223C610.978 577.122 611.04 575.454 611.04 574.218C611.04 570.139 610.422 567.173 609.186 565.319C608.074 563.465 605.478 562.291 601.399 561.797C597.321 561.302 590.832 561.055 581.933 561.055C576.248 561.055 572.664 561.364 571.181 561.982C569.821 562.6 569.079 564.207 568.956 566.802L574.703 609.071L596.579 607.032L613.635 604.622L614.377 605.549L611.967 615.375L596.023 615.931L575.815 617.599L581.006 648.931C581.748 653.627 583.293 656.902 585.641 658.756C587.989 660.61 591.635 661.537 596.579 661.537C603.253 661.537 608.63 661.29 612.708 660.796C616.787 660.301 619.877 659.313 621.978 657.829C624.203 656.346 625.809 654.122 626.798 651.155C627.91 648.065 628.837 643.987 629.579 638.919L637.736 637.993L638.292 638.919C638.292 638.919 637.983 640.464 637.365 643.554C636.747 646.521 636.068 650.352 635.326 655.049C634.585 659.745 633.905 664.751 633.287 670.065L632.36 671.178C632.36 671.178 630.691 671.116 627.354 670.992C624.017 670.869 619.691 670.683 614.377 670.436C609.186 670.312 603.748 670.189 598.062 670.065C592.377 669.942 587.186 669.88 582.489 669.88H576.186C571.49 669.88 567.04 670.003 562.838 670.251C558.636 670.621 555.237 670.93 552.641 671.178C550.046 671.548 548.748 671.734 548.748 671.734L548.377 670.436L548.748 663.206ZM547.45 611.482L560.984 610.369L555.422 569.954H553.754L531.878 612.408L547.45 611.482Z" fill="black"/>
<path d="M756.294 671.733L757.221 663.761C761.547 663.019 764.513 662.031 766.12 660.795C767.85 659.435 768.839 657.334 769.086 654.491C769.333 651.649 769.457 647.632 769.457 642.441C765.749 642.441 762.041 642.441 758.333 642.441C754.625 642.441 750.917 642.503 747.21 642.626C743.502 642.626 739.794 642.626 736.086 642.626L735.159 641.329L736.086 635.952H768.9C768.406 634.346 767.85 632.801 767.232 631.317C766.738 629.711 765.996 627.98 765.007 626.126L760.558 618.155C756.479 618.155 752.401 618.216 748.322 618.34C744.243 618.34 740.165 618.34 736.086 618.34L735.159 617.042L736.086 611.666H756.85C754.502 607.34 752.524 603.57 750.917 600.357C749.311 597.02 747.704 594.239 746.097 592.014C744.491 589.666 742.513 587.874 740.165 586.638C737.816 585.402 734.665 584.722 730.71 584.599C730.586 584.352 730.524 584.104 730.524 583.857C730.524 583.486 730.463 583.177 730.339 582.93C730.586 581.818 730.833 580.706 731.081 579.593C731.328 578.481 731.513 577.368 731.637 576.256C731.637 576.256 732.626 576.318 734.603 576.442C736.581 576.442 738.991 576.503 741.833 576.627C744.676 576.75 747.271 576.812 749.62 576.812C751.474 576.812 753.389 576.75 755.367 576.627C757.468 576.503 759.445 576.38 761.299 576.256C763.277 576.133 765.069 576.009 766.676 575.885C768.282 575.762 769.518 575.7 770.384 575.7C771.372 575.576 771.867 575.515 771.867 575.515L772.794 577.368L772.238 583.672C767.047 584.166 763.771 584.722 762.412 585.34C761.176 585.958 760.558 586.885 760.558 588.121C760.558 588.986 760.743 589.913 761.114 590.902C761.485 591.891 762.041 593.189 762.783 594.795C762.783 594.795 762.721 594.795 762.597 594.795L777.428 623.902L794.67 594.424C795.288 593.312 795.844 592.2 796.338 591.087C796.833 589.975 797.08 588.801 797.08 587.565C797.08 586.823 796.647 586.267 795.782 585.896C795.041 585.402 793.928 584.97 792.445 584.599C790.962 584.228 789.232 583.981 787.254 583.857C787.254 583.61 787.192 583.363 787.069 583.116C787.069 582.868 787.069 582.683 787.069 582.559L787.996 575.7C787.996 575.7 789.046 575.824 791.147 576.071C793.249 576.194 795.72 576.38 798.563 576.627C801.406 576.75 803.939 576.812 806.164 576.812C808.265 576.812 810.428 576.75 812.653 576.627C815.001 576.503 816.979 576.442 818.585 576.442C820.192 576.318 820.996 576.256 820.996 576.256L821.922 577.554L820.81 584.413C817.473 584.908 814.878 585.649 813.024 586.638C811.293 587.627 809.687 589.048 808.204 590.902C806.844 592.756 805.052 595.351 802.827 598.689L795.041 611.295C798.625 611.172 802.209 611.11 805.793 611.11C809.378 611.11 812.9 611.048 816.361 610.924L817.473 612.593L816.917 618.155H790.777L784.288 628.722C783.794 629.587 783.361 630.699 782.99 632.059C782.743 633.419 782.558 634.716 782.434 635.952C786.265 635.829 790.035 635.767 793.743 635.767C797.574 635.643 801.344 635.52 805.052 635.396C808.883 635.272 812.653 635.211 816.361 635.211L817.473 636.879L816.917 642.441H782.249C782.249 644.171 782.187 645.963 782.063 647.817C782.063 649.671 782.063 651.463 782.063 653.194C782.063 656.654 782.434 659.003 783.176 660.239C784.041 661.474 785.648 662.092 787.996 662.092C788.614 662.092 789.17 662.092 789.664 662.092C790.282 661.969 790.9 661.907 791.518 661.907C792.878 661.783 794.052 661.722 795.041 661.722C796.029 661.722 796.524 661.722 796.524 661.722L796.895 663.205L795.226 670.25C795.226 670.25 794.485 670.188 793.001 670.064C791.642 670.064 789.85 670.064 787.625 670.064C785.524 670.064 783.299 670.003 780.951 669.879C778.603 669.879 776.563 669.879 774.833 669.879C772.979 669.879 770.94 669.941 768.715 670.064C766.614 670.311 764.636 670.559 762.783 670.806C760.929 671.053 759.384 671.238 758.148 671.362C756.912 671.609 756.294 671.733 756.294 671.733Z" fill="black"/>
</g>
<defs>
<clipPath id="clip0_343_457">
<rect width="1440" height="1721" fill="white"/>
</clipPath>
</defs>
</svg>
